STARTFONT 2.3
FONT -FontForge-Roboto Condensed-Book-R-Condensed---20-200-72-72-P-98-ISO10646-1
SIZE 20 72 72  2
FONTBOUNDINGBOX 35 26 -15 -6
COMMENT "Generated by fontforge, http://fontforge.sourceforge.net"
COMMENT "Copyright 2011 Google Inc. All Rights Reserved."
STARTPROPERTIES 42
FOUNDRY "FontForge"
FAMILY_NAME "Roboto Condensed"
WEIGHT_NAME "Book"
SLANT "R"
SETWIDTH_NAME "Condensed"
ADD_STYLE_NAME ""
PIXEL_SIZE 20
POINT_SIZE 200
RESOLUTION_X 72
RESOLUTION_Y 72
SPACING "P"
AVERAGE_WIDTH 98
CHARSET_REGISTRY "ISO10646"
CHARSET_ENCODING "1"
FONTNAME_REGISTRY ""
CHARSET_COLLECTIONS "ISO8859-2 ISO8859-5 ISO8859-7 ISO8859-9 ISO8859-4 ISO10646-1"
BITS_PER_PIXEL 2
FONT_NAME "RobotoCondensed-Regular"
FACE_NAME "Roboto Condensed"
COPYRIGHT "Copyright 2011 Google Inc. All Rights Reserved."
FONT_VERSION "2.137; 2017"
FONT_ASCENT 15
FONT_DESCENT 5
UNDERLINE_POSITION -2
UNDERLINE_THICKNESS 1
X_HEIGHT 10
CAP_HEIGHT 13
DEFAULT_CHAR 1
RAW_ASCENT 750
RAW_DESCENT 250
NORM_SPACE 5
RELATIVE_WEIGHT 40
RELATIVE_SETWIDTH 50
SUPERSCRIPT_X 0
SUPERSCRIPT_Y 9
SUPERSCRIPT_SIZE 12
SUBSCRIPT_X 0
SUBSCRIPT_Y 2
SUBSCRIPT_SIZE 12
FIGURE_WIDTH 10
AVG_LOWERCASE_WIDTH 96
AVG_UPPERCASE_WIDTH 114
ENDPROPERTIES
CHARS 1296
STARTCHAR uni0000
ENCODING 0
SWIDTH 0 0
DWIDTH 0 0
BBX 1 1 0 0
BITMAP
00
ENDCHAR
STARTCHAR uni0002
ENCODING 2
SWIDTH 0 0
DWIDTH 0 0
BBX 1 1 0 0
BITMAP
00
ENDCHAR
STARTCHAR uni000D
ENCODING 13
SWIDTH 229 0
DWIDTH 5 0
BBX 1 1 0 0
BITMAP
00
ENDCHAR
STARTCHAR space
ENCODING 32
SWIDTH 229 0
DWIDTH 5 0
BBX 1 1 0 0
BITMAP
00
ENDCHAR
STARTCHAR exclam
ENCODING 33
SWIDTH 245 0
DWIDTH 5 0
BBX 3 14 1 0
BITMAP
74
74
74
74
74
74
74
74
74
74
00
00
74
74
ENDCHAR
STARTCHAR quotedbl
ENCODING 34
SWIDTH 319 0
DWIDTH 6 0
BBX 5 5 1 10
BITMAP
A340
A340
A340
A300
9300
ENDCHAR
STARTCHAR numbersign
ENCODING 35
SWIDTH 547 0
DWIDTH 11 0
BBX 10 14 1 0
BITMAP
01C340
01C340
028700
3FFFD0
179E40
070D00
070D00
0A1C00
BFFF80
5E6D40
0D2800
0D2800
1C3400
1C3400
ENDCHAR
STARTCHAR dollar
ENCODING 36
SWIDTH 493 0
DWIDTH 10 0
BBX 8 18 1 -2
BITMAP
0280
0280
0BE0
2EBC
782D
740E
7409
3D00
1F90
02F8
002D
500E
B00E
B41E
7EBC
1BE4
0280
0280
ENDCHAR
STARTCHAR percent
ENCODING 37
SWIDTH 632 0
DWIDTH 13 0
BBX 11 14 1 0
BITMAP
2E0000
A68000
D1C140
D1C340
D1CA00
A69C00
2E2800
0076E0
00DE74
01CC28
035C28
0A0C28
090E74
0006E0
ENDCHAR
STARTCHAR ampersand
ENCODING 38
SWIDTH 543 0
DWIDTH 11 0
BBX 10 14 1 0
BITMAP
0BE000
2EB800
382C00
382C00
2C7800
1FE000
0F8000
2FC140
B5E2C0
F07B80
E02F40
B01F00
7EBF80
1BE2D0
ENDCHAR
STARTCHAR quotesingle
ENCODING 39
SWIDTH 174 0
DWIDTH 3 0
BBX 2 5 1 10
BITMAP
D0
D0
D0
D0
D0
ENDCHAR
STARTCHAR parenleft
ENCODING 40
SWIDTH 313 0
DWIDTH 6 0
BBX 5 21 1 -5
BITMAP
0140
0340
0A00
1D00
2C00
3800
7400
7400
B000
B000
B000
B000
B000
7400
7400
3800
2C00
1D00
0A00
0340
0140
ENDCHAR
STARTCHAR parenright
ENCODING 41
SWIDTH 318 0
DWIDTH 6 0
BBX 5 21 0 -5
BITMAP
5000
7400
2C00
0D00
0B00
0740
0380
0380
02C0
02C0
02C0
02C0
03C0
0380
0380
0740
0B00
0D00
1C00
7400
5000
ENDCHAR
STARTCHAR asterisk
ENCODING 42
SWIDTH 430 0
DWIDTH 9 0
BBX 8 8 0 6
BITMAP
01C0
01C0
61C6
7FFF
07E4
0BB0
1D38
1818
ENDCHAR
STARTCHAR plus
ENCODING 43
SWIDTH 496 0
DWIDTH 10 0
BBX 8 11 1 1
BITMAP
0380
0380
0380
0380
FFFF
ABEA
0380
0380
0380
0380
0140
ENDCHAR
STARTCHAR comma
ENCODING 44
SWIDTH 196 0
DWIDTH 4 0
BBX 3 5 0 -3
BITMAP
2C
2C
38
74
60
ENDCHAR
STARTCHAR hyphen
ENCODING 45
SWIDTH 248 0
DWIDTH 5 0
BBX 5 2 0 5
BITMAP
BF80
5540
ENDCHAR
STARTCHAR period
ENCODING 46
SWIDTH 263 0
DWIDTH 5 0
BBX 3 2 1 0
BITMAP
78
74
ENDCHAR
STARTCHAR slash
ENCODING 47
SWIDTH 370 0
DWIDTH 7 0
BBX 7 15 0 -1
BITMAP
0038
0074
00B0
00E0
01D0
02C0
0380
0740
0B00
0E00
1D00
2C00
3800
7400
B000
ENDCHAR
STARTCHAR zero
ENCODING 48
SWIDTH 493 0
DWIDTH 10 0
BBX 8 14 1 0
BITMAP
0BE0
3EB8
742D
B01E
B00E
F00E
F00E
F00E
F00E
B00E
B01E
742D
3EB8
0BE0
ENDCHAR
STARTCHAR one
ENCODING 49
SWIDTH 493 0
DWIDTH 10 0
BBX 6 14 1 0
BITMAP
0190
1FD0
7AD0
51D0
01D0
01D0
01D0
01D0
01D0
01D0
01D0
01D0
01D0
01D0
ENDCHAR
STARTCHAR two
ENCODING 50
SWIDTH 493 0
DWIDTH 10 0
BBX 8 14 1 0
BITMAP
1BE0
7EBC
B02D
E01E
501D
002C
0038
00B0
02D0
0780
1E00
3C00
B955
FFFF
ENDCHAR
STARTCHAR three
ENCODING 51
SWIDTH 493 0
DWIDTH 10 0
BBX 8 14 1 0
BITMAP
1BE0
7EB8
B02D
E01D
001D
0078
0BF0
05B8
002D
001E
E01E
B02D
7EB8
1BE0
ENDCHAR
STARTCHAR four
ENCODING 52
SWIDTH 493 0
DWIDTH 10 0
BBX 10 14 0 0
BITMAP
001E00
003E00
00BE00
00EE00
02CE00
074E00
0B0E00
1D0E00
380E00
7FFFD0
555F40
000E00
000E00
000E00
ENDCHAR
STARTCHAR five
ENCODING 53
SWIDTH 493 0
DWIDTH 10 0
BBX 8 14 1 0
BITMAP
2FFE
2EA9
2C00
3800
3800
3AF4
3EBD
141E
000F
000B
700B
781E
2EBD
0BE4
ENDCHAR
STARTCHAR six
ENCODING 54
SWIDTH 493 0
DWIDTH 10 0
BBX 8 14 1 0
BITMAP
01B0
0BA0
2D00
3800
7400
B6E4
BEBC
B41E
B00E
B00F
740E
781E
2EBC
0BE4
ENDCHAR
STARTCHAR seven
ENCODING 55
SWIDTH 493 0
DWIDTH 10 0
BBX 9 14 0 0
BITMAP
7FFFC0
155780
000740
000B00
000E00
001D00
002C00
007800
00B000
00E000
01D000
02C000
038000
0B4000
ENDCHAR
STARTCHAR eight
ENCODING 56
SWIDTH 493 0
DWIDTH 10 0
BBX 8 14 1 0
BITMAP
0BE0
3EB8
742D
B01D
B41D
383C
1FF4
2EB8
B41D
B00E
B00E
B41E
7EBC
1BE0
ENDCHAR
STARTCHAR nine
ENCODING 57
SWIDTH 493 0
DWIDTH 10 0
BBX 8 14 1 0
BITMAP
1BD0
3EB4
B43C
B01D
E01D
E00E
B01E
787E
2FED
055D
002C
0078
0AE0
1E40
ENDCHAR
STARTCHAR colon
ENCODING 58
SWIDTH 233 0
DWIDTH 5 0
BBX 3 11 1 0
BITMAP
B4
74
00
00
00
00
00
00
00
B4
74
ENDCHAR
STARTCHAR semicolon
ENCODING 59
SWIDTH 202 0
DWIDTH 4 0
BBX 4 14 0 -3
BITMAP
2D
2D
00
00
00
00
00
00
00
2C
2C
2C
78
60
ENDCHAR
STARTCHAR less
ENCODING 60
SWIDTH 445 0
DWIDTH 9 0
BBX 8 9 0 2
BITMAP
0005
007D
06F4
2F40
7C00
2F40
06F4
007D
0005
ENDCHAR
STARTCHAR equal
ENCODING 61
SWIDTH 479 0
DWIDTH 10 0
BBX 8 6 1 3
BITMAP
BFFD
6AA9
0000
0000
BFFD
6AA8
ENDCHAR
STARTCHAR greater
ENCODING 62
SWIDTH 459 0
DWIDTH 9 0
BBX 8 9 1 2
BITMAP
9000
B900
1F90
01F8
002D
01F8
1F90
B900
9000
ENDCHAR
STARTCHAR question
ENCODING 63
SWIDTH 421 0
DWIDTH 8 0
BBX 7 14 1 0
BITMAP
2F90
BAF0
E074
5038
0074
00B0
02D0
0780
0B00
0E00
0000
0000
0A00
0A00
ENDCHAR
STARTCHAR at
ENCODING 64
SWIDTH 769 0
DWIDTH 15 0
BBX 14 18 1 -4
BITMAP
006FE000
02E57C00
0B000B00
1C000240
381B8180
7039E0C0
A0B0A0D0
A0E0D090
A0D0D090
D1D0D0D0
91C0D0D0
A1D1D1C0
A0E7E740
707D7E00
38000000
1D000000
07959000
01BF9000
ENDCHAR
STARTCHAR A
ENCODING 65
SWIDTH 576 0
DWIDTH 12 0
BBX 11 14 0 0
BITMAP
003800
007C00
00BD00
00DE00
01CB00
02C740
038380
0742C0
0B01D0
0FFFE0
1EAAF0
2C00B4
380078
74003C
ENDCHAR
STARTCHAR B
ENCODING 66
SWIDTH 545 0
DWIDTH 11 0
BBX 9 14 1 0
BITMAP
7FF800
7AAF00
740B40
740740
740740
741F00
7FFC00
7AAE00
740740
740380
740380
740780
7AAF00
7FF800
ENDCHAR
STARTCHAR C
ENCODING 67
SWIDTH 566 0
DWIDTH 11 0
BBX 10 14 1 0
BITMAP
06F900
1FAF40
3C03C0
7402D0
B00190
B00000
B00000
B00000
B00000
B00190
7402D0
3803C0
1FAF40
06F900
ENDCHAR
STARTCHAR D
ENCODING 68
SWIDTH 570 0
DWIDTH 11 0
BBX 10 14 1 0
BITMAP
7FE400
7ABE00
740B40
7403C0
7402C0
7402C0
7402D0
7402D0
7402C0
7402C0
7403C0
740B40
7ABE00
7FE400
ENDCHAR
STARTCHAR E
ENCODING 69
SWIDTH 496 0
DWIDTH 10 0
BBX 9 14 1 0
BITMAP
7FFF00
7AAA00
740000
740000
740000
740000
7FFD00
7AA900
740000
740000
740000
740000
7AAA00
7FFF40
ENDCHAR
STARTCHAR F
ENCODING 70
SWIDTH 480 0
DWIDTH 10 0
BBX 8 14 1 0
BITMAP
7FFF
7AAA
7400
7400
7400
7400
7FFC
7AA8
7400
7400
7400
7400
7400
7400
ENDCHAR
STARTCHAR G
ENCODING 71
SWIDTH 590 0
DWIDTH 12 0
BBX 10 14 1 0
BITMAP
06F900
2FAF40
7803C0
B402D0
B00040
B00000
B00000
B03FD0
B02AD0
B001D0
B401D0
3C01D0
1FABC0
06FE00
ENDCHAR
STARTCHAR H
ENCODING 72
SWIDTH 620 0
DWIDTH 12 0
BBX 10 14 1 0
BITMAP
7400F0
7400F0
7400F0
7400F0
7400F0
7400F0
7FFFF0
7AAAF0
7400F0
7400F0
7400F0
7400F0
7400F0
7400F0
ENDCHAR
STARTCHAR I
ENCODING 73
SWIDTH 250 0
DWIDTH 5 0
BBX 3 14 1 0
BITMAP
74
74
74
74
74
74
74
74
74
74
74
74
74
74
ENDCHAR
STARTCHAR J
ENCODING 74
SWIDTH 483 0
DWIDTH 10 0
BBX 9 14 0 0
BITMAP
000B40
000B40
000B40
000B40
000B40
000B40
000B40
000B40
000B40
000B40
740B40
380F00
2EBD00
0BF400
ENDCHAR
STARTCHAR K
ENCODING 75
SWIDTH 544 0
DWIDTH 11 0
BBX 10 14 1 0
BITMAP
7403C0
740B40
742E00
747800
74F000
76D000
7BC000
7FE000
7CB400
743C00
741E00
740B40
7407C0
7402E0
ENDCHAR
STARTCHAR L
ENCODING 76
SWIDTH 475 0
DWIDTH 10 0
BBX 8 14 1 0
BITMAP
7400
7400
7400
7400
7400
7400
7400
7400
7400
7400
7400
7400
7AA9
7FFF
ENDCHAR
STARTCHAR M
ENCODING 77
SWIDTH 755 0
DWIDTH 15 0
BBX 13 14 1 0
BITMAP
7C000F80
7D001F80
7E002F80
7F003F80
7B407B80
7780B780
76C0E380
75D1D780
74E2C780
74B28780
74774780
743F0780
742E0780
741D0780
ENDCHAR
STARTCHAR N
ENCODING 78
SWIDTH 619 0
DWIDTH 12 0
BBX 10 14 1 0
BITMAP
7800E0
7C00E0
7E00E0
7F40E0
7780E0
75D0E0
74E0E0
7474E0
7438E0
741DE0
740BE0
7407E0
7402E0
7401E0
ENDCHAR
STARTCHAR O
ENCODING 79
SWIDTH 600 0
DWIDTH 12 0
BBX 10 14 1 0
BITMAP
06F900
1FAF40
3C03C0
7401D0
B000E0
B000E0
B000E0
B000E0
B000E0
B000E0
7401D0
3C03C0
1FAF40
06F900
ENDCHAR
STARTCHAR P
ENCODING 80
SWIDTH 554 0
DWIDTH 11 0
BBX 10 14 1 0
BITMAP
7FF900
7AAF40
7403C0
7402D0
7402D0
7402D0
740780
7FFF40
7AA400
740000
740000
740000
740000
740000
ENDCHAR
STARTCHAR Q
ENCODING 81
SWIDTH 600 0
DWIDTH 12 0
BBX 10 16 1 -2
BITMAP
06F900
2FAF40
7803C0
B401D0
B001E0
F000E0
F000E0
F000E0
F000E0
B001E0
B401D0
7803C0
2FAF40
06FF40
0007D0
0001D0
ENDCHAR
STARTCHAR R
ENCODING 82
SWIDTH 530 0
DWIDTH 11 0
BBX 9 14 1 0
BITMAP
7FF800
7AAF00
740B40
740380
740380
740780
741F40
7FFD00
7AB800
742D00
741E00
740B00
740780
7403C0
ENDCHAR
STARTCHAR S
ENCODING 83
SWIDTH 518 0
DWIDTH 10 0
BBX 9 14 1 0
BITMAP
0BE400
3EBE00
B40B00
B00740
B40100
7D0000
1FE000
02FD00
001F00
500740
E00780
B40B40
7EAE00
0BF800
ENDCHAR
STARTCHAR T
ENCODING 84
SWIDTH 520 0
DWIDTH 10 0
BBX 10 14 0 0
BITMAP
7FFFF0
6AFA90
00B000
00B000
00B000
00B000
00B000
00B000
00B000
00B000
00B000
00B000
00B000
00B000
ENDCHAR
STARTCHAR U
ENCODING 85
SWIDTH 561 0
DWIDTH 11 0
BBX 9 14 1 0
BITMAP
B002C0
B002C0
B002C0
B002C0
B002C0
B002C0
B002C0
B002C0
B002C0
B002C0
B003C0
780780
3EAF40
0BF900
ENDCHAR
STARTCHAR V
ENCODING 86
SWIDTH 560 0
DWIDTH 11 0
BBX 11 14 0 0
BITMAP
780078
3800B4
2C00F0
1D00E0
1E01D0
0F02C0
0B4380
078740
038B00
02CE00
01ED00
00FD00
00BC00
007800
ENDCHAR
STARTCHAR W
ENCODING 87
SWIDTH 761 0
DWIDTH 15 0
BBX 15 14 0 0
BITMAP
78038078
38078074
2C0BC0B4
2C0AD0B0
1D0DD0E0
1D1DA0E0
0E2C71D0
0B2875D0
0B3436C0
07742A80
07B02F80
03E01F40
02E00F40
02D00F00
ENDCHAR
STARTCHAR X
ENCODING 88
SWIDTH 550 0
DWIDTH 11 0
BBX 9 14 1 0
BITMAP
F003C0
780B40
3C0F00
1E1D00
0B3C00
07B400
02F000
02F000
07B400
0F3C00
1D1E00
3C0F00
B80780
F003C0
ENDCHAR
STARTCHAR Y
ENCODING 89
SWIDTH 524 0
DWIDTH 10 0
BBX 10 14 0 0
BITMAP
7800F0
3C01D0
2D03C0
0E0780
0B4B00
078E00
02ED00
01F800
00B400
00B000
00B000
00B000
00B000
00B000
ENDCHAR
STARTCHAR Z
ENCODING 90
SWIDTH 522 0
DWIDTH 10 0
BBX 9 14 1 0
BITMAP
FFFF40
AAAF40
001E00
002C00
007800
00F000
02D000
038000
0B4000
1E0000
3C0000
740000
FAAA40
FFFF80
ENDCHAR
STARTCHAR bracketleft
ENCODING 91
SWIDTH 250 0
DWIDTH 5 0
BBX 4 19 1 -3
BITMAP
BE
B9
B0
B0
B0
B0
B0
B0
B0
B0
B0
B0
B0
B0
B0
B0
B0
B9
BE
ENDCHAR
STARTCHAR backslash
ENCODING 92
SWIDTH 369 0
DWIDTH 7 0
BBX 7 15 0 -1
BITMAP
7400
3800
2C00
1D00
0E00
0B00
0740
0380
02C0
01D0
00E0
00B0
0074
0038
002C
ENDCHAR
STARTCHAR bracketright
ENCODING 93
SWIDTH 250 0
DWIDTH 5 0
BBX 4 19 0 -3
BITMAP
BE
6E
1E
1E
1E
1E
1E
1E
1E
1E
1E
1E
1E
1E
1E
1E
1E
6E
BE
ENDCHAR
STARTCHAR asciicircum
ENCODING 94
SWIDTH 371 0
DWIDTH 7 0
BBX 6 7 1 7
BITMAP
0D00
1E00
2F00
3780
72C0
A1D0
D0E0
ENDCHAR
STARTCHAR underscore
ENCODING 95
SWIDTH 404 0
DWIDTH 8 0
BBX 8 2 0 -2
BITMAP
BFFF
5555
ENDCHAR
STARTCHAR grave
ENCODING 96
SWIDTH 309 0
DWIDTH 6 0
BBX 4 3 1 12
BITMAP
F0
78
1D
ENDCHAR
STARTCHAR a
ENCODING 97
SWIDTH 479 0
DWIDTH 10 0
BBX 8 11 1 0
BITMAP
1BE0
7EB8
B02C
002D
0BFD
7D6D
B02D
F02D
B02D
7AFD
2F9D
ENDCHAR
STARTCHAR b
ENCODING 98
SWIDTH 493 0
DWIDTH 10 0
BBX 8 15 1 0
BITMAP
B000
B000
B000
B000
B6F4
BEBD
B41E
B00F
B00B
B00B
B00B
B00F
B41E
BEBD
B6F4
ENDCHAR
STARTCHAR c
ENCODING 99
SWIDTH 461 0
DWIDTH 9 0
BBX 8 11 1 0
BITMAP
1BE0
7EB8
B01D
E00D
E000
E000
E000
E009
B01D
7EB8
1BE0
ENDCHAR
STARTCHAR d
ENCODING 100
SWIDTH 496 0
DWIDTH 10 0
BBX 8 15 1 0
BITMAP
001E
001E
001E
001E
1F9E
7EBE
B41E
E01E
E01E
E01E
E01E
E01E
B41E
7EBE
1F9E
ENDCHAR
STARTCHAR e
ENCODING 101
SWIDTH 468 0
DWIDTH 9 0
BBX 8 11 1 0
BITMAP
1BE0
3EBC
B01D
E01E
FFFE
F555
E000
F000
B404
7EAD
1BE4
ENDCHAR
STARTCHAR f
ENCODING 102
SWIDTH 316 0
DWIDTH 6 0
BBX 6 15 0 0
BITMAP
02F0
0BA0
0F00
0E00
7FE0
1F50
0E00
0E00
0E00
0E00
0E00
0E00
0E00
0E00
0E00
ENDCHAR
STARTCHAR g
ENCODING 103
SWIDTH 492 0
DWIDTH 10 0
BBX 8 15 1 -4
BITMAP
1F9E
7EBE
B41E
E00E
E00E
E00E
E00E
E00E
B41E
7EBE
1F9E
001E
102D
79BC
1BE0
ENDCHAR
STARTCHAR h
ENCODING 104
SWIDTH 482 0
DWIDTH 10 0
BBX 8 15 1 0
BITMAP
B000
B000
B000
B000
B6E4
BEBC
B42D
B01D
B01D
B01D
B01D
B01D
B01D
B01D
B01D
ENDCHAR
STARTCHAR i
ENCODING 105
SWIDTH 229 0
DWIDTH 5 0
BBX 2 15 1 0
BITMAP
70
70
00
00
B0
B0
B0
B0
B0
B0
B0
B0
B0
B0
B0
ENDCHAR
STARTCHAR j
ENCODING 106
SWIDTH 223 0
DWIDTH 4 0
BBX 4 19 -1 -4
BITMAP
0B
0B
00
00
0B
0B
0B
0B
0B
0B
0B
0B
0B
0B
0B
0B
0B
2E
7D
ENDCHAR
STARTCHAR k
ENCODING 107
SWIDTH 450 0
DWIDTH 9 0
BBX 8 15 1 0
BITMAP
B000
B000
B000
B000
B03C
B0B4
B1E0
B380
BB40
BF80
BBD0
B1E0
B0B4
B03C
B01E
ENDCHAR
STARTCHAR l
ENCODING 108
SWIDTH 229 0
DWIDTH 5 0
BBX 2 15 1 0
BITMAP
B0
B0
B0
B0
B0
B0
B0
B0
B0
B0
B0
B0
B0
B0
B0
ENDCHAR
STARTCHAR m
ENCODING 109
SWIDTH 752 0
DWIDTH 15 0
BBX 13 11 1 0
BITMAP
B6E4BD00
BEBFAF40
B42E0780
B01D0380
B01D0380
B01D0380
B01D0380
B01D0380
B01D0380
B01D0380
B01D0380
ENDCHAR
STARTCHAR n
ENCODING 110
SWIDTH 483 0
DWIDTH 10 0
BBX 8 11 1 0
BITMAP
B6E4
BEBC
B42D
B01D
B01D
B01D
B01D
B01D
B01D
B01D
B01D
ENDCHAR
STARTCHAR o
ENCODING 111
SWIDTH 501 0
DWIDTH 10 0
BBX 8 11 1 0
BITMAP
0BE0
3EBC
B41E
F00F
E00B
E00B
E00B
F00B
B41E
3EBC
0BE4
ENDCHAR
STARTCHAR p
ENCODING 112
SWIDTH 493 0
DWIDTH 10 0
BBX 8 15 1 -4
BITMAP
B7F4
BEBD
B41E
B00E
B00F
B00B
B00F
B00E
B41E
BEBD
B7E4
B000
B000
B000
B000
ENDCHAR
STARTCHAR q
ENCODING 113
SWIDTH 500 0
DWIDTH 10 0
BBX 8 15 1 -4
BITMAP
1F9E
7EBE
B41E
E01E
E01E
E01E
E01E
E01E
B41E
7EBE
1F9E
001E
001E
001E
001E
ENDCHAR
STARTCHAR r
ENCODING 114
SWIDTH 304 0
DWIDTH 6 0
BBX 5 11 1 0
BITMAP
B780
BE80
B400
B000
B000
B000
B000
B000
B000
B000
B000
ENDCHAR
STARTCHAR s
ENCODING 115
SWIDTH 455 0
DWIDTH 9 0
BBX 7 11 1 0
BITMAP
1BD0
7EB8
B03C
B404
7E00
1BE0
01B8
502C
F02C
7AB8
1BE0
ENDCHAR
STARTCHAR t
ENCODING 116
SWIDTH 295 0
DWIDTH 6 0
BBX 5 14 0 0
BITMAP
0E00
0E00
0E00
BFC0
5E40
0E00
0E00
0E00
0E00
0E00
0E00
0E00
0F80
07C0
ENDCHAR
STARTCHAR u
ENCODING 117
SWIDTH 483 0
DWIDTH 10 0
BBX 8 11 1 0
BITMAP
B01D
B01D
B01D
B01D
B01D
B01D
B01D
B01D
B42D
7EBD
1F9D
ENDCHAR
STARTCHAR v
ENCODING 118
SWIDTH 427 0
DWIDTH 9 0
BBX 8 11 0 0
BITMAP
740B
380E
281D
2C2C
1D28
0E34
0B74
07B0
03E0
02D0
02C0
ENDCHAR
STARTCHAR w
ENCODING 119
SWIDTH 649 0
DWIDTH 13 0
BBX 13 11 0 0
BITMAP
741D0740
382E0B00
383E0B00
2C3B0E00
1C774D00
1DB39D00
0EE2AC00
0BD1F800
0BC0F400
0780F400
0380B000
ENDCHAR
STARTCHAR x
ENCODING 120
SWIDTH 438 0
DWIDTH 9 0
BBX 8 11 0 0
BITMAP
380F
2D2D
0E38
0BB4
03E0
02D0
03E0
0B74
1E3C
2D1D
780F
ENDCHAR
STARTCHAR y
ENCODING 121
SWIDTH 416 0
DWIDTH 8 0
BBX 8 15 0 -4
BITMAP
B40E
781E
3C2D
2C2C
1D38
0E74
0B70
07E0
03E0
03D0
02C0
0280
0740
2F00
3900
ENDCHAR
STARTCHAR z
ENCODING 122
SWIDTH 438 0
DWIDTH 9 0
BBX 7 11 1 0
BITMAP
FFF8
AAB8
00B0
01D0
03C0
0B40
1E00
2C00
7800
F954
FFFC
ENDCHAR
STARTCHAR braceleft
ENCODING 123
SWIDTH 306 0
DWIDTH 6 0
BBX 6 20 0 -4
BITMAP
0090
02D0
0740
0740
0B00
0B00
0B00
0B00
1E00
7C00
2D00
0F00
0B00
0B00
0B00
0B00
0740
0780
02D0
0090
ENDCHAR
STARTCHAR bar
ENCODING 124
SWIDTH 243 0
DWIDTH 5 0
BBX 3 17 1 -3
BITMAP
74
74
74
74
74
74
74
74
74
74
74
74
74
74
74
74
74
ENDCHAR
STARTCHAR braceright
ENCODING 125
SWIDTH 306 0
DWIDTH 6 0
BBX 6 20 0 -4
BITMAP
6000
7800
1D00
0E00
0E00
0E00
0E00
0E00
0B40
02D0
0790
0B00
0E00
0E00
0E00
0E00
0E00
1D00
7800
6000
ENDCHAR
STARTCHAR asciitilde
ENCODING 126
SWIDTH 589 0
DWIDTH 12 0
BBX 10 4 1 4
BITMAP
0A0050
3FD0D0
B5FAC0
A02F40
ENDCHAR
STARTCHAR uni00A0
ENCODING 160
SWIDTH 229 0
DWIDTH 5 0
BBX 1 1 0 0
BITMAP
00
ENDCHAR
STARTCHAR exclamdown
ENCODING 161
SWIDTH 231 0
DWIDTH 5 0
BBX 3 15 1 -4
BITMAP
70
70
00
00
60
70
70
74
74
74
74
B4
B4
B4
B4
ENDCHAR
STARTCHAR cent
ENCODING 162
SWIDTH 479 0
DWIDTH 10 0
BBX 8 17 1 -3
BITMAP
0100
0380
0380
0BE0
3EBC
741D
B009
E000
E000
E000
B005
741D
3D7C
1BE0
0380
0380
0140
ENDCHAR
STARTCHAR sterling
ENCODING 163
SWIDTH 510 0
DWIDTH 10 0
BBX 9 14 1 0
BITMAP
06F800
0FAE00
2D0B00
2C0640
3C0000
3C0000
3C0000
FFE000
BE9000
2C0000
2C0000
3C0000
BEAA40
FFFF80
ENDCHAR
STARTCHAR currency
ENCODING 164
SWIDTH 712 0
DWIDTH 14 0
BBX 12 12 1 0
BITMAP
75BE4A
7FEBFE
2E007C
38002D
74000E
B0000B
B0000B
74000E
38002D
2E007D
BFEBFF
61BF46
ENDCHAR
STARTCHAR yen
ENCODING 165
SWIDTH 463 0
DWIDTH 9 0
BBX 9 14 0 0
BITMAP
780780
3C0B40
2D0F00
1E1D00
0B2C00
07B800
03F400
2FFF00
15E500
01E000
2FFF00
15E500
01E000
01E000
ENDCHAR
STARTCHAR brokenbar
ENCODING 166
SWIDTH 239 0
DWIDTH 5 0
BBX 3 17 1 -3
BITMAP
B4
B4
B4
B4
B4
B4
B4
00
00
B4
B4
B4
B4
B4
B4
B4
B4
ENDCHAR
STARTCHAR section
ENCODING 167
SWIDTH 537 0
DWIDTH 11 0
BBX 9 19 1 -5
BITMAP
0BF800
3EAE00
B40B40
B00740
B40000
7E0000
3FE400
B5BE00
E01B40
E00780
B40380
3F9B40
0BFE00
006E00
000B40
E00740
B40B00
7EAE00
1BE400
ENDCHAR
STARTCHAR dieresis
ENCODING 168
SWIDTH 417 0
DWIDTH 8 0
BBX 7 2 1 12
BITMAP
F0B4
B0B0
ENDCHAR
STARTCHAR copyright
ENCODING 169
SWIDTH 785 0
DWIDTH 16 0
BBX 14 14 1 0
BITMAP
00AF9000
07957D00
1D000B00
746F8280
A0E5E0D0
D2C060A0
C2800060
C2800060
D2C060A0
A0E5E0D0
746F8280
1D000B00
07956D00
00AF9000
ENDCHAR
STARTCHAR ordfeminine
ENCODING 170
SWIDTH 395 0
DWIDTH 8 0
BBX 6 7 1 7
BITMAP
2F80
7AD0
10D0
2FD0
B4D0
B6D0
2EE0
ENDCHAR
STARTCHAR guillemotleft
ENCODING 171
SWIDTH 417 0
DWIDTH 8 0
BBX 7 8 1 1
BITMAP
0D74
2CA0
75C0
B380
A380
75C0
2CA0
0D74
ENDCHAR
STARTCHAR logicalnot
ENCODING 172
SWIDTH 487 0
DWIDTH 10 0
BBX 7 4 1 4
BITMAP
BFFC
6ABC
002C
002C
ENDCHAR
STARTCHAR uni00AD
ENCODING 173
SWIDTH 248 0
DWIDTH 5 0
BBX 5 2 0 5
BITMAP
BF80
5540
ENDCHAR
STARTCHAR registered
ENCODING 174
SWIDTH 786 0
DWIDTH 16 0
BBX 14 14 1 0
BITMAP
00AF9000
07957D00
1D000B00
74FF8280
A0E5A0D0
D0D0A0A0
C0FFC060
C0E5D060
D0D0A0A0
A0D0A0D0
74D0B280
1D000B00
07957D00
00AF9000
ENDCHAR
STARTCHAR macron
ENCODING 175
SWIDTH 414 0
DWIDTH 8 0
BBX 6 2 1 12
BITMAP
BFF0
5550
ENDCHAR
STARTCHAR degree
ENCODING 176
SWIDTH 373 0
DWIDTH 7 0
BBX 6 6 1 8
BITMAP
2E40
76C0
A0D0
A1C0
2F40
0400
ENDCHAR
STARTCHAR plusminus
ENCODING 177
SWIDTH 469 0
DWIDTH 9 0
BBX 8 12 1 0
BITMAP
0380
0380
0380
0380
FFFE
5795
0380
0380
0380
0140
5554
BFFD
ENDCHAR
STARTCHAR uni00B2
ENCODING 178
SWIDTH 329 0
DWIDTH 7 0
BBX 5 8 1 6
BITMAP
7E00
E740
8380
0740
0E00
3800
B540
FFC0
ENDCHAR
STARTCHAR uni00B3
ENCODING 179
SWIDTH 329 0
DWIDTH 7 0
BBX 5 8 1 6
BITMAP
7E00
E780
0340
2F00
0740
4280
E740
7E00
ENDCHAR
STARTCHAR acute
ENCODING 180
SWIDTH 313 0
DWIDTH 6 0
BBX 4 3 1 12
BITMAP
1E
3C
70
ENDCHAR
STARTCHAR mu
ENCODING 181
SWIDTH 498 0
DWIDTH 10 0
BBX 8 15 1 -4
BITMAP
B01E
B01E
B01E
B01E
B01E
B01E
B41E
B41E
B41E
BEBE
BBDE
B000
B000
B000
B000
ENDCHAR
STARTCHAR paragraph
ENCODING 182
SWIDTH 434 0
DWIDTH 9 0
BBX 7 15 0 0
BITMAP
0054
0BFC
2FFC
3FFC
7FFC
7FFC
7FFC
3FFC
1FFC
06FC
002C
002C
002C
002C
002C
ENDCHAR
STARTCHAR periodcentered
ENCODING 183
SWIDTH 243 0
DWIDTH 5 0
BBX 3 2 1 6
BITMAP
74
B4
ENDCHAR
STARTCHAR cedilla
ENCODING 184
SWIDTH 229 0
DWIDTH 5 0
BBX 3 4 1 -4
BITMAP
A0
64
28
A4
ENDCHAR
STARTCHAR uni00B9
ENCODING 185
SWIDTH 329 0
DWIDTH 7 0
BBX 4 8 1 6
BITMAP
19
BD
0D
0D
0D
0D
0D
0D
ENDCHAR
STARTCHAR ordmasculine
ENCODING 186
SWIDTH 402 0
DWIDTH 8 0
BBX 6 7 1 7
BITMAP
2F80
7AD0
A0A0
E0B0
A0A0
7AD0
2F80
ENDCHAR
STARTCHAR guillemotright
ENCODING 187
SWIDTH 417 0
DWIDTH 8 0
BBX 7 8 1 1
BITMAP
A280
75C0
28A0
1D74
1D74
28A0
75D0
A280
ENDCHAR
STARTCHAR onequarter
ENCODING 188
SWIDTH 637 0
DWIDTH 13 0
BBX 12 14 0 0
BITMAP
1B0000
7F0050
0700D0
070180
070340
070A00
070D2C
07287C
0034AC
00A1DC
00D35C
0287FF
02415D
00001C
ENDCHAR
STARTCHAR onehalf
ENCODING 189
SWIDTH 677 0
DWIDTH 14 0
BBX 13 14 0 0
BITMAP
1B000000
7F008000
0701C000
07034000
07070000
070D0000
071CBD00
0735DB00
00718740
00D00B00
01801D00
03407400
0201E500
0002FF40
ENDCHAR
STARTCHAR threequarters
ENCODING 190
SWIDTH 673 0
DWIDTH 13 0
BBX 12 14 1 0
BITMAP
6F4000
A6C050
02C0D0
1F4180
02C340
51CA00
B6CD38
2E68B8
0034E8
00A2A8
00D728
028BFE
02456D
000028
ENDCHAR
STARTCHAR questiondown
ENCODING 191
SWIDTH 421 0
DWIDTH 8 0
BBX 8 15 0 -4
BITMAP
02C0
02C0
0000
0000
0280
02C0
0780
0F00
2D00
3800
7800
741E
382D
2EB8
0BE0
ENDCHAR
STARTCHAR Agrave
ENCODING 192
SWIDTH 576 0
DWIDTH 12 0
BBX 11 18 0 0
BITMAP
02D000
00F000
007400
000000
003800
007C00
00BD00
00DE00
01CB00
02C740
038380
0742C0
0B01D0
0FFFE0
1EAAF0
2C00B4
380078
74003C
ENDCHAR
STARTCHAR Aacute
ENCODING 193
SWIDTH 576 0
DWIDTH 12 0
BBX 11 18 0 0
BITMAP
000B40
001E00
002800
000000
003800
007C00
00BD00
00DE00
01CB00
02C740
038380
0742C0
0B01D0
0FFFE0
1EAAF0
2C00B4
380078
74003C
ENDCHAR
STARTCHAR Acircumflex
ENCODING 194
SWIDTH 576 0
DWIDTH 12 0
BBX 11 18 0 0
BITMAP
007800
00EE00
018600
000000
003800
007C00
00BD00
00DE00
01CB00
02C740
038380
0742C0
0B01D0
0FFFE0
1EAAF0
2C00B4
380078
74003C
ENDCHAR
STARTCHAR Atilde
ENCODING 195
SWIDTH 576 0
DWIDTH 12 0
BBX 11 18 0 0
BITMAP
004140
02F680
035E00
000000
003800
007C00
00BD00
00DE00
01CB00
02C740
038380
0742C0
0B01D0
0FFFE0
1EAAF0
2C00B4
380078
74003C
ENDCHAR
STARTCHAR Adieresis
ENCODING 196
SWIDTH 576 0
DWIDTH 12 0
BBX 11 17 0 0
BITMAP
078380
078380
000000
003800
007C00
00BD00
00DE00
01CB00
02C740
038380
0742C0
0B01D0
0FFFE0
1EAAF0
2C00B4
380078
74003C
ENDCHAR
STARTCHAR Aring
ENCODING 197
SWIDTH 576 0
DWIDTH 12 0
BBX 11 19 0 0
BITMAP
00B900
018600
018600
00B900
000000
003800
007C00
00BD00
00DE00
01CB00
02C740
038380
0742C0
0B01D0
0FFFE0
1EAAF0
2C00B4
380078
74003C
ENDCHAR
STARTCHAR AE
ENCODING 198
SWIDTH 812 0
DWIDTH 16 0
BBX 16 14 0 0
BITMAP
0003FFFD
000BE554
000EE000
002DE000
0038E000
00B4E000
00E0FFF8
02D0F554
0780F000
0BFFF000
1FAAF000
2D00B000
7800B555
B400BFFE
ENDCHAR
STARTCHAR Ccedilla
ENCODING 199
SWIDTH 566 0
DWIDTH 11 0
BBX 10 18 1 -4
BITMAP
06F900
1FAF40
3C03C0
7402D0
B00190
B00000
B00000
B00000
B00000
B00190
7402D0
3803C0
1FAF40
06F900
00D000
007400
003400
00E000
ENDCHAR
STARTCHAR Egrave
ENCODING 200
SWIDTH 496 0
DWIDTH 10 0
BBX 9 18 1 0
BITMAP
1E0000
078000
028000
000000
7FFF00
7AAA00
740000
740000
740000
740000
7FFD00
7AA900
740000
740000
740000
740000
7AAA00
7FFF40
ENDCHAR
STARTCHAR Eacute
ENCODING 201
SWIDTH 496 0
DWIDTH 10 0
BBX 9 18 1 0
BITMAP
007C00
00F000
01D000
000000
7FFF00
7AAA00
740000
740000
740000
740000
7FFD00
7AA900
740000
740000
740000
740000
7AAA00
7FFF40
ENDCHAR
STARTCHAR Ecircumflex
ENCODING 202
SWIDTH 496 0
DWIDTH 10 0
BBX 9 18 1 0
BITMAP
02D000
0BB000
092400
000000
7FFF00
7AAA00
740000
740000
740000
740000
7FFD00
7AA900
740000
740000
740000
740000
7AAA00
7FFF40
ENDCHAR
STARTCHAR Edieresis
ENCODING 203
SWIDTH 496 0
DWIDTH 10 0
BBX 9 17 1 0
BITMAP
2C1D00
2C1D00
000000
7FFF00
7AAA00
740000
740000
740000
740000
7FFD00
7AA900
740000
740000
740000
740000
7AAA00
7FFF40
ENDCHAR
STARTCHAR Igrave
ENCODING 204
SWIDTH 250 0
DWIDTH 5 0
BBX 5 18 -1 0
BITMAP
7C00
1E00
0740
0000
0740
0740
0740
0740
0740
0740
0740
0740
0740
0740
0740
0740
0740
0740
ENDCHAR
STARTCHAR Iacute
ENCODING 205
SWIDTH 250 0
DWIDTH 5 0
BBX 5 18 1 0
BITMAP
0F40
2D00
7400
0000
7400
7400
7400
7400
7400
7400
7400
7400
7400
7400
7400
7400
7400
7400
ENDCHAR
STARTCHAR Icircumflex
ENCODING 206
SWIDTH 250 0
DWIDTH 5 0
BBX 5 18 0 0
BITMAP
1D00
7B40
A280
0000
1D00
1D00
1D00
1D00
1D00
1D00
1D00
1D00
1D00
1D00
1D00
1D00
1D00
1D00
ENDCHAR
STARTCHAR Idieresis
ENCODING 207
SWIDTH 250 0
DWIDTH 5 0
BBX 7 17 -1 0
BITMAP
7478
7474
0000
0740
0740
0740
0740
0740
0740
0740
0740
0740
0740
0740
0740
0740
0740
ENDCHAR
STARTCHAR Eth
ENCODING 208
SWIDTH 585 0
DWIDTH 12 0
BBX 11 14 0 0
BITMAP
1FFE00
1EABC0
1E01E0
1E00B0
1E0074
1E0074
BFD074
6E5074
1E0074
1E0074
1E00B0
1E01E0
1EABC0
1FFE00
ENDCHAR
STARTCHAR Ntilde
ENCODING 209
SWIDTH 619 0
DWIDTH 12 0
BBX 10 18 1 0
BITMAP
014200
07EB00
0A2D00
000000
7800E0
7C00E0
7E00E0
7F40E0
7780E0
75D0E0
74E0E0
7474E0
7438E0
741DE0
740BE0
7407E0
7402E0
7401E0
ENDCHAR
STARTCHAR Ograve
ENCODING 210
SWIDTH 600 0
DWIDTH 12 0
BBX 10 18 1 0
BITMAP
0B8000
02D000
00A000
000000
06F900
1FAF40
3C03C0
7401D0
B000E0
B000E0
B000E0
B000E0
B000E0
B000E0
7401D0
3C03C0
1FAF40
06F900
ENDCHAR
STARTCHAR Oacute
ENCODING 211
SWIDTH 600 0
DWIDTH 12 0
BBX 10 18 1 0
BITMAP
001E00
007800
00A000
000000
06F900
1FAF40
3C03C0
7401D0
B000E0
B000E0
B000E0
B000E0
B000E0
B000E0
7401D0
3C03C0
1FAF40
06F900
ENDCHAR
STARTCHAR Ocircumflex
ENCODING 212
SWIDTH 600 0
DWIDTH 12 0
BBX 10 18 1 0
BITMAP
00F000
02A800
074D00
000000
06F900
1FAF40
3C03C0
7401D0
B000E0
B000E0
B000E0
B000E0
B000E0
B000E0
7401D0
3C03C0
1FAF40
06F900
ENDCHAR
STARTCHAR Otilde
ENCODING 213
SWIDTH 600 0
DWIDTH 12 0
BBX 10 18 1 0
BITMAP
014100
07EA00
096D00
000000
06F900
1FAF40
3C03C0
7401D0
B000E0
B000E0
B000E0
B000E0
B000E0
B000E0
7401D0
3C03C0
1FAF40
06F900
ENDCHAR
STARTCHAR Odieresis
ENCODING 214
SWIDTH 600 0
DWIDTH 12 0
BBX 10 17 1 0
BITMAP
0F0B00
0E0B00
000000
06F900
1FAF40
3C03C0
7401D0
B000E0
B000E0
B000E0
B000E0
B000E0
B000E0
7401D0
3C03C0
1FAF40
06F900
ENDCHAR
STARTCHAR multiply
ENCODING 215
SWIDTH 470 0
DWIDTH 9 0
BBX 7 9 1 2
BITMAP
5008
B43C
3CB4
1FE0
0BC0
1FD0
3CB4
B43C
5018
ENDCHAR
STARTCHAR Oslash
ENCODING 216
SWIDTH 600 0
DWIDTH 12 0
BBX 10 16 1 -1
BITMAP
000010
06F9A0
1FAFC0
3D03C0
7807D0
B40EE0
B018E0
F034F0
F0A0F0
B0D0E0
B280E0
7B01D0
3E03C0
1FAF40
2AF900
600000
ENDCHAR
STARTCHAR Ugrave
ENCODING 217
SWIDTH 561 0
DWIDTH 11 0
BBX 9 18 1 0
BITMAP
0F4000
07C000
01D000
000000
B002C0
B002C0
B002C0
B002C0
B002C0
B002C0
B002C0
B002C0
B002C0
B002C0
B003C0
780780
3EAF40
0BF900
ENDCHAR
STARTCHAR Uacute
ENCODING 218
SWIDTH 561 0
DWIDTH 11 0
BBX 9 18 1 0
BITMAP
002D00
00B400
00A000
000000
B002C0
B002C0
B002C0
B002C0
B002C0
B002C0
B002C0
B002C0
B002C0
B002C0
B003C0
780780
3EAF40
0BF900
ENDCHAR
STARTCHAR Ucircumflex
ENCODING 219
SWIDTH 561 0
DWIDTH 11 0
BBX 9 18 1 0
BITMAP
01E000
07B400
0A2800
000000
B002C0
B002C0
B002C0
B002C0
B002C0
B002C0
B002C0
B002C0
B002C0
B002C0
B003C0
780780
3EAF40
0BF900
ENDCHAR
STARTCHAR Udieresis
ENCODING 220
SWIDTH 561 0
DWIDTH 11 0
BBX 9 17 1 0
BITMAP
1D1E00
1D1E00
000000
B002C0
B002C0
B002C0
B002C0
B002C0
B002C0
B002C0
B002C0
B002C0
B002C0
B003C0
780780
3EAF40
0BF900
ENDCHAR
STARTCHAR Yacute
ENCODING 221
SWIDTH 524 0
DWIDTH 10 0
BBX 10 18 0 0
BITMAP
001F00
003C00
007400
000000
7800F0
3C01D0
2D03C0
0E0780
0B4B00
078E00
02ED00
01F800
00B400
00B000
00B000
00B000
00B000
00B000
ENDCHAR
STARTCHAR Thorn
ENCODING 222
SWIDTH 515 0
DWIDTH 10 0
BBX 9 14 1 0
BITMAP
B40000
B40000
B40000
BFF400
B9AE00
B40B00
B40740
B40740
B40B40
B41F00
BFFD00
B95000
B40000
B40000
ENDCHAR
STARTCHAR germandbls
ENCODING 223
SWIDTH 521 0
DWIDTH 10 0
BBX 9 15 1 0
BITMAP
1BD000
3EB400
743800
B03800
B03800
B0B400
B0F000
B0F000
B0B800
B02E00
B00B40
B00780
B00740
B2AF40
B2F900
ENDCHAR
STARTCHAR agrave
ENCODING 224
SWIDTH 479 0
DWIDTH 10 0
BBX 8 15 1 0
BITMAP
2D00
0B40
0280
0000
1BE0
7EB8
B02C
002D
0BFD
7D6D
B02D
F02D
B02D
7AFD
2F9D
ENDCHAR
STARTCHAR aacute
ENCODING 225
SWIDTH 479 0
DWIDTH 10 0
BBX 8 15 1 0
BITMAP
00B8
01E0
0280
0000
1BE0
7EB8
B02C
002D
0BFD
7D6D
B02D
F02D
B02D
7AFD
2F9D
ENDCHAR
STARTCHAR acircumflex
ENCODING 226
SWIDTH 479 0
DWIDTH 10 0
BBX 8 16 1 0
BITMAP
03C0
0AA0
1C74
0000
0000
1BE0
7EB8
B02C
002D
0BFD
7D6D
B02D
F02D
B02D
7AFD
2F9D
ENDCHAR
STARTCHAR atilde
ENCODING 227
SWIDTH 479 0
DWIDTH 10 0
BBX 8 16 1 0
BITMAP
0404
2FA8
35B4
0000
0000
1BE0
7EB8
B02C
002D
0BFD
7D6D
B02D
F02D
B02D
7AFD
2F9D
ENDCHAR
STARTCHAR adieresis
ENCODING 228
SWIDTH 479 0
DWIDTH 10 0
BBX 8 15 1 0
BITMAP
382C
382C
0000
0000
1BE0
7EB8
B02C
002D
0BFD
7D6D
B02D
F02D
B02D
7AFD
2F9D
ENDCHAR
STARTCHAR aring
ENCODING 229
SWIDTH 479 0
DWIDTH 10 0
BBX 8 16 1 0
BITMAP
07D0
0C30
0C30
07D0
0000
1BE0
7EB8
B02C
002D
0BFD
7D6D
B02D
F02D
B02D
7AFD
2F9D
ENDCHAR
STARTCHAR ae
ENCODING 230
SWIDTH 728 0
DWIDTH 15 0
BBX 13 11 1 0
BITMAP
1FD2F900
BABBAF00
A03E0780
002C0380
1BFFFF80
B97D5540
E02C0000
E02D0000
E03E0000
BAFBAB80
2F81FE00
ENDCHAR
STARTCHAR ccedilla
ENCODING 231
SWIDTH 461 0
DWIDTH 9 0
BBX 8 15 1 -4
BITMAP
1BE0
7EB8
B01D
E00D
E000
E000
E000
E009
B01D
7EB8
1BE0
0300
01C0
01D0
0780
ENDCHAR
STARTCHAR egrave
ENCODING 232
SWIDTH 468 0
DWIDTH 9 0
BBX 8 15 1 0
BITMAP
2D00
0F00
0340
0000
1BE0
3EBC
B01D
E01E
FFFE
F555
E000
F000
B404
7EAD
1BE4
ENDCHAR
STARTCHAR eacute
ENCODING 233
SWIDTH 468 0
DWIDTH 9 0
BBX 8 15 1 0
BITMAP
00B4
01E0
0280
0000
1BE0
3EBC
B01D
E01E
FFFE
F555
E000
F000
B404
7EAD
1BE4
ENDCHAR
STARTCHAR ecircumflex
ENCODING 234
SWIDTH 468 0
DWIDTH 9 0
BBX 8 16 1 0
BITMAP
0780
0EE0
1C60
0000
0000
1BE0
3EBC
B01D
E01E
FFFE
F555
E000
F000
B404
7EAD
1BE4
ENDCHAR
STARTCHAR edieresis
ENCODING 235
SWIDTH 468 0
DWIDTH 9 0
BBX 8 15 1 0
BITMAP
7838
3838
0000
0000
1BE0
3EBC
B01D
E01E
FFFE
F555
E000
F000
B404
7EAD
1BE4
ENDCHAR
STARTCHAR igrave
ENCODING 236
SWIDTH 234 0
DWIDTH 5 0
BBX 4 15 -1 0
BITMAP
78
1E
0A
00
0B
0B
0B
0B
0B
0B
0B
0B
0B
0B
0B
ENDCHAR
STARTCHAR iacute
ENCODING 237
SWIDTH 234 0
DWIDTH 5 0
BBX 4 15 1 0
BITMAP
1F
3D
74
00
B0
B0
B0
B0
B0
B0
B0
B0
B0
B0
B0
ENDCHAR
STARTCHAR icircumflex
ENCODING 238
SWIDTH 234 0
DWIDTH 5 0
BBX 5 16 0 0
BITMAP
2D00
7B40
9280
0000
0000
2C00
2C00
2C00
2C00
2C00
2C00
2C00
2C00
2C00
2C00
2C00
ENDCHAR
STARTCHAR idieresis
ENCODING 239
SWIDTH 234 0
DWIDTH 5 0
BBX 7 15 -1 0
BITMAP
B474
B474
0000
0000
0B00
0B00
0B00
0B00
0B00
0B00
0B00
0B00
0B00
0B00
0B00
ENDCHAR
STARTCHAR eth
ENCODING 240
SWIDTH 513 0
DWIDTH 10 0
BBX 8 15 1 0
BITMAP
1900
2FAC
02F4
07F8
092C
001D
0BEE
3EAF
740F
B00B
B00B
B00E
741D
3EBC
0BE0
ENDCHAR
STARTCHAR ntilde
ENCODING 241
SWIDTH 483 0
DWIDTH 10 0
BBX 8 16 1 0
BITMAP
0414
2FA8
35F0
0000
0000
B6E4
BEBC
B42D
B01D
B01D
B01D
B01D
B01D
B01D
B01D
B01D
ENDCHAR
STARTCHAR ograve
ENCODING 242
SWIDTH 501 0
DWIDTH 10 0
BBX 8 15 1 0
BITMAP
2D00
0B40
0380
0000
0BE0
3EBC
B41E
F00F
E00B
E00B
E00B
F00B
B41E
3EBC
0BE4
ENDCHAR
STARTCHAR oacute
ENCODING 243
SWIDTH 501 0
DWIDTH 10 0
BBX 8 15 1 0
BITMAP
00B8
01E0
0280
0000
0BE0
3EBC
B41E
F00F
E00B
E00B
E00B
F00B
B41E
3EBC
0BE4
ENDCHAR
STARTCHAR ocircumflex
ENCODING 244
SWIDTH 501 0
DWIDTH 10 0
BBX 8 16 1 0
BITMAP
0380
0AE0
1C74
0000
0000
0BE0
3EBC
B41E
F00F
E00B
E00B
E00B
F00B
B41E
3EBC
0BE4
ENDCHAR
STARTCHAR otilde
ENCODING 245
SWIDTH 501 0
DWIDTH 10 0
BBX 8 16 1 0
BITMAP
0414
2FA8
35F4
0000
0000
0BE0
3EBC
B41E
F00F
E00B
E00B
E00B
F00B
B41E
3EBC
0BE4
ENDCHAR
STARTCHAR odieresis
ENCODING 246
SWIDTH 501 0
DWIDTH 10 0
BBX 8 15 1 0
BITMAP
382C
382C
0000
0000
0BE0
3EBC
B41E
F00F
E00B
E00B
E00B
F00B
B41E
3EBC
0BE4
ENDCHAR
STARTCHAR divide
ENCODING 247
SWIDTH 500 0
DWIDTH 10 0
BBX 9 10 0 2
BITMAP
00E000
00E000
000000
000000
7FFFC0
6AAA80
000000
000000
00F000
00A000
ENDCHAR
STARTCHAR oslash
ENCODING 248
SWIDTH 498 0
DWIDTH 10 0
BBX 8 13 1 -1
BITMAP
000C
0BE8
3EBC
747E
B09F
E0CB
E18B
E34B
B60F
7D1E
3EBC
2FE0
3000
ENDCHAR
STARTCHAR ugrave
ENCODING 249
SWIDTH 483 0
DWIDTH 10 0
BBX 8 15 1 0
BITMAP
2D00
0F00
0340
0000
B01D
B01D
B01D
B01D
B01D
B01D
B01D
B01D
B42D
7EBD
1F9D
ENDCHAR
STARTCHAR uacute
ENCODING 250
SWIDTH 483 0
DWIDTH 10 0
BBX 8 15 1 0
BITMAP
00B4
01E0
0280
0000
B01D
B01D
B01D
B01D
B01D
B01D
B01D
B01D
B42D
7EBD
1F9D
ENDCHAR
STARTCHAR ucircumflex
ENCODING 251
SWIDTH 483 0
DWIDTH 10 0
BBX 8 16 1 0
BITMAP
0780
0EE0
1C60
0000
0000
B01D
B01D
B01D
B01D
B01D
B01D
B01D
B01D
B42D
7EBD
1F9D
ENDCHAR
STARTCHAR udieresis
ENCODING 252
SWIDTH 483 0
DWIDTH 10 0
BBX 8 15 1 0
BITMAP
7838
3838
0000
0000
B01D
B01D
B01D
B01D
B01D
B01D
B01D
B01D
B42D
7EBD
1F9D
ENDCHAR
STARTCHAR yacute
ENCODING 253
SWIDTH 416 0
DWIDTH 8 0
BBX 8 19 0 -4
BITMAP
007C
00F4
01D0
0000
B40E
781E
3C2D
2C2C
1D38
0E74
0B70
07E0
03E0
03D0
02C0
0280
0740
2F00
3900
ENDCHAR
STARTCHAR thorn
ENCODING 254
SWIDTH 508 0
DWIDTH 10 0
BBX 8 19 1 -4
BITMAP
B000
B000
B000
B000
B6E4
BEBC
B41E
B00E
B00B
B00B
B00B
B00E
B41D
BEBC
B6E4
B000
B000
B000
B000
ENDCHAR
STARTCHAR ydieresis
ENCODING 255
SWIDTH 416 0
DWIDTH 8 0
BBX 8 19 0 -4
BITMAP
2D1D
2D1D
0000
0000
B40E
781E
3C2D
2C2C
1D38
0E74
0B70
07E0
03E0
03D0
02C0
0280
0740
2F00
3900
ENDCHAR
STARTCHAR Amacron
ENCODING 256
SWIDTH 576 0
DWIDTH 12 0
BBX 11 18 0 0
BITMAP
015540
03FF80
000000
000000
003800
007C00
00BD00
00DE00
01CB00
02C740
038380
0742C0
0B01D0
0FFFE0
1EAAF0
2C00B4
380078
74003C
ENDCHAR
STARTCHAR amacron
ENCODING 257
SWIDTH 479 0
DWIDTH 10 0
BBX 8 15 1 0
BITMAP
1554
2FFC
0000
0000
1BE0
7EB8
B02C
002D
0BFD
7D6D
B02D
F02D
B02D
7AFD
2F9D
ENDCHAR
STARTCHAR Abreve
ENCODING 258
SWIDTH 576 0
DWIDTH 12 0
BBX 11 18 0 0
BITMAP
039780
01BE00
000000
000000
003800
007C00
00BD00
00DE00
01CB00
02C740
038380
0742C0
0B01D0
0FFFE0
1EAAF0
2C00B4
380078
74003C
ENDCHAR
STARTCHAR abreve
ENCODING 259
SWIDTH 479 0
DWIDTH 10 0
BBX 8 15 1 0
BITMAP
2978
0BE0
0000
0000
1BE0
7EB8
B02C
002D
0BFD
7D6D
B02D
F02D
B02D
7AFD
2F9D
ENDCHAR
STARTCHAR Aogonek
ENCODING 260
SWIDTH 576 0
DWIDTH 12 0
BBX 11 18 0 -4
BITMAP
003800
007C00
00BD00
00DE00
01CB00
02C740
038380
0742C0
0B01D0
0FFFE0
1EAAF0
2C00B4
380078
74003C
000074
0000E0
0000E4
0000B8
ENDCHAR
STARTCHAR aogonek
ENCODING 261
SWIDTH 479 0
DWIDTH 10 0
BBX 8 15 1 -4
BITMAP
1BE0
7EB8
B02C
002D
0BFD
7D6D
B02D
F02D
B02D
7AFD
2F9D
0028
0070
00B4
007D
ENDCHAR
STARTCHAR Cacute
ENCODING 262
SWIDTH 566 0
DWIDTH 11 0
BBX 10 18 1 0
BITMAP
002D00
007800
00A000
000000
06F900
1FAF40
3C03C0
7402D0
B00190
B00000
B00000
B00000
B00000
B00190
7402D0
3803C0
1FAF40
06F900
ENDCHAR
STARTCHAR cacute
ENCODING 263
SWIDTH 461 0
DWIDTH 9 0
BBX 8 15 1 0
BITMAP
00F4
02D0
0740
0000
1BE0
7EB8
B01D
E00D
E000
E000
E000
E009
B01D
7EB8
1BE0
ENDCHAR
STARTCHAR Ccircumflex
ENCODING 264
SWIDTH 566 0
DWIDTH 11 0
BBX 10 18 1 0
BITMAP
01E000
03B800
061800
000000
06F900
1FAF40
3C03C0
7402D0
B00190
B00000
B00000
B00000
B00000
B00190
7402D0
3803C0
1FAF40
06F900
ENDCHAR
STARTCHAR ccircumflex
ENCODING 265
SWIDTH 461 0
DWIDTH 9 0
BBX 8 16 1 0
BITMAP
0740
1ED0
28A0
0000
0000
1BE0
7EB8
B01D
E00D
E000
E000
E000
E009
B01D
7EB8
1BE0
ENDCHAR
STARTCHAR Cdotaccent
ENCODING 266
SWIDTH 566 0
DWIDTH 11 0
BBX 10 17 1 0
BITMAP
00E000
00E000
000000
06F900
1FAF40
3C03C0
7402D0
B00190
B00000
B00000
B00000
B00000
B00190
7402D0
3803C0
1FAF40
06F900
ENDCHAR
STARTCHAR cdotaccent
ENCODING 267
SWIDTH 461 0
DWIDTH 9 0
BBX 8 15 1 0
BITMAP
0740
0740
0000
0000
1BE0
7EB8
B01D
E00D
E000
E000
E000
E009
B01D
7EB8
1BE0
ENDCHAR
STARTCHAR Ccaron
ENCODING 268
SWIDTH 566 0
DWIDTH 11 0
BBX 10 18 1 0
BITMAP
0B1C00
02B400
00E000
000000
06F900
1FAF40
3C03C0
7402D0
B00190
B00000
B00000
B00000
B00000
B00190
7402D0
3803C0
1FAF40
06F900
ENDCHAR
STARTCHAR ccaron
ENCODING 269
SWIDTH 461 0
DWIDTH 9 0
BBX 8 16 1 0
BITMAP
28B0
0ED0
0740
0000
0000
1BE0
7EB8
B01D
E00D
E000
E000
E000
E009
B01D
7EB8
1BE0
ENDCHAR
STARTCHAR Dcaron
ENCODING 270
SWIDTH 570 0
DWIDTH 11 0
BBX 10 18 1 0
BITMAP
0D3800
07A000
02C000
000000
7FE400
7ABE00
740B40
7403C0
7402C0
7402C0
7402D0
7402D0
7402C0
7402C0
7403C0
740B40
7ABE00
7FE400
ENDCHAR
STARTCHAR dcaron
ENCODING 271
SWIDTH 569 0
DWIDTH 11 0
BBX 11 15 1 0
BITMAP
001E74
001E74
001EB0
001E90
1F9E00
7EBE00
B41E00
E01E00
E01E00
E01E00
E01E00
E01E00
B41E00
7EBE00
1F9E00
ENDCHAR
STARTCHAR Dcroat
ENCODING 272
SWIDTH 585 0
DWIDTH 12 0
BBX 11 14 0 0
BITMAP
1FFE00
1EABC0
1E01E0
1E00B0
1E0074
1E0074
BFD074
6E5074
1E0074
1E0074
1E00B0
1E01E0
1EABC0
1FFE00
ENDCHAR
STARTCHAR dcroat
ENCODING 273
SWIDTH 529 0
DWIDTH 11 0
BBX 9 15 1 0
BITMAP
001E00
01FFC0
006E40
001E00
1B9E00
3EBE00
B41E00
F01E00
E01E00
E01E00
E01E00
F01E00
B41E00
3EBE00
1B9E00
ENDCHAR
STARTCHAR Emacron
ENCODING 274
SWIDTH 496 0
DWIDTH 10 0
BBX 9 18 1 0
BITMAP
155400
2FFC00
000000
000000
7FFF00
7AAA00
740000
740000
740000
740000
7FFD00
7AA900
740000
740000
740000
740000
7AAA00
7FFF40
ENDCHAR
STARTCHAR emacron
ENCODING 275
SWIDTH 468 0
DWIDTH 9 0
BBX 8 15 1 0
BITMAP
1554
3FF8
0000
0000
1BE0
3EBC
B01D
E01E
FFFE
F555
E000
F000
B404
7EAD
1BE4
ENDCHAR
STARTCHAR Ebreve
ENCODING 276
SWIDTH 496 0
DWIDTH 10 0
BBX 9 18 1 0
BITMAP
1D6C00
0BE400
000000
000000
7FFF00
7AAA00
740000
740000
740000
740000
7FFD00
7AA900
740000
740000
740000
740000
7AAA00
7FFF40
ENDCHAR
STARTCHAR ebreve
ENCODING 277
SWIDTH 468 0
DWIDTH 9 0
BBX 8 15 1 0
BITMAP
3978
1BE0
0000
0000
1BE0
3EBC
B01D
E01E
FFFE
F555
E000
F000
B404
7EAD
1BE4
ENDCHAR
STARTCHAR Edotaccent
ENCODING 278
SWIDTH 496 0
DWIDTH 10 0
BBX 9 17 1 0
BITMAP
02D000
02D000
000000
7FFF00
7AAA00
740000
740000
740000
740000
7FFD00
7AA900
740000
740000
740000
740000
7AAA00
7FFF40
ENDCHAR
STARTCHAR edotaccent
ENCODING 279
SWIDTH 468 0
DWIDTH 9 0
BBX 8 15 1 0
BITMAP
0380
0380
0000
0000
1BE0
3EBC
B01D
E01E
FFFE
F555
E000
F000
B404
7EAD
1BE4
ENDCHAR
STARTCHAR Eogonek
ENCODING 280
SWIDTH 496 0
DWIDTH 10 0
BBX 9 18 1 -4
BITMAP
7FFF00
7AAA00
740000
740000
740000
740000
7FFD00
7AA900
740000
740000
740000
740000
7AAA00
7FFF40
002C00
003400
007900
002E00
ENDCHAR
STARTCHAR eogonek
ENCODING 281
SWIDTH 468 0
DWIDTH 9 0
BBX 8 15 1 -4
BITMAP
1BE0
3EBC
B01D
E01E
FFFE
F555
E000
F000
B404
7EAD
1BF4
02C0
0380
0390
01E0
ENDCHAR
STARTCHAR Ecaron
ENCODING 282
SWIDTH 496 0
DWIDTH 10 0
BBX 9 18 1 0
BITMAP
0D3800
07B000
02D000
000000
7FFF00
7AAA00
740000
740000
740000
740000
7FFD00
7AA900
740000
740000
740000
740000
7AAA00
7FFF40
ENDCHAR
STARTCHAR ecaron
ENCODING 283
SWIDTH 468 0
DWIDTH 9 0
BBX 8 16 1 0
BITMAP
2C74
0AD0
0380
0000
0000
1BE0
3EBC
B01D
E01E
FFFE
F555
E000
F000
B404
7EAD
1BE4
ENDCHAR
STARTCHAR Gcircumflex
ENCODING 284
SWIDTH 590 0
DWIDTH 12 0
BBX 10 18 1 0
BITMAP
01E000
07B400
0A1800
000000
06F900
2FAF40
7803C0
B402D0
B00040
B00000
B00000
B03FD0
B02AD0
B001D0
B401D0
3C01D0
1FABC0
06FE00
ENDCHAR
STARTCHAR gcircumflex
ENCODING 285
SWIDTH 492 0
DWIDTH 10 0
BBX 8 20 1 -4
BITMAP
0780
0EE0
1860
0000
0000
1F9E
7EBE
B41E
E00E
E00E
E00E
E00E
E00E
B41E
7EBE
1F9E
001E
102D
79BC
1BE0
ENDCHAR
STARTCHAR Gbreve
ENCODING 286
SWIDTH 590 0
DWIDTH 12 0
BBX 10 18 1 0
BITMAP
0E5D00
06F800
000000
000000
06F900
2FAF40
7803C0
B402D0
B00040
B00000
B00000
B03FD0
B02AD0
B001D0
B401D0
3C01D0
1FABC0
06FE00
ENDCHAR
STARTCHAR gbreve
ENCODING 287
SWIDTH 492 0
DWIDTH 10 0
BBX 8 19 1 -4
BITMAP
3974
1BE0
0000
0000
1F9E
7EBE
B41E
E00E
E00E
E00E
E00E
E00E
B41E
7EBE
1F9E
001E
102D
79BC
1BE0
ENDCHAR
STARTCHAR Gdotaccent
ENCODING 288
SWIDTH 590 0
DWIDTH 12 0
BBX 10 17 1 0
BITMAP
01E000
01E000
000000
06F900
2FAF40
7803C0
B402D0
B00040
B00000
B00000
B03FD0
B02AD0
B001D0
B401D0
3C01D0
1FABC0
06FE00
ENDCHAR
STARTCHAR gdotaccent
ENCODING 289
SWIDTH 492 0
DWIDTH 10 0
BBX 8 19 1 -4
BITMAP
0780
0380
0000
0000
1F9E
7EBE
B41E
E00E
E00E
E00E
E00E
E00E
B41E
7EBE
1F9E
001E
102D
79BC
1BE0
ENDCHAR
STARTCHAR uni0122
ENCODING 290
SWIDTH 590 0
DWIDTH 12 0
BBX 10 20 1 -6
BITMAP
06F900
2FAF40
7803C0
B402D0
B00040
B00000
B00000
B03FD0
B02AD0
B001D0
B401D0
3C01D0
1FABC0
06FE00
000000
000000
00B000
00B000
00E000
008000
ENDCHAR
STARTCHAR uni0123
ENCODING 291
SWIDTH 492 0
DWIDTH 10 0
BBX 8 21 1 -4
BITMAP
0180
0380
0380
0780
0000
0000
1F9E
7EBE
B41E
E00E
E00E
E00E
E00E
E00E
B41E
7EBE
1F9E
001E
102D
79BC
1BE0
ENDCHAR
STARTCHAR Hcircumflex
ENCODING 292
SWIDTH 620 0
DWIDTH 12 0
BBX 10 18 1 0
BITMAP
00F000
02A800
074D00
000000
7400F0
7400F0
7400F0
7400F0
7400F0
7400F0
7FFFF0
7AAAF0
7400F0
7400F0
7400F0
7400F0
7400F0
7400F0
ENDCHAR
STARTCHAR hcircumflex
ENCODING 293
SWIDTH 482 0
DWIDTH 10 0
BBX 8 19 1 0
BITMAP
0B40
1ED0
24A0
0000
B000
B000
B000
B000
B6E4
BEBC
B42D
B01D
B01D
B01D
B01D
B01D
B01D
B01D
B01D
ENDCHAR
STARTCHAR Hbar
ENCODING 294
SWIDTH 611 0
DWIDTH 12 0
BBX 12 14 0 0
BITMAP
1D003C
1D003C
1D003C
BFFFFF
6E557D
1D003C
1FFFFC
1EAABC
1D003C
1D003C
1D003C
1D003C
1D003C
1D003C
ENDCHAR
STARTCHAR hbar
ENCODING 295
SWIDTH 497 0
DWIDTH 10 0
BBX 9 15 0 0
BITMAP
1D0000
FFC000
6E4000
1D0000
1DBD00
1FAF40
1E0780
1D0380
1D0380
1D0380
1D0380
1D0380
1D0380
1D0380
1D0380
ENDCHAR
STARTCHAR Itilde
ENCODING 296
SWIDTH 250 0
DWIDTH 5 0
BBX 7 18 -1 0
BITMAP
0414
3E74
72E0
0000
0740
0740
0740
0740
0740
0740
0740
0740
0740
0740
0740
0740
0740
0740
ENDCHAR
STARTCHAR itilde
ENCODING 297
SWIDTH 234 0
DWIDTH 5 0
BBX 6 16 -1 0
BITMAP
1410
7E70
A2E0
0000
0000
0B00
0B00
0B00
0B00
0B00
0B00
0B00
0B00
0B00
0B00
0B00
ENDCHAR
STARTCHAR Imacron
ENCODING 298
SWIDTH 250 0
DWIDTH 5 0
BBX 7 18 -1 0
BITMAP
1550
7FF4
0000
0000
0740
0740
0740
0740
0740
0740
0740
0740
0740
0740
0740
0740
0740
0740
ENDCHAR
STARTCHAR imacron
ENCODING 299
SWIDTH 234 0
DWIDTH 5 0
BBX 7 15 -1 0
BITMAP
5550
7FF4
0000
0000
0B00
0B00
0B00
0B00
0B00
0B00
0B00
0B00
0B00
0B00
0B00
ENDCHAR
STARTCHAR Ibreve
ENCODING 300
SWIDTH 250 0
DWIDTH 5 0
BBX 7 18 -1 0
BITMAP
7574
1FD0
0000
0000
0740
0740
0740
0740
0740
0740
0740
0740
0740
0740
0740
0740
0740
0740
ENDCHAR
STARTCHAR ibreve
ENCODING 301
SWIDTH 234 0
DWIDTH 5 0
BBX 6 15 -1 0
BITMAP
75B0
2F90
0000
0000
0B00
0B00
0B00
0B00
0B00
0B00
0B00
0B00
0B00
0B00
0B00
ENDCHAR
STARTCHAR Iogonek
ENCODING 302
SWIDTH 250 0
DWIDTH 5 0
BBX 4 18 0 -4
BITMAP
1D
1D
1D
1D
1D
1D
1D
1D
1D
1D
1D
1D
1D
1D
28
70
B4
7D
ENDCHAR
STARTCHAR iogonek
ENCODING 303
SWIDTH 229 0
DWIDTH 5 0
BBX 3 19 0 -4
BITMAP
1C
1C
00
00
2C
2C
2C
2C
2C
2C
2C
2C
2C
2C
2C
34
A0
B4
7C
ENDCHAR
STARTCHAR Idotaccent
ENCODING 304
SWIDTH 250 0
DWIDTH 5 0
BBX 3 17 1 0
BITMAP
74
74
00
74
74
74
74
74
74
74
74
74
74
74
74
74
74
ENDCHAR
STARTCHAR dotlessi
ENCODING 305
SWIDTH 234 0
DWIDTH 5 0
BBX 2 11 1 0
BITMAP
B0
B0
B0
B0
B0
B0
B0
B0
B0
B0
B0
ENDCHAR
STARTCHAR IJ
ENCODING 306
SWIDTH 733 0
DWIDTH 15 0
BBX 13 14 1 0
BITMAP
74000B40
74000B40
74000B40
74000B40
74000B40
74000B40
74000B40
74000B40
74000B40
74000B40
74740B40
74380F00
742EBD00
740BF400
ENDCHAR
STARTCHAR ij
ENCODING 307
SWIDTH 452 0
DWIDTH 9 0
BBX 7 19 1 -4
BITMAP
7038
7034
0000
0000
B038
B038
B038
B038
B038
B038
B038
B038
B038
B038
B038
0038
0038
01B4
02E0
ENDCHAR
STARTCHAR Jcircumflex
ENCODING 308
SWIDTH 483 0
DWIDTH 10 0
BBX 10 18 0 0
BITMAP
000B00
002E80
0074D0
000000
000B40
000B40
000B40
000B40
000B40
000B40
000B40
000B40
000B40
000B40
740B40
380F00
2EBD00
0BF400
ENDCHAR
STARTCHAR jcircumflex
ENCODING 309
SWIDTH 237 0
DWIDTH 5 0
BBX 6 20 -1 -4
BITMAP
0740
1ED0
28A0
0000
0000
0740
0740
0740
0740
0740
0740
0740
0740
0740
0740
0740
0740
0B40
2F00
7900
ENDCHAR
STARTCHAR uni0136
ENCODING 310
SWIDTH 544 0
DWIDTH 11 0
BBX 10 19 1 -5
BITMAP
7403C0
740B40
742E00
747800
74F000
76D000
7BC000
7FE000
7CB400
743C00
741E00
740B40
7407C0
7402E0
000000
01D000
01D000
01C000
018000
ENDCHAR
STARTCHAR uni0137
ENCODING 311
SWIDTH 450 0
DWIDTH 9 0
BBX 8 20 1 -5
BITMAP
B000
B000
B000
B000
B03C
B0B4
B1E0
B380
BB40
BF80
BBD0
B1E0
B0B4
B03C
B01E
0000
0740
0740
0B00
0900
ENDCHAR
STARTCHAR kgreenlandic
ENCODING 312
SWIDTH 491 0
DWIDTH 10 0
BBX 8 11 1 0
BITMAP
B42E
B478
B4F0
B6D0
BF40
BB80
B6D0
B4F0
B478
B42D
B41F
ENDCHAR
STARTCHAR Lacute
ENCODING 313
SWIDTH 475 0
DWIDTH 10 0
BBX 8 18 1 0
BITMAP
0F00
2D00
7400
0000
7400
7400
7400
7400
7400
7400
7400
7400
7400
7400
7400
7400
7AA9
7FFF
ENDCHAR
STARTCHAR lacute
ENCODING 314
SWIDTH 229 0
DWIDTH 5 0
BBX 4 19 1 0
BITMAP
1F
3C
74
00
B0
B0
B0
B0
B0
B0
B0
B0
B0
B0
B0
B0
B0
B0
B0
ENDCHAR
STARTCHAR uni013B
ENCODING 315
SWIDTH 475 0
DWIDTH 10 0
BBX 8 19 1 -5
BITMAP
7400
7400
7400
7400
7400
7400
7400
7400
7400
7400
7400
7400
7AA9
7FFF
0000
02C0
02C0
0380
0240
ENDCHAR
STARTCHAR uni013C
ENCODING 316
SWIDTH 229 0
DWIDTH 5 0
BBX 2 20 1 -5
BITMAP
B0
B0
B0
B0
B0
B0
B0
B0
B0
B0
B0
B0
B0
B0
B0
00
B0
B0
E0
90
ENDCHAR
STARTCHAR Lcaron
ENCODING 317
SWIDTH 475 0
DWIDTH 10 0
BBX 8 14 1 0
BITMAP
74B0
74B0
74E0
7490
7400
7400
7400
7400
7400
7400
7400
7400
7AA9
7FFF
ENDCHAR
STARTCHAR lcaron
ENCODING 318
SWIDTH 302 0
DWIDTH 6 0
BBX 5 15 1 0
BITMAP
B2C0
B2C0
B380
B640
B000
B000
B000
B000
B000
B000
B000
B000
B000
B000
B000
ENDCHAR
STARTCHAR Ldot
ENCODING 319
SWIDTH 475 0
DWIDTH 10 0
BBX 8 14 1 0
BITMAP
7400
7400
7400
7400
7400
7400
74F0
74B0
7400
7400
7400
7400
7AA9
7FFF
ENDCHAR
STARTCHAR ldot
ENCODING 320
SWIDTH 336 0
DWIDTH 7 0
BBX 5 15 1 0
BITMAP
B000
B000
B000
B000
B000
B000
B000
B2C0
B2C0
B000
B000
B000
B000
B000
B000
ENDCHAR
STARTCHAR Lslash
ENCODING 321
SWIDTH 475 0
DWIDTH 10 0
BBX 9 14 0 0
BITMAP
1D0000
1D0000
1D0000
1D0000
1D0000
1E9000
2F8000
7D0000
1D0000
1D0000
1D0000
1D0000
1EAA40
1FFFC0
ENDCHAR
STARTCHAR lslash
ENCODING 322
SWIDTH 250 0
DWIDTH 5 0
BBX 5 15 0 0
BITMAP
1D00
1D00
1D00
1D00
1D00
1D00
1E40
2E40
6D00
1D00
1D00
1D00
1D00
1D00
1D00
ENDCHAR
STARTCHAR Nacute
ENCODING 323
SWIDTH 619 0
DWIDTH 12 0
BBX 10 18 1 0
BITMAP
001E00
003C00
007000
000000
7800E0
7C00E0
7E00E0
7F40E0
7780E0
75D0E0
74E0E0
7474E0
7438E0
741DE0
740BE0
7407E0
7402E0
7401E0
ENDCHAR
STARTCHAR nacute
ENCODING 324
SWIDTH 483 0
DWIDTH 10 0
BBX 8 15 1 0
BITMAP
00B8
01E0
0280
0000
B6E4
BEBC
B42D
B01D
B01D
B01D
B01D
B01D
B01D
B01D
B01D
ENDCHAR
STARTCHAR uni0145
ENCODING 325
SWIDTH 619 0
DWIDTH 12 0
BBX 10 19 1 -5
BITMAP
7800E0
7C00E0
7E00E0
7F40E0
7780E0
75D0E0
74E0E0
7474E0
7438E0
741DE0
740BE0
7407E0
7402E0
7401E0
000000
00B000
00A000
00E000
008000
ENDCHAR
STARTCHAR uni0146
ENCODING 326
SWIDTH 483 0
DWIDTH 10 0
BBX 8 16 1 -5
BITMAP
B6E4
BEBC
B42D
B01D
B01D
B01D
B01D
B01D
B01D
B01D
B01D
0000
0380
0380
0740
0600
ENDCHAR
STARTCHAR Ncaron
ENCODING 327
SWIDTH 619 0
DWIDTH 12 0
BBX 10 18 1 0
BITMAP
074E00
01E800
00B000
000000
7800E0
7C00E0
7E00E0
7F40E0
7780E0
75D0E0
74E0E0
7474E0
7438E0
741DE0
740BE0
7407E0
7402E0
7401E0
ENDCHAR
STARTCHAR ncaron
ENCODING 328
SWIDTH 483 0
DWIDTH 10 0
BBX 8 16 1 0
BITMAP
1C74
0AE0
0380
0000
0000
B6E4
BEBC
B42D
B01D
B01D
B01D
B01D
B01D
B01D
B01D
B01D
ENDCHAR
STARTCHAR napostrophe
ENCODING 329
SWIDTH 483 0
DWIDTH 10 0
BBX 10 15 -1 0
BITMAP
280000
380000
340000
600000
0B6E40
0BEBC0
0B42D0
0B01D0
0B01D0
0B01D0
0B01D0
0B01D0
0B01D0
0B01D0
0B01D0
ENDCHAR
STARTCHAR Eng
ENCODING 330
SWIDTH 599 0
DWIDTH 12 0
BBX 10 18 1 -4
BITMAP
B801E0
BC01E0
BE01E0
BF01E0
B781E0
B6C1E0
B4E1E0
B4B5E0
B439E0
B42DE0
B40FE0
B407E0
B403E0
B401E0
0001E0
0001D0
000BD0
000F40
ENDCHAR
STARTCHAR eng
ENCODING 331
SWIDTH 498 0
DWIDTH 10 0
BBX 8 15 1 -4
BITMAP
B2F4
BABC
B41D
B01D
B01E
B01E
B01E
B01E
B01E
B01E
B01E
001E
001D
00BC
00F4
ENDCHAR
STARTCHAR Omacron
ENCODING 332
SWIDTH 600 0
DWIDTH 12 0
BBX 10 18 1 0
BITMAP
055500
0BFF00
000000
000000
06F900
1FAF40
3C03C0
7401D0
B000E0
B000E0
B000E0
B000E0
B000E0
B000E0
7401D0
3C03C0
1FAF40
06F900
ENDCHAR
STARTCHAR omacron
ENCODING 333
SWIDTH 501 0
DWIDTH 10 0
BBX 8 15 1 0
BITMAP
1554
3FF8
0000
0000
0BE0
3EBC
B41E
F00F
E00B
E00B
E00B
F00B
B41E
3EBC
0BE4
ENDCHAR
STARTCHAR Obreve
ENCODING 334
SWIDTH 600 0
DWIDTH 12 0
BBX 10 18 1 0
BITMAP
0B5A00
02F800
000000
000000
06F900
1FAF40
3C03C0
7401D0
B000E0
B000E0
B000E0
B000E0
B000E0
B000E0
7401D0
3C03C0
1FAF40
06F900
ENDCHAR
STARTCHAR obreve
ENCODING 335
SWIDTH 501 0
DWIDTH 10 0
BBX 8 15 1 0
BITMAP
2978
0BE0
0000
0000
0BE0
3EBC
B41E
F00F
E00B
E00B
E00B
F00B
B41E
3EBC
0BE4
ENDCHAR
STARTCHAR Ohungarumlaut
ENCODING 336
SWIDTH 600 0
DWIDTH 12 0
BBX 10 18 1 0
BITMAP
00E780
02DF00
029D00
000000
06F900
1FAF40
3C03C0
7401D0
B000E0
B000E0
B000E0
B000E0
B000E0
B000E0
7401D0
3C03C0
1FAF40
06F900
ENDCHAR
STARTCHAR ohungarumlaut
ENCODING 337
SWIDTH 501 0
DWIDTH 10 0
BBX 8 15 1 0
BITMAP
079D
0B78
0970
0000
0BE0
3EBC
B41E
F00F
E00B
E00B
E00B
F00B
B41E
3EBC
0BE4
ENDCHAR
STARTCHAR OE
ENCODING 338
SWIDTH 826 0
DWIDTH 17 0
BBX 14 14 1 0
BITMAP
06FFFFF0
2E6FAA90
780B0000
B00B0000
F00B0000
E00B0000
E00BFFC0
E00BAA80
E00B0000
F00B0000
B00B0000
780B0000
2E6FAAA0
06FFFFF0
ENDCHAR
STARTCHAR oe
ENCODING 339
SWIDTH 777 0
DWIDTH 16 0
BBX 14 11 1 0
BITMAP
0BE07E40
3EBAEBC0
741F81D0
B00F40E0
E00FFFE0
E00B9550
E00F0000
B00F4000
741F8040
3EBAE6D0
0BE07F80
ENDCHAR
STARTCHAR Racute
ENCODING 340
SWIDTH 530 0
DWIDTH 11 0
BBX 9 18 1 0
BITMAP
007800
00F000
01C000
000000
7FF800
7AAF00
740B40
740380
740380
740780
741F40
7FFD00
7AB800
742D00
741E00
740B00
740780
7403C0
ENDCHAR
STARTCHAR racute
ENCODING 341
SWIDTH 304 0
DWIDTH 6 0
BBX 6 15 1 0
BITMAP
03D0
0B40
1D00
0000
B780
BE80
B400
B000
B000
B000
B000
B000
B000
B000
B000
ENDCHAR
STARTCHAR uni0156
ENCODING 342
SWIDTH 530 0
DWIDTH 11 0
BBX 9 19 1 -5
BITMAP
7FF800
7AAF00
740B40
740380
740380
740780
741F40
7FFD00
7AB800
742D00
741E00
740B00
740780
7403C0
000000
02C000
02C000
038000
024000
ENDCHAR
STARTCHAR uni0157
ENCODING 343
SWIDTH 304 0
DWIDTH 6 0
BBX 5 16 1 -5
BITMAP
B780
BE80
B400
B000
B000
B000
B000
B000
B000
B000
B000
0000
B000
B000
E000
9000
ENDCHAR
STARTCHAR Rcaron
ENCODING 344
SWIDTH 530 0
DWIDTH 11 0
BBX 9 18 1 0
BITMAP
1D3800
07A000
02C000
000000
7FF800
7AAF00
740B40
740380
740380
740780
741F40
7FFD00
7AB800
742D00
741E00
740B00
740780
7403C0
ENDCHAR
STARTCHAR rcaron
ENCODING 345
SWIDTH 304 0
DWIDTH 6 0
BBX 5 16 1 0
BITMAP
A2C0
3B40
1D00
0000
0000
B780
BE80
B400
B000
B000
B000
B000
B000
B000
B000
B000
ENDCHAR
STARTCHAR Sacute
ENCODING 346
SWIDTH 518 0
DWIDTH 10 0
BBX 9 18 1 0
BITMAP
007C00
00F000
01D000
000000
0BE400
3EBE00
B40B00
B00740
B40100
7D0000
1FE000
02FD00
001F00
500740
E00780
B40B40
7EAE00
0BF800
ENDCHAR
STARTCHAR sacute
ENCODING 347
SWIDTH 455 0
DWIDTH 9 0
BBX 7 15 1 0
BITMAP
00B8
01E0
0280
0000
1BD0
7EB8
B03C
B404
7E00
1BE0
01B8
502C
F02C
7AB8
1BE0
ENDCHAR
STARTCHAR Scircumflex
ENCODING 348
SWIDTH 518 0
DWIDTH 10 0
BBX 9 18 1 0
BITMAP
02D000
0BB000
092400
000000
0BE400
3EBE00
B40B00
B00740
B40100
7D0000
1FE000
02FD00
001F00
500740
E00780
B40B40
7EAE00
0BF800
ENDCHAR
STARTCHAR scircumflex
ENCODING 349
SWIDTH 455 0
DWIDTH 9 0
BBX 7 16 1 0
BITMAP
0380
0EE0
1C74
0000
0000
1BD0
7EB8
B03C
B404
7E00
1BE0
01B8
502C
F02C
7AB8
1BE0
ENDCHAR
STARTCHAR Scedilla
ENCODING 350
SWIDTH 518 0
DWIDTH 10 0
BBX 9 18 1 -4
BITMAP
0BE400
3EBE00
B40B00
B00740
B40100
7D0000
1FE000
02FD00
001F00
500740
E00780
B40B40
7EAE00
0BF800
01C000
00A000
007000
01D000
ENDCHAR
STARTCHAR scedilla
ENCODING 351
SWIDTH 455 0
DWIDTH 9 0
BBX 7 15 1 -4
BITMAP
1BD0
7EB8
B03C
B404
7E00
1BE0
01B8
502C
F02C
7AB8
1BE0
0280
0190
00A0
0380
ENDCHAR
STARTCHAR Scaron
ENCODING 352
SWIDTH 518 0
DWIDTH 10 0
BBX 9 18 1 0
BITMAP
0D3800
07B000
02D000
000000
0BE400
3EBE00
B40B00
B00740
B40100
7D0000
1FE000
02FD00
001F00
500740
E00780
B40B40
7EAE00
0BF800
ENDCHAR
STARTCHAR scaron
ENCODING 353
SWIDTH 455 0
DWIDTH 9 0
BBX 7 16 1 0
BITMAP
1C74
0AE0
0380
0000
0000
1BD0
7EB8
B03C
B404
7E00
1BE0
01B8
502C
F02C
7AB8
1BE0
ENDCHAR
STARTCHAR uni0162
ENCODING 354
SWIDTH 520 0
DWIDTH 10 0
BBX 10 18 0 -4
BITMAP
7FFFF0
6AFA90
00B000
00B000
00B000
00B000
00B000
00B000
00B000
00B000
00B000
00B000
00B000
00B000
007000
002800
002C00
00B400
ENDCHAR
STARTCHAR uni0163
ENCODING 355
SWIDTH 295 0
DWIDTH 6 0
BBX 6 18 0 -4
BITMAP
0E00
0E00
0E00
BFC0
5E40
0E00
0E00
0E00
0E00
0E00
0E00
0E00
0F80
07C0
0280
0190
00A0
0290
ENDCHAR
STARTCHAR Tcaron
ENCODING 356
SWIDTH 520 0
DWIDTH 10 0
BBX 10 18 0 0
BITMAP
034E00
01E800
00B000
000000
7FFFF0
6AFA90
00B000
00B000
00B000
00B000
00B000
00B000
00B000
00B000
00B000
00B000
00B000
00B000
ENDCHAR
STARTCHAR tcaron
ENCODING 357
SWIDTH 314 0
DWIDTH 6 0
BBX 7 16 0 0
BITMAP
0038
0038
0E74
0E60
0E00
BFC0
5E40
0E00
0E00
0E00
0E00
0E00
0E00
0E00
0F80
07C0
ENDCHAR
STARTCHAR Tbar
ENCODING 358
SWIDTH 520 0
DWIDTH 10 0
BBX 10 14 0 0
BITMAP
7FFFF0
6AFA90
00B000
00B000
00B000
07FF00
01F900
00B000
00B000
00B000
00B000
00B000
00B000
00B000
ENDCHAR
STARTCHAR tbar
ENCODING 359
SWIDTH 295 0
DWIDTH 6 0
BBX 6 14 0 0
BITMAP
0E00
0E00
0E00
BFC0
5E40
0E00
FFD0
6E40
0E00
0E00
0E00
0E00
0F80
07C0
ENDCHAR
STARTCHAR Utilde
ENCODING 360
SWIDTH 561 0
DWIDTH 11 0
BBX 9 18 1 0
BITMAP
010500
0FDD00
1C7800
000000
B002C0
B002C0
B002C0
B002C0
B002C0
B002C0
B002C0
B002C0
B002C0
B002C0
B003C0
780780
3EAF40
0BF900
ENDCHAR
STARTCHAR utilde
ENCODING 361
SWIDTH 483 0
DWIDTH 10 0
BBX 8 16 1 0
BITMAP
0414
2F68
35F0
0000
0000
B01D
B01D
B01D
B01D
B01D
B01D
B01D
B01D
B42D
7EBD
1F9D
ENDCHAR
STARTCHAR Umacron
ENCODING 362
SWIDTH 561 0
DWIDTH 11 0
BBX 9 18 1 0
BITMAP
055500
1FFE00
000000
000000
B002C0
B002C0
B002C0
B002C0
B002C0
B002C0
B002C0
B002C0
B002C0
B002C0
B003C0
780780
3EAF40
0BF900
ENDCHAR
STARTCHAR umacron
ENCODING 363
SWIDTH 483 0
DWIDTH 10 0
BBX 8 15 1 0
BITMAP
1554
3FF8
0000
0000
B01D
B01D
B01D
B01D
B01D
B01D
B01D
B01D
B42D
7EBD
1F9D
ENDCHAR
STARTCHAR Ubreve
ENCODING 364
SWIDTH 561 0
DWIDTH 11 0
BBX 9 18 1 0
BITMAP
0E5D00
06F400
000000
000000
B002C0
B002C0
B002C0
B002C0
B002C0
B002C0
B002C0
B002C0
B002C0
B002C0
B003C0
780780
3EAF40
0BF900
ENDCHAR
STARTCHAR ubreve
ENCODING 365
SWIDTH 483 0
DWIDTH 10 0
BBX 8 15 1 0
BITMAP
3978
1BE0
0000
0000
B01D
B01D
B01D
B01D
B01D
B01D
B01D
B01D
B42D
7EBD
1F9D
ENDCHAR
STARTCHAR Uring
ENCODING 366
SWIDTH 561 0
DWIDTH 11 0
BBX 9 19 1 0
BITMAP
02E000
061800
061800
02E000
000000
B002C0
B002C0
B002C0
B002C0
B002C0
B002C0
B002C0
B002C0
B002C0
B002C0
B003C0
780780
3EAF40
0BF900
ENDCHAR
STARTCHAR uring
ENCODING 367
SWIDTH 483 0
DWIDTH 10 0
BBX 8 16 1 0
BITMAP
0790
0C60
0C60
0BD0
0000
B01D
B01D
B01D
B01D
B01D
B01D
B01D
B01D
B42D
7EBD
1F9D
ENDCHAR
STARTCHAR Uhungarumlaut
ENCODING 368
SWIDTH 561 0
DWIDTH 11 0
BBX 9 18 1 0
BITMAP
01DB40
039D00
076800
000000
B002C0
B002C0
B002C0
B002C0
B002C0
B002C0
B002C0
B002C0
B002C0
B002C0
B003C0
780780
3EAF40
0BF900
ENDCHAR
STARTCHAR uhungarumlaut
ENCODING 369
SWIDTH 483 0
DWIDTH 10 0
BBX 8 15 1 0
BITMAP
07AD
0B78
09A0
0000
B01D
B01D
B01D
B01D
B01D
B01D
B01D
B01D
B42D
7EBD
1F9D
ENDCHAR
STARTCHAR Uogonek
ENCODING 370
SWIDTH 561 0
DWIDTH 11 0
BBX 9 18 1 -4
BITMAP
B002C0
B002C0
B002C0
B002C0
B002C0
B002C0
B002C0
B002C0
B002C0
B002C0
B003C0
780780
3EAF40
0BF800
00B000
00E000
00E400
007800
ENDCHAR
STARTCHAR uogonek
ENCODING 371
SWIDTH 483 0
DWIDTH 10 0
BBX 8 15 1 -4
BITMAP
B01D
B01D
B01D
B01D
B01D
B01D
B01D
B01D
B42D
7EBD
1F9D
0028
0070
00B5
007D
ENDCHAR
STARTCHAR Wcircumflex
ENCODING 372
SWIDTH 761 0
DWIDTH 15 0
BBX 15 18 0 0
BITMAP
00078000
000EE000
00186000
00000000
78038078
38078074
2C0BC0B4
2C0AD0B0
1D0DD0E0
1D1DA0E0
0E2C71D0
0B2875D0
0B3436C0
07742A80
07B02F80
03E01F40
02E00F40
02D00F00
ENDCHAR
STARTCHAR wcircumflex
ENCODING 373
SWIDTH 649 0
DWIDTH 13 0
BBX 13 16 0 0
BITMAP
001D0000
007B4000
00A28000
00000000
00000000
741D0740
382E0B00
383E0B00
2C3B0E00
1C774D00
1DB39D00
0EE2AC00
0BD1F800
0BC0F400
0780F400
0380B000
ENDCHAR
STARTCHAR Ycircumflex
ENCODING 374
SWIDTH 524 0
DWIDTH 10 0
BBX 10 18 0 0
BITMAP
00B400
02EC00
024900
000000
7800F0
3C01D0
2D03C0
0E0780
0B4B00
078E00
02ED00
01F800
00B400
00B000
00B000
00B000
00B000
00B000
ENDCHAR
STARTCHAR ycircumflex
ENCODING 375
SWIDTH 416 0
DWIDTH 8 0
BBX 8 20 0 -4
BITMAP
02D0
07B4
0928
0000
0000
B40E
781E
3C2D
2C2C
1D38
0E74
0B70
07E0
03E0
03D0
02C0
0280
0740
2F00
3900
ENDCHAR
STARTCHAR Ydieresis
ENCODING 376
SWIDTH 524 0
DWIDTH 10 0
BBX 10 17 0 0
BITMAP
0B0740
0B0740
000000
7800F0
3C01D0
2D03C0
0E0780
0B4B00
078E00
02ED00
01F800
00B400
00B000
00B000
00B000
00B000
00B000
ENDCHAR
STARTCHAR Zacute
ENCODING 377
SWIDTH 522 0
DWIDTH 10 0
BBX 9 18 1 0
BITMAP
007C00
00F000
01D000
000000
FFFF40
AAAF40
001E00
002C00
007800
00F000
02D000
038000
0B4000
1E0000
3C0000
740000
FAAA40
FFFF80
ENDCHAR
STARTCHAR zacute
ENCODING 378
SWIDTH 438 0
DWIDTH 9 0
BBX 7 15 1 0
BITMAP
00F0
02D0
0740
0000
FFF8
AAB8
00B0
01D0
03C0
0B40
1E00
2C00
7800
F954
FFFC
ENDCHAR
STARTCHAR Zdotaccent
ENCODING 379
SWIDTH 522 0
DWIDTH 10 0
BBX 9 17 1 0
BITMAP
02D000
02D000
000000
FFFF40
AAAF40
001E00
002C00
007800
00F000
02D000
038000
0B4000
1E0000
3C0000
740000
FAAA40
FFFF80
ENDCHAR
STARTCHAR zdotaccent
ENCODING 380
SWIDTH 438 0
DWIDTH 9 0
BBX 7 15 1 0
BITMAP
0740
0740
0000
0000
FFF8
AAB8
00B0
01D0
03C0
0B40
1E00
2C00
7800
F954
FFFC
ENDCHAR
STARTCHAR Zcaron
ENCODING 381
SWIDTH 522 0
DWIDTH 10 0
BBX 9 18 1 0
BITMAP
0D3800
07B000
02D000
000000
FFFF40
AAAF40
001E00
002C00
007800
00F000
02D000
038000
0B4000
1E0000
3C0000
740000
FAAA40
FFFF80
ENDCHAR
STARTCHAR zcaron
ENCODING 382
SWIDTH 438 0
DWIDTH 9 0
BBX 7 16 1 0
BITMAP
38A0
1EC0
0740
0000
0000
FFF8
AAB8
00B0
01D0
03C0
0B40
1E00
2C00
7800
F954
FFFC
ENDCHAR
STARTCHAR longs
ENCODING 383
SWIDTH 234 0
DWIDTH 5 0
BBX 5 15 1 0
BITMAP
1B40
3E40
7400
B400
B400
B400
B400
B400
B400
B400
B400
B400
B400
B400
B400
ENDCHAR
STARTCHAR uni018F
ENCODING 399
SWIDTH 597 0
DWIDTH 12 0
BBX 10 14 1 0
BITMAP
1BF800
2EAF00
000780
0002D0
0001E0
0000E0
0000E0
FFFFE0
E555E0
E001E0
B002D0
780780
2EAF00
07F800
ENDCHAR
STARTCHAR florin
ENCODING 402
SWIDTH 309 0
DWIDTH 6 0
BBX 6 19 0 -4
BITMAP
02F0
0BA0
0E00
0E00
7FD0
5E40
0E00
0E00
0E00
0E00
0E00
0E00
0E00
0E00
0E00
0E00
1E00
6D00
F400
ENDCHAR
STARTCHAR Ohorn
ENCODING 416
SWIDTH 592 0
DWIDTH 12 0
BBX 11 16 1 0
BITMAP
000018
00002C
06F978
1FAFE0
3807C0
B402D0
F001D0
E001E0
E000E0
E000E0
E001E0
F001D0
B402C0
380780
1FAF00
06F800
ENDCHAR
STARTCHAR ohorn
ENCODING 417
SWIDTH 502 0
DWIDTH 10 0
BBX 9 13 1 0
BITMAP
000040
0001C0
0BE6C0
3EBF40
741E00
B00F00
E00B00
E00B00
E00B00
B00E00
741D00
3EBC00
0BE000
ENDCHAR
STARTCHAR Uhorn
ENCODING 431
SWIDTH 608 0
DWIDTH 12 0
BBX 12 15 1 0
BITMAP
000007
B002C7
B002DE
B002FC
B002D0
B002C0
B002C0
B002C0
B002C0
B002C0
B002C0
B403C0
780780
2EAF00
0BF800
ENDCHAR
STARTCHAR uhorn
ENCODING 432
SWIDTH 549 0
DWIDTH 11 0
BBX 10 12 1 0
BITMAP
000070
B01DA0
B01FD0
B01D00
B01D00
B01D00
B01D00
B01D00
B01D00
B42D00
7EBD00
1F9D00
ENDCHAR
STARTCHAR uni01F0
ENCODING 496
SWIDTH 237 0
DWIDTH 5 0
BBX 6 20 -1 -4
BITMAP
38A0
1EC0
0740
0000
0000
0740
0740
0740
0740
0740
0740
0740
0740
0740
0740
0740
0740
0B40
2F00
7900
ENDCHAR
STARTCHAR Aringacute
ENCODING 506
SWIDTH 576 0
DWIDTH 12 0
BBX 11 19 0 0
BITMAP
000A00
001800
007800
009900
007800
003800
007C00
00BD00
00DE00
01CB00
02C740
038380
0742C0
0B01D0
0FFFE0
1EAAF0
2C00B4
380078
74003C
ENDCHAR
STARTCHAR aringacute
ENCODING 507
SWIDTH 479 0
DWIDTH 10 0
BBX 8 16 1 0
BITMAP
00B0
0090
03C0
0690
03C0
1BE0
7EB8
B02C
002D
0BFD
7D6D
B02D
F02D
B02D
7AFD
2F9D
ENDCHAR
STARTCHAR AEacute
ENCODING 508
SWIDTH 812 0
DWIDTH 16 0
BBX 16 18 0 0
BITMAP
0000B400
0001E000
00028000
00000000
0003FFFD
000BE554
000EE000
002DE000
0038E000
00B4E000
00E0FFF8
02D0F554
0780F000
0BFFF000
1FAAF000
2D00B000
7800B555
B400BFFE
ENDCHAR
STARTCHAR aeacute
ENCODING 509
SWIDTH 728 0
DWIDTH 15 0
BBX 13 15 1 0
BITMAP
00078000
000F0000
001D0000
00000000
1FD2F900
BABBAF00
A03E0780
002C0380
1BFFFF80
B97D5540
E02C0000
E02D0000
E03E0000
BAFBAB80
2F81FE00
ENDCHAR
STARTCHAR Oslashacute
ENCODING 510
SWIDTH 600 0
DWIDTH 12 0
BBX 10 19 1 -1
BITMAP
001E00
007800
00A000
000010
06F9A0
1FAFC0
3D03C0
7807D0
B40EE0
B018E0
F034F0
F0A0F0
B0D0E0
B280E0
7B01D0
3E03C0
1FAF40
2AF900
600000
ENDCHAR
STARTCHAR oslashacute
ENCODING 511
SWIDTH 498 0
DWIDTH 10 0
BBX 8 16 1 -1
BITMAP
00B4
02D0
0280
000C
0BE8
3EBC
747E
B09F
E0CB
E18B
E34B
B60F
7D1E
3EBC
2FE0
3000
ENDCHAR
STARTCHAR uni0218
ENCODING 536
SWIDTH 518 0
DWIDTH 10 0
BBX 9 19 1 -5
BITMAP
0BE400
3EBE00
B40B00
B00740
B40100
7D0000
1FE000
02FD00
001F00
500740
E00780
B40B40
7EAE00
0BF800
000000
02C000
02C000
028000
024000
ENDCHAR
STARTCHAR uni0219
ENCODING 537
SWIDTH 455 0
DWIDTH 9 0
BBX 7 17 1 -6
BITMAP
1BD0
7EB8
B03C
B404
7E00
1BE0
01B8
502C
F02C
7AB8
1BE0
0000
0000
0380
0380
0740
0600
ENDCHAR
STARTCHAR uni021A
ENCODING 538
SWIDTH 520 0
DWIDTH 10 0
BBX 10 19 0 -5
BITMAP
7FFFF0
6AFA90
00B000
00B000
00B000
00B000
00B000
00B000
00B000
00B000
00B000
00B000
00B000
00B000
000000
00B000
00B000
00E000
009000
ENDCHAR
STARTCHAR uni021B
ENCODING 539
SWIDTH 295 0
DWIDTH 6 0
BBX 5 19 0 -5
BITMAP
0E00
0E00
0E00
BFC0
5E40
0E00
0E00
0E00
0E00
0E00
0E00
0E00
0F80
07C0
0000
0380
0380
0740
0600
ENDCHAR
STARTCHAR uni0237
ENCODING 567
SWIDTH 237 0
DWIDTH 5 0
BBX 5 15 -1 -4
BITMAP
0740
0740
0740
0740
0740
0740
0740
0740
0740
0740
0740
0740
0B40
2F00
7900
ENDCHAR
STARTCHAR uni0259
ENCODING 601
SWIDTH 465 0
DWIDTH 9 0
BBX 8 11 1 0
BITMAP
2F90
BAF4
003C
001D
001D
FFFD
F56D
F02D
B03C
7EB4
1BD0
ENDCHAR
STARTCHAR uni02BC
ENCODING 700
SWIDTH 194 0
DWIDTH 4 0
BBX 3 5 0 10
BITMAP
2C
2C
2C
38
60
ENDCHAR
STARTCHAR circumflex
ENCODING 710
SWIDTH 428 0
DWIDTH 9 0
BBX 5 3 2 12
BITMAP
2C00
BB00
9340
ENDCHAR
STARTCHAR caron
ENCODING 711
SWIDTH 403 0
DWIDTH 8 0
BBX 6 3 1 12
BITMAP
71D0
2A80
0E00
ENDCHAR
STARTCHAR uni02C9
ENCODING 713
SWIDTH 414 0
DWIDTH 8 0
BBX 6 1 1 13
BITMAP
BFF0
ENDCHAR
STARTCHAR breve
ENCODING 728
SWIDTH 426 0
DWIDTH 9 0
BBX 6 2 1 13
BITMAP
B0B0
2FD0
ENDCHAR
STARTCHAR dotaccent
ENCODING 729
SWIDTH 242 0
DWIDTH 5 0
BBX 3 2 1 12
BITMAP
74
74
ENDCHAR
STARTCHAR ring
ENCODING 730
SWIDTH 334 0
DWIDTH 7 0
BBX 5 4 1 12
BITMAP
2E00
9240
9240
6E00
ENDCHAR
STARTCHAR ogonek
ENCODING 731
SWIDTH 253 0
DWIDTH 5 0
BBX 4 5 0 -4
BITMAP
04
28
74
79
2D
ENDCHAR
STARTCHAR tilde
ENCODING 732
SWIDTH 427 0
DWIDTH 9 0
BBX 6 3 1 12
BITMAP
1420
7EB0
A2D0
ENDCHAR
STARTCHAR hungarumlaut
ENCODING 733
SWIDTH 331 0
DWIDTH 7 0
BBX 6 3 1 12
BITMAP
39E0
B7C0
A740
ENDCHAR
STARTCHAR uni02F3
ENCODING 755
SWIDTH 263 0
DWIDTH 5 0
BBX 3 3 1 -4
BITMAP
78
9C
78
ENDCHAR
STARTCHAR gravecomb
ENCODING 768
SWIDTH 0 0
DWIDTH 0 0
BBX 4 3 -7 12
BITMAP
B4
3C
1D
ENDCHAR
STARTCHAR acutecomb
ENCODING 769
SWIDTH 0 0
DWIDTH 0 0
BBX 3 3 -5 12
BITMAP
3C
B4
90
ENDCHAR
STARTCHAR tildecomb
ENCODING 771
SWIDTH 0 0
DWIDTH 0 0
BBX 6 3 -7 12
BITMAP
1050
BDA0
D780
ENDCHAR
STARTCHAR hookabovecomb
ENCODING 777
SWIDTH 0 0
DWIDTH 0 0
BBX 3 4 -6 12
BITMAP
74
1C
2C
70
ENDCHAR
STARTCHAR uni030F
ENCODING 783
SWIDTH 0 0
DWIDTH 0 0
BBX 6 3 -8 12
BITMAP
7AD0
2DE0
0A60
ENDCHAR
STARTCHAR dotbelowcomb
ENCODING 803
SWIDTH 0 0
DWIDTH 0 0
BBX 2 2 -7 -3
BITMAP
B0
B0
ENDCHAR
STARTCHAR tonos
ENCODING 900
SWIDTH 256 0
DWIDTH 5 0
BBX 2 3 2 12
BITMAP
A0
D0
80
ENDCHAR
STARTCHAR dieresistonos
ENCODING 901
SWIDTH 452 0
DWIDTH 9 0
BBX 7 4 1 12
BITMAP
0380
0340
A238
A038
ENDCHAR
STARTCHAR Alphatonos
ENCODING 902
SWIDTH 576 0
DWIDTH 12 0
BBX 11 15 0 0
BITMAP
0E0000
1D3800
187C00
00BD00
00DE00
01CB00
02C740
038380
0742C0
0B01D0
0FFFE0
1EAAF0
2C00B4
380078
74003C
ENDCHAR
STARTCHAR anoteleia
ENCODING 903
SWIDTH 243 0
DWIDTH 5 0
BBX 3 2 1 6
BITMAP
74
B4
ENDCHAR
STARTCHAR Epsilontonos
ENCODING 904
SWIDTH 496 0
DWIDTH 10 0
BBX 12 15 -2 0
BITMAP
740000
B1FFFC
91EAA8
01D000
01D000
01D000
01D000
01FFF4
01EAA4
01D000
01D000
01D000
01D000
01EAA8
01FFFD
ENDCHAR
STARTCHAR Etatonos
ENCODING 905
SWIDTH 620 0
DWIDTH 12 0
BBX 13 15 -2 0
BITMAP
74000000
71D003C0
61D003C0
01D003C0
01D003C0
01D003C0
01D003C0
01FFFFC0
01EAABC0
01D003C0
01D003C0
01D003C0
01D003C0
01D003C0
01D003C0
ENDCHAR
STARTCHAR Iotatonos
ENCODING 906
SWIDTH 250 0
DWIDTH 5 0
BBX 6 15 -2 0
BITMAP
7400
71D0
61D0
01D0
01D0
01D0
01D0
01D0
01D0
01D0
01D0
01D0
01D0
01D0
01D0
ENDCHAR
STARTCHAR Omicrontonos
ENCODING 908
SWIDTH 610 0
DWIDTH 12 0
BBX 11 15 0 0
BITMAP
E00000
D1BE40
87EBE0
0F40B4
1E0038
1D003C
2D002C
2D002C
2D002C
2D002C
1D003C
1E0038
0F40B4
07EBE0
01BF40
ENDCHAR
STARTCHAR Upsilontonos
ENCODING 910
SWIDTH 573 0
DWIDTH 11 0
BBX 13 15 -2 0
BITMAP
B0000000
A1E003C0
90F00740
00B40F00
00381E00
002D2C00
001E3800
000BB000
0007E000
0002D000
0002C000
0002C000
0002C000
0002C000
0002C000
ENDCHAR
STARTCHAR Omegatonos
ENCODING 911
SWIDTH 591 0
DWIDTH 12 0
BBX 11 15 0 0
BITMAP
E00000
D1BE00
87EBC0
0F01E0
1E00B0
2D0074
2C0074
2C0078
2C0078
2D0074
1D0074
0E00B0
0B01D0
1BD7E4
2FDBF4
ENDCHAR
STARTCHAR iotadieresistonos
ENCODING 912
SWIDTH 299 0
DWIDTH 6 0
BBX 7 17 -1 0
BITMAP
02C0
0280
726C
702C
0000
0000
0380
0380
0380
0380
0380
0380
0380
0380
0380
03E0
01F0
ENDCHAR
STARTCHAR Alpha
ENCODING 913
SWIDTH 576 0
DWIDTH 12 0
BBX 11 14 0 0
BITMAP
003800
007C00
00BD00
00DE00
01CB00
02C740
038380
0742C0
0B01D0
0FFFE0
1EAAF0
2C00B4
380078
74003C
ENDCHAR
STARTCHAR Beta
ENCODING 914
SWIDTH 545 0
DWIDTH 11 0
BBX 9 14 1 0
BITMAP
7FF800
7AAF00
740B40
740740
740740
741F00
7FFC00
7AAE00
740740
740380
740380
740780
7AAF00
7FF800
ENDCHAR
STARTCHAR Gamma
ENCODING 915
SWIDTH 487 0
DWIDTH 10 0
BBX 8 14 1 0
BITMAP
7FFF
7AAA
7400
7400
7400
7400
7400
7400
7400
7400
7400
7400
7400
7400
ENDCHAR
STARTCHAR Delta.dup1
ENCODING 916
SWIDTH 614 0
DWIDTH 12 0
BBX 12 14 0 0
BITMAP
002D00
003E00
007F00
00BB40
01E780
02D3C0
03C2D0
0741E0
0B00F0
0E00B4
1D0078
2C003C
3EAABD
7FFFFE
ENDCHAR
STARTCHAR Epsilon
ENCODING 917
SWIDTH 496 0
DWIDTH 10 0
BBX 9 14 1 0
BITMAP
7FFF00
7AAA00
740000
740000
740000
740000
7FFD00
7AA900
740000
740000
740000
740000
7AAA00
7FFF40
ENDCHAR
STARTCHAR Zeta
ENCODING 918
SWIDTH 522 0
DWIDTH 10 0
BBX 9 14 1 0
BITMAP
FFFF40
AAAF40
001E00
002C00
007800
00F000
02D000
038000
0B4000
1E0000
3C0000
740000
FAAA40
FFFF80
ENDCHAR
STARTCHAR Eta
ENCODING 919
SWIDTH 620 0
DWIDTH 12 0
BBX 10 14 1 0
BITMAP
7400F0
7400F0
7400F0
7400F0
7400F0
7400F0
7FFFF0
7AAAF0
7400F0
7400F0
7400F0
7400F0
7400F0
7400F0
ENDCHAR
STARTCHAR Theta
ENCODING 920
SWIDTH 593 0
DWIDTH 12 0
BBX 10 14 1 0
BITMAP
06F800
1FAF40
3C0780
B402D0
B001D0
F000E0
E3FCE0
E154E0
F000E0
B001E0
B402D0
3C0780
1FAF40
06F800
ENDCHAR
STARTCHAR Iota
ENCODING 921
SWIDTH 250 0
DWIDTH 5 0
BBX 3 14 1 0
BITMAP
74
74
74
74
74
74
74
74
74
74
74
74
74
74
ENDCHAR
STARTCHAR Kappa
ENCODING 922
SWIDTH 544 0
DWIDTH 11 0
BBX 10 14 1 0
BITMAP
7403C0
740B40
742E00
747800
74F000
76D000
7BC000
7FE000
7CB400
743C00
741E00
740B40
7407C0
7402E0
ENDCHAR
STARTCHAR Lambda
ENCODING 923
SWIDTH 572 0
DWIDTH 11 0
BBX 11 14 0 0
BITMAP
007800
00BC00
00FD00
01EE00
02DF00
02CB40
038740
074380
0B02C0
0E01D0
1D00E0
2D00F0
3C00B4
780078
ENDCHAR
STARTCHAR Mu
ENCODING 924
SWIDTH 755 0
DWIDTH 15 0
BBX 13 14 1 0
BITMAP
7C000F80
7D001F80
7E002F80
7F003F80
7B407B80
7780B780
76C0E380
75D1D780
74E2C780
74B28780
74774780
743F0780
742E0780
741D0780
ENDCHAR
STARTCHAR Nu
ENCODING 925
SWIDTH 619 0
DWIDTH 12 0
BBX 10 14 1 0
BITMAP
7800E0
7C00E0
7E00E0
7F40E0
7780E0
75D0E0
74E0E0
7474E0
7438E0
741DE0
740BE0
7407E0
7402E0
7401E0
ENDCHAR
STARTCHAR Xi
ENCODING 926
SWIDTH 502 0
DWIDTH 10 0
BBX 8 14 1 0
BITMAP
BFFE
6AA9
0000
0000
0000
0000
3FFD
2AA8
0000
0000
0000
0000
6AA9
BFFF
ENDCHAR
STARTCHAR Omicron
ENCODING 927
SWIDTH 600 0
DWIDTH 12 0
BBX 10 14 1 0
BITMAP
06F900
1FAF40
3C03C0
7401D0
B000E0
B000E0
B000E0
B000E0
B000E0
B000E0
7401D0
3C03C0
1FAF40
06F900
ENDCHAR
STARTCHAR Pi
ENCODING 928
SWIDTH 620 0
DWIDTH 12 0
BBX 10 14 1 0
BITMAP
7FFFE0
7AAAE0
7400E0
7400E0
7400E0
7400E0
7400E0
7400E0
7400E0
7400E0
7400E0
7400E0
7400E0
7400E0
ENDCHAR
STARTCHAR Rho
ENCODING 929
SWIDTH 554 0
DWIDTH 11 0
BBX 10 14 1 0
BITMAP
7FF900
7AAF40
7403C0
7402D0
7402D0
7402D0
740780
7FFF40
7AA400
740000
740000
740000
740000
740000
ENDCHAR
STARTCHAR Sigma
ENCODING 931
SWIDTH 502 0
DWIDTH 10 0
BBX 10 14 0 0
BITMAP
7FFFC0
3EAA40
1E0000
0B4000
03C000
01E000
00B400
00B400
01E000
03C000
0B4000
1E0000
3EAA80
7FFFD0
ENDCHAR
STARTCHAR Tau
ENCODING 932
SWIDTH 520 0
DWIDTH 10 0
BBX 10 14 0 0
BITMAP
7FFFF0
6AFA90
00B000
00B000
00B000
00B000
00B000
00B000
00B000
00B000
00B000
00B000
00B000
00B000
ENDCHAR
STARTCHAR Upsilon
ENCODING 933
SWIDTH 524 0
DWIDTH 10 0
BBX 10 14 0 0
BITMAP
7800F0
3C01D0
2D03C0
0E0780
0B4B00
078E00
02ED00
01F800
00B400
00B000
00B000
00B000
00B000
00B000
ENDCHAR
STARTCHAR Phi
ENCODING 934
SWIDTH 621 0
DWIDTH 12 0
BBX 12 14 0 0
BITMAP
002C00
002C00
02FF90
0BBEF4
2D2C3C
3C2C1D
382C1E
782C0E
382C1E
2C2C2D
1E6D78
07FFE0
006E40
002C00
ENDCHAR
STARTCHAR Chi
ENCODING 935
SWIDTH 550 0
DWIDTH 11 0
BBX 9 14 1 0
BITMAP
F003C0
780B40
3C0F00
1E1D00
0B3C00
07B400
02F000
02F000
07B400
0F3C00
1D1E00
3C0F00
B80780
F003C0
ENDCHAR
STARTCHAR Psi
ENCODING 936
SWIDTH 600 0
DWIDTH 12 0
BBX 11 14 0 0
BITMAP
78382C
78382C
78382C
78382C
78382C
38382C
38383C
2D3878
1F79F0
07FFD0
00BD00
003800
003800
003800
ENDCHAR
STARTCHAR Omega.dup2
ENCODING 937
SWIDTH 581 0
DWIDTH 12 0
BBX 10 14 1 0
BITMAP
06F800
1FAE00
380780
B403C0
B002D0
F002D0
F001D0
F001D0
B002D0
B002C0
740380
2C0740
6F2E80
FF6FD0
ENDCHAR
STARTCHAR Iotadieresis
ENCODING 938
SWIDTH 250 0
DWIDTH 5 0
BBX 7 17 -1 0
BITMAP
7478
7474
0000
0740
0740
0740
0740
0740
0740
0740
0740
0740
0740
0740
0740
0740
0740
ENDCHAR
STARTCHAR Upsilondieresis
ENCODING 939
SWIDTH 524 0
DWIDTH 10 0
BBX 10 17 0 0
BITMAP
0B0740
0B0740
000000
7800F0
3C01D0
2D03C0
0E0780
0B4B00
078E00
02ED00
01F800
00B400
00B000
00B000
00B000
00B000
00B000
ENDCHAR
STARTCHAR alphatonos
ENCODING 940
SWIDTH 494 0
DWIDTH 10 0
BBX 9 16 1 0
BITMAP
00E000
00D000
018000
000000
000000
1B9E00
3EBE00
B42E00
B01E00
E01E00
E01E00
E01E00
F01E00
B42E00
3EBF40
1B9B40
ENDCHAR
STARTCHAR epsilontonos
ENCODING 941
SWIDTH 470 0
DWIDTH 9 0
BBX 8 16 1 0
BITMAP
02C0
0280
0240
0000
0000
1FE0
BABC
B019
B400
2FD0
7940
F000
E004
F02D
7EBC
1BE0
ENDCHAR
STARTCHAR etatonos
ENCODING 942
SWIDTH 498 0
DWIDTH 10 0
BBX 8 20 1 -4
BITMAP
01D0
02C0
0180
0000
0000
B6E4
BEBC
B41D
B01D
B01E
B01E
B01E
B01E
B01E
B01E
B01E
001E
001E
001E
001E
ENDCHAR
STARTCHAR iotatonos
ENCODING 943
SWIDTH 299 0
DWIDTH 6 0
BBX 3 16 2 0
BITMAP
70
A0
90
00
00
E0
E0
E0
E0
E0
E0
E0
E0
E0
F8
7C
ENDCHAR
STARTCHAR upsilondieresistonos
ENCODING 944
SWIDTH 480 0
DWIDTH 10 0
BBX 8 17 1 0
BITMAP
02C0
0380
B26C
B028
0000
0000
B03C
B02C
B01D
B01D
B00E
B00E
B01E
B01D
743C
3EB4
1BD0
ENDCHAR
STARTCHAR alpha
ENCODING 945
SWIDTH 494 0
DWIDTH 10 0
BBX 9 11 1 0
BITMAP
1B9E00
3EBE00
B42E00
B01E00
E01E00
E01E00
E01E00
F01E00
B42E00
3EBF40
1B9B40
ENDCHAR
STARTCHAR beta
ENCODING 946
SWIDTH 517 0
DWIDTH 10 0
BBX 9 18 1 -4
BITMAP
0BE400
2EBC00
781E00
740E00
B40E00
B42D00
B6F800
B56D00
B40F00
B40B40
B40B40
B40F00
BEAE00
BAF400
B40000
B40000
B40000
B40000
ENDCHAR
STARTCHAR gamma
ENCODING 947
SWIDTH 444 0
DWIDTH 9 0
BBX 9 15 0 -4
BITMAP
740740
380B00
2C0E00
1D1D00
0E2C00
0B3800
077400
03F000
03F000
02E000
01D000
01D000
01D000
01D000
01D000
ENDCHAR
STARTCHAR delta
ENCODING 948
SWIDTH 498 0
DWIDTH 10 0
BBX 8 15 1 0
BITMAP
0BE4
2EA4
3800
2D00
1F80
1BF4
387D
B01E
F00E
E00B
E00F
B00E
B41D
3EBC
0BE0
ENDCHAR
STARTCHAR epsilon
ENCODING 949
SWIDTH 470 0
DWIDTH 9 0
BBX 8 11 1 0
BITMAP
1FE0
BABC
B019
B400
2FD0
7940
F000
E004
F02D
7EBC
1BE0
ENDCHAR
STARTCHAR zeta
ENCODING 950
SWIDTH 462 0
DWIDTH 9 0
BBX 8 18 1 -4
BITMAP
BFFD
557C
0074
00E0
02C0
0740
0E00
2D00
3800
3800
7800
3800
2E40
0BF4
0078
0038
0074
0060
ENDCHAR
STARTCHAR eta
ENCODING 951
SWIDTH 498 0
DWIDTH 10 0
BBX 8 15 1 -4
BITMAP
B6E4
BEBC
B41D
B01D
B01E
B01E
B01E
B01E
B01E
B01E
B01E
001E
001E
001E
001E
ENDCHAR
STARTCHAR theta
ENCODING 952
SWIDTH 496 0
DWIDTH 10 0
BBX 8 14 1 0
BITMAP
0BE0
2EB8
742D
B01E
B00E
F00E
FFFE
F55E
F00E
B00E
B41D
782D
2EB8
0BE0
ENDCHAR
STARTCHAR iota
ENCODING 953
SWIDTH 299 0
DWIDTH 6 0
BBX 3 11 2 0
BITMAP
E0
E0
E0
E0
E0
E0
E0
E0
E0
F8
7C
ENDCHAR
STARTCHAR kappa
ENCODING 954
SWIDTH 491 0
DWIDTH 10 0
BBX 8 11 1 0
BITMAP
B42E
B478
B4F0
B6D0
BF40
BB80
B6D0
B4F0
B478
B42D
B41F
ENDCHAR
STARTCHAR lambda
ENCODING 955
SWIDTH 485 0
DWIDTH 10 0
BBX 9 15 0 0
BITMAP
1E0000
1B4000
078000
03C000
02D000
02E000
03F000
07F400
0B7800
0B3C00
0E2D00
1D1E00
2C0F00
380780
7802C0
ENDCHAR
STARTCHAR uni03BC
ENCODING 956
SWIDTH 498 0
DWIDTH 10 0
BBX 8 15 1 -4
BITMAP
B01E
B01E
B01E
B01E
B01E
B01E
B41E
B41E
B41E
BEBE
BBDE
B000
B000
B000
B000
ENDCHAR
STARTCHAR nu
ENCODING 957
SWIDTH 427 0
DWIDTH 9 0
BBX 8 11 0 0
BITMAP
740B
380E
281D
2C2C
1D28
0E34
0B74
07B0
03E0
02D0
02C0
ENDCHAR
STARTCHAR xi
ENCODING 958
SWIDTH 431 0
DWIDTH 9 0
BBX 7 18 1 -4
BITMAP
0BF4
3EA4
7400
7400
3900
0BF0
2E90
7400
F000
E000
E000
B400
7D00
1FE0
01B8
002C
0038
0060
ENDCHAR
STARTCHAR omicron
ENCODING 959
SWIDTH 501 0
DWIDTH 10 0
BBX 8 11 1 0
BITMAP
0BE0
3EBC
B41E
F00F
E00B
E00B
E00B
F00B
B41E
3EBC
0BE4
ENDCHAR
STARTCHAR pi
ENCODING 960
SWIDTH 520 0
DWIDTH 10 0
BBX 10 11 0 0
BITMAP
BFFFE0
6EAB90
0E0740
0E0740
0E0740
0E0740
0E0740
0E0740
0E0740
0E03E0
0E02E0
ENDCHAR
STARTCHAR rho
ENCODING 961
SWIDTH 498 0
DWIDTH 10 0
BBX 8 15 1 -4
BITMAP
0BE0
2EBC
781D
740E
B00F
B00B
B00F
B00E
B41D
BEBC
B7E4
B000
B000
B000
B000
ENDCHAR
STARTCHAR sigma1
ENCODING 962
SWIDTH 472 0
DWIDTH 9 0
BBX 8 15 1 -4
BITMAP
0BE0
3EB8
742C
B01D
E000
E000
E000
B000
7800
2F40
06F4
0078
0038
0074
0060
ENDCHAR
STARTCHAR sigma
ENCODING 963
SWIDTH 498 0
DWIDTH 10 0
BBX 9 11 1 0
BITMAP
0BFF80
3EBA40
741D00
B00E00
E00F00
E00B00
E00F00
B00E00
741D00
3EB800
0BE000
ENDCHAR
STARTCHAR tau
ENCODING 964
SWIDTH 460 0
DWIDTH 9 0
BBX 8 11 1 0
BITMAP
FFFD
5B94
0740
0740
0740
0740
0740
0740
0740
03E0
02E0
ENDCHAR
STARTCHAR upsilon
ENCODING 965
SWIDTH 480 0
DWIDTH 10 0
BBX 8 11 1 0
BITMAP
B03C
B02C
B01D
B01D
B00E
B00E
B01E
B01D
743C
3EB4
1BD0
ENDCHAR
STARTCHAR phi
ENCODING 966
SWIDTH 617 0
DWIDTH 12 0
BBX 11 16 1 -5
BITMAP
242E40
78BBD0
B0B0F0
E0B0B4
E0B074
E0B074
E0B074
F0B0B4
78B1E0
2FFBD0
07FE00
00B000
00B000
00B000
00B000
00B000
ENDCHAR
STARTCHAR chi
ENCODING 967
SWIDTH 438 0
DWIDTH 9 0
BBX 9 15 0 -4
BITMAP
780B40
6D0E00
0B1D00
076C00
03B800
02F400
01F000
01E000
02F000
03F400
077800
0F2C00
1E1E00
2C0B80
380280
ENDCHAR
STARTCHAR psi
ENCODING 968
SWIDTH 612 0
DWIDTH 12 0
BBX 11 16 1 -5
BITMAP
E0F0E0
E0F0F0
E0F0B4
E0F074
E0F074
E0F074
E0F074
B0F0B0
78F1E0
2EFBC0
07FE00
00F000
00F000
00F000
00F000
00F000
ENDCHAR
STARTCHAR omega
ENCODING 969
SWIDTH 711 0
DWIDTH 14 0
BBX 12 11 1 0
BITMAP
3C002C
78001D
B4000E
B02C0F
B02C0B
F02C0B
B02C0B
B03C0F
747D1E
3EEBBD
1B82F4
ENDCHAR
STARTCHAR iotadieresis
ENCODING 970
SWIDTH 299 0
DWIDTH 6 0
BBX 7 15 -1 0
BITMAP
7838
7838
0000
0000
0380
0380
0380
0380
0380
0380
0380
0380
0380
03E0
01F0
ENDCHAR
STARTCHAR upsilondieresis
ENCODING 971
SWIDTH 480 0
DWIDTH 10 0
BBX 8 15 1 0
BITMAP
7438
7438
0000
0000
B03C
B02C
B01D
B01D
B00E
B00E
B01E
B01D
743C
3EB4
1BD0
ENDCHAR
STARTCHAR omicrontonos
ENCODING 972
SWIDTH 501 0
DWIDTH 10 0
BBX 8 16 1 0
BITMAP
01D0
02C0
0180
0000
0000
0BE0
3EBC
B41E
F00F
E00B
E00B
E00B
F00B
B41E
3EBC
0BE4
ENDCHAR
STARTCHAR upsilontonos
ENCODING 973
SWIDTH 480 0
DWIDTH 10 0
BBX 8 16 1 0
BITMAP
02C0
0280
0240
0000
0000
B03C
B02C
B01D
B01D
B00E
B00E
B01E
B01D
743C
3EB4
1BD0
ENDCHAR
STARTCHAR omegatonos
ENCODING 974
SWIDTH 711 0
DWIDTH 14 0
BBX 12 16 1 0
BITMAP
000D00
001C00
001800
000000
000000
3C002C
78001D
B4000E
B02C0F
B02C0B
F02C0B
B02C0B
B03C0F
747D1E
3EEBBD
1B82F4
ENDCHAR
STARTCHAR theta1
ENCODING 977
SWIDTH 507 0
DWIDTH 10 0
BBX 9 14 1 0
BITMAP
02E400
0BBC00
0E1D00
0E1D00
0E1E00
0B5E00
57DE00
F1FF80
F01E40
F01E00
B01D00
B42D00
3EB800
1BE000
ENDCHAR
STARTCHAR Upsilon1
ENCODING 978
SWIDTH 465 0
DWIDTH 9 0
BBX 10 14 0 0
BITMAP
F402D0
B80780
2D0B00
1E1E00
0F2D00
077800
03F400
02F000
01E000
01E000
01E000
01E000
01E000
01E000
ENDCHAR
STARTCHAR omega1
ENCODING 982
SWIDTH 678 0
DWIDTH 14 0
BBX 12 11 1 0
BITMAP
FFFFFF
BAAABD
74002C
B0002D
B0381D
B0381D
B0381D
B0381D
747C2C
3EDAB8
1F82E0
ENDCHAR
STARTCHAR uni0400
ENCODING 1024
SWIDTH 496 0
DWIDTH 10 0
BBX 9 18 1 0
BITMAP
1E0000
078000
028000
000000
7FFF00
7AAA00
740000
740000
740000
740000
7FFD00
7AA900
740000
740000
740000
740000
7AAA00
7FFF40
ENDCHAR
STARTCHAR uni0401
ENCODING 1025
SWIDTH 496 0
DWIDTH 10 0
BBX 9 17 1 0
BITMAP
2C1D00
2C1D00
000000
7FFF00
7AAA00
740000
740000
740000
740000
7FFD00
7AA900
740000
740000
740000
740000
7AAA00
7FFF40
ENDCHAR
STARTCHAR uni0402
ENCODING 1026
SWIDTH 650 0
DWIDTH 13 0
BBX 13 14 0 0
BITMAP
BFFFE000
6AFA9000
00E00000
00E00000
00E00000
00FBE400
00FABD00
00E01F00
00E00B00
00E00B40
00E00B00
00E00F00
00E0BD00
00E0E400
ENDCHAR
STARTCHAR uni0403
ENCODING 1027
SWIDTH 487 0
DWIDTH 10 0
BBX 8 18 1 0
BITMAP
007C
00F4
01D0
0000
7FFF
7AAA
7400
7400
7400
7400
7400
7400
7400
7400
7400
7400
7400
7400
ENDCHAR
STARTCHAR uni0404
ENCODING 1028
SWIDTH 589 0
DWIDTH 12 0
BBX 10 14 1 0
BITMAP
06F900
1FAF40
3C03C0
7402D0
B00190
B00000
BFF800
BAA400
B00000
B40190
7402D0
3C03C0
1FAF40
06F900
ENDCHAR
STARTCHAR uni0405
ENCODING 1029
SWIDTH 518 0
DWIDTH 10 0
BBX 9 14 1 0
BITMAP
0BE400
3EBE00
B40B00
B00740
B40100
7D0000
1FE000
02FD00
001F00
500740
E00780
B40B40
7EAE00
0BF800
ENDCHAR
STARTCHAR uni0406
ENCODING 1030
SWIDTH 250 0
DWIDTH 5 0
BBX 3 14 1 0
BITMAP
74
74
74
74
74
74
74
74
74
74
74
74
74
74
ENDCHAR
STARTCHAR uni0407
ENCODING 1031
SWIDTH 250 0
DWIDTH 5 0
BBX 7 17 -1 0
BITMAP
7478
7474
0000
0740
0740
0740
0740
0740
0740
0740
0740
0740
0740
0740
0740
0740
0740
ENDCHAR
STARTCHAR uni0408
ENCODING 1032
SWIDTH 483 0
DWIDTH 10 0
BBX 9 14 0 0
BITMAP
000B40
000B40
000B40
000B40
000B40
000B40
000B40
000B40
000B40
000B40
740B40
380F00
2EBD00
0BF400
ENDCHAR
STARTCHAR uni0409
ENCODING 1033
SWIDTH 923 0
DWIDTH 18 0
BBX 18 14 0 0
BITMAP
03FFF80000
03EAB80000
03C0380000
0380380000
0380380000
03803FFE00
03803EAB80
03803802D0
03803801E0
07803800E0
07403801E0
0B003802D0
6E003EAB80
78003FFE00
ENDCHAR
STARTCHAR uni040A
ENCODING 1034
SWIDTH 927 0
DWIDTH 19 0
BBX 17 14 1 0
BITMAP
7400E00000
7400E00000
7400E00000
7400E00000
7400E00000
7400E00000
7FFFFFF800
7AAAFAAF00
7400E00B40
7400E00380
7400E00380
7400E00B40
7400FAAF00
7400FFF800
ENDCHAR
STARTCHAR uni040B
ENCODING 1035
SWIDTH 705 0
DWIDTH 14 0
BBX 13 14 0 0
BITMAP
7FFFF000
2AFAA000
00E00000
00E00000
00E00000
00FBF800
00FAAE00
00E00B40
00E00740
00E00740
00E00740
00E00740
00E00740
00E00740
ENDCHAR
STARTCHAR uni040C
ENCODING 1036
SWIDTH 544 0
DWIDTH 11 0
BBX 10 18 1 0
BITMAP
007800
00F000
01C000
000000
7403C0
740B40
742E00
747800
74F000
76D000
7BC000
7FE000
7CB400
743C00
741E00
740B40
7407C0
7402E0
ENDCHAR
STARTCHAR uni040D
ENCODING 1037
SWIDTH 619 0
DWIDTH 12 0
BBX 10 18 1 0
BITMAP
078000
02D000
00A000
000000
7401E0
7402E0
7407E0
740AE0
741DE0
7428E0
7470E0
74A0E0
75C0E0
7680E0
7B00E0
7E00E0
7C00E0
7800E0
ENDCHAR
STARTCHAR uni040E
ENCODING 1038
SWIDTH 547 0
DWIDTH 11 0
BBX 9 18 1 0
BITMAP
1D5D00
07F400
000000
000000
F003C0
B40780
380B40
2C0F00
1D1E00
0F2D00
0B7C00
07B800
03F400
01F000
01E000
02C000
1B8000
2E0000
ENDCHAR
STARTCHAR uni040F
ENCODING 1039
SWIDTH 621 0
DWIDTH 12 0
BBX 10 18 1 -4
BITMAP
7400E0
7400E0
7400E0
7400E0
7400E0
7400E0
7400E0
7400E0
7400E0
7400E0
7400E0
7400E0
7AAAE0
7FFFE0
00B000
00B000
00B000
00B000
ENDCHAR
STARTCHAR uni0410
ENCODING 1040
SWIDTH 576 0
DWIDTH 12 0
BBX 11 14 0 0
BITMAP
003800
007C00
00BD00
00DE00
01CB00
02C740
038380
0742C0
0B01D0
0FFFE0
1EAAF0
2C00B4
380078
74003C
ENDCHAR
STARTCHAR uni0411
ENCODING 1041
SWIDTH 549 0
DWIDTH 11 0
BBX 10 14 1 0
BITMAP
BFFF00
BAA900
B40000
B40000
B40000
B40000
BFF900
BAAF40
B403C0
B402D0
B402D0
B403C0
BAAF40
BFF900
ENDCHAR
STARTCHAR uni0412
ENCODING 1042
SWIDTH 545 0
DWIDTH 11 0
BBX 9 14 1 0
BITMAP
7FF800
7AAF00
740B40
740740
740740
741F00
7FFC00
7AAE00
740740
740380
740380
740780
7AAF00
7FF800
ENDCHAR
STARTCHAR uni0413
ENCODING 1043
SWIDTH 487 0
DWIDTH 10 0
BBX 8 14 1 0
BITMAP
7FFF
7AAA
7400
7400
7400
7400
7400
7400
7400
7400
7400
7400
7400
7400
ENDCHAR
STARTCHAR uni0414
ENCODING 1044
SWIDTH 660 0
DWIDTH 13 0
BBX 13 18 0 -4
BITMAP
01FFFC00
02EABC00
02D03C00
02D03C00
02C03C00
02C03C00
02C03C00
03C03C00
03803C00
07803C00
0B403C00
0F003C00
6EAABE40
7FFFFF80
74000780
74000780
74000780
74000780
ENDCHAR
STARTCHAR uni0415
ENCODING 1045
SWIDTH 496 0
DWIDTH 10 0
BBX 9 14 1 0
BITMAP
7FFF00
7AAA00
740000
740000
740000
740000
7FFD00
7AA900
740000
740000
740000
740000
7AAA00
7FFF40
ENDCHAR
STARTCHAR uni0416
ENCODING 1046
SWIDTH 791 0
DWIDTH 16 0
BBX 16 14 0 0
BITMAP
3C03C03C
1E03C0B4
0F03C0E0
0783C2D0
02C3C380
01E3CB40
00BFFE00
01FBEF00
02D3C780
07C3C3D0
0B43C1E0
1F03C0F4
2D03C078
7C03C03D
ENDCHAR
STARTCHAR uni0417
ENCODING 1047
SWIDTH 517 0
DWIDTH 10 0
BBX 9 14 1 0
BITMAP
1BE400
7EBE00
B40F00
A00B40
000B40
001E00
03F800
02AE00
000B40
000740
E00740
F40B40
7EBE00
1BE400
ENDCHAR
STARTCHAR uni0418
ENCODING 1048
SWIDTH 619 0
DWIDTH 12 0
BBX 10 14 1 0
BITMAP
7401E0
7402E0
7407E0
740AE0
741DE0
7428E0
7470E0
74A0E0
75C0E0
7680E0
7B00E0
7E00E0
7C00E0
7800E0
ENDCHAR
STARTCHAR uni0419
ENCODING 1049
SWIDTH 619 0
DWIDTH 12 0
BBX 10 18 1 0
BITMAP
0B5B00
02F900
000000
000000
7401E0
7402E0
7407E0
740AE0
741DE0
7428E0
7470E0
74A0E0
75C0E0
7680E0
7B00E0
7E00E0
7C00E0
7800E0
ENDCHAR
STARTCHAR uni041A
ENCODING 1050
SWIDTH 560 0
DWIDTH 11 0
BBX 10 14 1 0
BITMAP
7402D0
740B80
741F00
742D00
74B800
75F000
7FD000
7AE000
74B400
743C00
741E00
740B40
7403C0
7401E0
ENDCHAR
STARTCHAR uni041B
ENCODING 1051
SWIDTH 615 0
DWIDTH 12 0
BBX 11 14 0 0
BITMAP
02FFF8
03EAB8
03C038
03C038
038038
038038
038038
038038
038038
078038
074038
0B0038
6E0038
780038
ENDCHAR
STARTCHAR uni041C
ENCODING 1052
SWIDTH 755 0
DWIDTH 15 0
BBX 13 14 1 0
BITMAP
7C000F80
7D001F80
7E002F80
7F003F80
7B407B80
7780B780
76C0E380
75D1D780
74E2C780
74B28780
74774780
743F0780
742E0780
741D0780
ENDCHAR
STARTCHAR uni041D
ENCODING 1053
SWIDTH 620 0
DWIDTH 12 0
BBX 10 14 1 0
BITMAP
7400F0
7400F0
7400F0
7400F0
7400F0
7400F0
7FFFF0
7AAAF0
7400F0
7400F0
7400F0
7400F0
7400F0
7400F0
ENDCHAR
STARTCHAR uni041E
ENCODING 1054
SWIDTH 600 0
DWIDTH 12 0
BBX 10 14 1 0
BITMAP
06F900
1FAF40
3C03C0
7401D0
B000E0
B000E0
B000E0
B000E0
B000E0
B000E0
7401D0
3C03C0
1FAF40
06F900
ENDCHAR
STARTCHAR uni041F
ENCODING 1055
SWIDTH 620 0
DWIDTH 12 0
BBX 10 14 1 0
BITMAP
7FFFE0
7AAAE0
7400E0
7400E0
7400E0
7400E0
7400E0
7400E0
7400E0
7400E0
7400E0
7400E0
7400E0
7400E0
ENDCHAR
STARTCHAR uni0420
ENCODING 1056
SWIDTH 554 0
DWIDTH 11 0
BBX 10 14 1 0
BITMAP
7FF900
7AAF40
7403C0
7402D0
7402D0
7402D0
740780
7FFF40
7AA400
740000
740000
740000
740000
740000
ENDCHAR
STARTCHAR uni0421
ENCODING 1057
SWIDTH 566 0
DWIDTH 11 0
BBX 10 14 1 0
BITMAP
06F900
1FAF40
3C03C0
7402D0
B00190
B00000
B00000
B00000
B00000
B00190
7402D0
3803C0
1FAF40
06F900
ENDCHAR
STARTCHAR uni0422
ENCODING 1058
SWIDTH 520 0
DWIDTH 10 0
BBX 10 14 0 0
BITMAP
7FFFF0
6AFA90
00B000
00B000
00B000
00B000
00B000
00B000
00B000
00B000
00B000
00B000
00B000
00B000
ENDCHAR
STARTCHAR uni0423
ENCODING 1059
SWIDTH 547 0
DWIDTH 11 0
BBX 9 14 1 0
BITMAP
F003C0
B40780
380B40
2C0F00
1D1E00
0F2D00
0B7C00
07B800
03F400
01F000
01E000
02C000
1B8000
2E0000
ENDCHAR
STARTCHAR uni0424
ENCODING 1060
SWIDTH 676 0
DWIDTH 14 0
BBX 12 16 1 -1
BITMAP
003800
003800
06FF80
1EBEF4
783838
B0381D
E0380E
E0380E
E0380E
E0380E
B0381D
783838
1EBEF4
06FF80
003800
003800
ENDCHAR
STARTCHAR uni0425
ENCODING 1061
SWIDTH 550 0
DWIDTH 11 0
BBX 9 14 1 0
BITMAP
F003C0
780B40
3C0F00
1E1D00
0B3C00
07B400
02F000
02F000
07B400
0F3C00
1D1E00
3C0F00
B80780
F003C0
ENDCHAR
STARTCHAR uni0426
ENCODING 1062
SWIDTH 639 0
DWIDTH 13 0
BBX 11 17 1 -3
BITMAP
7400E0
7400E0
7400E0
7400E0
7400E0
7400E0
7400E0
7400E0
7400E0
7400E0
7400E0
7400E0
7AAAF8
7FFFFC
00002C
00002C
00002C
ENDCHAR
STARTCHAR uni0427
ENCODING 1063
SWIDTH 600 0
DWIDTH 12 0
BBX 10 14 1 0
BITMAP
B001D0
B001D0
B001D0
B001D0
B401D0
B401D0
7906D0
2FFFD0
0595D0
0001D0
0001D0
0001D0
0001D0
0001D0
ENDCHAR
STARTCHAR uni0428
ENCODING 1064
SWIDTH 814 0
DWIDTH 16 0
BBX 14 14 1 0
BITMAP
740B00E0
740B00E0
740B00E0
740B00E0
740B00E0
740B00E0
740B00E0
740B00E0
740B00E0
740B00E0
740B00E0
740B00E0
7AAFAAE0
7FFFFFE0
ENDCHAR
STARTCHAR uni0429
ENCODING 1065
SWIDTH 841 0
DWIDTH 17 0
BBX 15 17 1 -3
BITMAP
740B00E0
740B00E0
740B00E0
740B00E0
740B00E0
740B00E0
740B00E0
740B00E0
740B00E0
740B00E0
740B00E0
740B00E0
7AAFAAE4
7FFFFFFC
00000028
00000028
00000028
ENDCHAR
STARTCHAR uni042A
ENCODING 1066
SWIDTH 651 0
DWIDTH 13 0
BBX 13 14 0 0
BITMAP
BFD00000
56D00000
01D00000
01D00000
01D00000
01D00000
01FFE400
01EABE00
01D00F00
01D00B40
01D00B40
01D00F00
01EABD00
01FFE400
ENDCHAR
STARTCHAR uni042B
ENCODING 1067
SWIDTH 755 0
DWIDTH 15 0
BBX 13 14 1 0
BITMAP
74000740
74000740
74000740
74000740
74000740
74000740
7FFD0740
7AAF8740
7402C740
7401D740
7402D740
7403C740
7AAF8740
7FFD0740
ENDCHAR
STARTCHAR uni042C
ENCODING 1068
SWIDTH 551 0
DWIDTH 11 0
BBX 10 14 1 0
BITMAP
B40000
B40000
B40000
B40000
B40000
B40000
BFF900
BAAF40
B403C0
B402D0
B402D0
B403C0
BAAF40
BFF900
ENDCHAR
STARTCHAR uni042D
ENCODING 1069
SWIDTH 589 0
DWIDTH 12 0
BBX 10 14 1 0
BITMAP
06F800
1FAF40
3C07C0
7402D0
6001E0
0000E0
02FFE0
01AAE0
0000E0
6001E0
7402D0
3803C0
1FAF40
06F900
ENDCHAR
STARTCHAR uni042E
ENCODING 1070
SWIDTH 765 0
DWIDTH 15 0
BBX 14 14 1 0
BITMAP
7406F900
742FAF40
747807C0
74B402D0
74F001D0
74E001E0
7FE001E0
79E001E0
74E001E0
74F001D0
74B402D0
747807C0
742FAF40
7406F900
ENDCHAR
STARTCHAR uni042F
ENCODING 1071
SWIDTH 562 0
DWIDTH 11 0
BBX 9 14 1 0
BITMAP
0BFF80
2EAB80
780780
B40780
B40780
740780
3D0780
1FFF80
0BAB80
0F0780
1D0780
3C0780
740780
F00780
ENDCHAR
STARTCHAR uni0430
ENCODING 1072
SWIDTH 479 0
DWIDTH 10 0
BBX 8 11 1 0
BITMAP
1BE0
7EB8
B02C
002D
0BFD
7D6D
B02D
F02D
B02D
7AFD
2F9D
ENDCHAR
STARTCHAR uni0431
ENCODING 1073
SWIDTH 484 0
DWIDTH 10 0
BBX 8 15 1 0
BITMAP
001D
01BC
0BE4
2D00
7400
A7E4
BEBC
F41E
F00E
E00B
E00F
F00E
B41D
3EBC
0BE0
ENDCHAR
STARTCHAR uni0432
ENCODING 1074
SWIDTH 503 0
DWIDTH 10 0
BBX 8 11 1 0
BITMAP
BFE4
B9AD
B40E
B41D
BFF8
B96D
B40F
B40B
B40F
B96D
BFF4
ENDCHAR
STARTCHAR uni0433
ENCODING 1075
SWIDTH 371 0
DWIDTH 7 0
BBX 6 11 1 0
BITMAP
BFF0
BAA0
B400
B400
B400
B400
B400
B400
B400
B400
B400
ENDCHAR
STARTCHAR uni0434
ENCODING 1076
SWIDTH 536 0
DWIDTH 11 0
BBX 10 14 0 -3
BITMAP
03FF80
03EB80
078380
078380
074380
074380
074380
0B0380
0E0380
6E57D0
7FFFF0
7400B0
7400B0
7400B0
ENDCHAR
STARTCHAR uni0435
ENCODING 1077
SWIDTH 468 0
DWIDTH 9 0
BBX 8 11 1 0
BITMAP
1BE0
3EBC
B01D
E01E
FFFE
F555
E000
F000
B404
7EAD
1BE4
ENDCHAR
STARTCHAR uni0436
ENCODING 1078
SWIDTH 662 0
DWIDTH 13 0
BBX 13 11 0 0
BITMAP
3C1D0B40
1D1D1E00
0F1D2C00
075D7800
02FFF000
03EEB400
075D7800
0F1D2C00
1E1D1E00
3C1D0F00
781D0B80
ENDCHAR
STARTCHAR uni0437
ENCODING 1079
SWIDTH 446 0
DWIDTH 9 0
BBX 7 11 1 0
BITMAP
1FD0
7AB4
F038
0078
0FE0
0AB4
0038
502C
E038
B9B4
1F90
ENDCHAR
STARTCHAR uni0438
ENCODING 1080
SWIDTH 509 0
DWIDTH 10 0
BBX 8 11 1 0
BITMAP
B41E
B42E
B47E
B4AE
B4DE
B68E
B74E
BB0E
BD0E
BC0E
B40E
ENDCHAR
STARTCHAR uni0439
ENCODING 1081
SWIDTH 509 0
DWIDTH 10 0
BBX 8 15 1 0
BITMAP
2D6C
0BE0
0000
0000
B41E
B42E
B47E
B4AE
B4DE
B68E
B74E
BB0E
BD0E
BC0E
B40E
ENDCHAR
STARTCHAR uni043A
ENCODING 1082
SWIDTH 479 0
DWIDTH 10 0
BBX 8 11 1 0
BITMAP
B41E
B478
B4F0
B6D0
BF80
BBC0
B5E0
B4B4
B478
B42D
B41F
ENDCHAR
STARTCHAR uni043B
ENCODING 1083
SWIDTH 509 0
DWIDTH 10 0
BBX 9 11 0 0
BITMAP
07FF80
07AB80
0B4380
0B0380
0B0380
0B0380
0B0380
0B0380
0E0380
7D0380
780380
ENDCHAR
STARTCHAR uni043C
ENCODING 1084
SWIDTH 645 0
DWIDTH 13 0
BBX 11 11 1 0
BITMAP
BC00F4
BC01F4
BD02F4
BE03F4
BB07B4
B74B74
B68E74
B5DD74
B4FC74
B4B874
B47474
ENDCHAR
STARTCHAR uni043D
ENCODING 1085
SWIDTH 508 0
DWIDTH 10 0
BBX 8 11 1 0
BITMAP
B40E
B40E
B40E
B40E
BFFE
B95E
B40E
B40E
B40E
B40E
B40E
ENDCHAR
STARTCHAR uni043E
ENCODING 1086
SWIDTH 501 0
DWIDTH 10 0
BBX 8 11 1 0
BITMAP
0BE0
3EBC
B41E
F00F
E00B
E00B
E00B
F00B
B41E
3EBC
0BE4
ENDCHAR
STARTCHAR uni043F
ENCODING 1087
SWIDTH 509 0
DWIDTH 10 0
BBX 8 11 1 0
BITMAP
BFFE
BAAE
B40E
B40E
B40E
B40E
B40E
B40E
B40E
B40E
B40E
ENDCHAR
STARTCHAR uni0440
ENCODING 1088
SWIDTH 493 0
DWIDTH 10 0
BBX 8 15 1 -4
BITMAP
B7F4
BEBD
B41E
B00E
B00F
B00B
B00F
B00E
B41E
BEBD
B7E4
B000
B000
B000
B000
ENDCHAR
STARTCHAR uni0441
ENCODING 1089
SWIDTH 461 0
DWIDTH 9 0
BBX 8 11 1 0
BITMAP
1BE0
7EB8
B01D
E009
E000
E000
E000
E009
B01D
7EB8
1BE0
ENDCHAR
STARTCHAR uni0442
ENCODING 1090
SWIDTH 424 0
DWIDTH 9 0
BBX 8 11 0 0
BITMAP
7FFF
56E5
02C0
02C0
02C0
02C0
02C0
02C0
02C0
02C0
02C0
ENDCHAR
STARTCHAR uni0443
ENCODING 1091
SWIDTH 416 0
DWIDTH 8 0
BBX 8 15 0 -4
BITMAP
B40E
781E
3C2D
2C2C
1D38
0E74
0B70
07E0
03E0
03D0
02C0
0280
0740
2F00
3900
ENDCHAR
STARTCHAR uni0444
ENCODING 1092
SWIDTH 628 0
DWIDTH 13 0
BBX 11 19 1 -4
BITMAP
00B000
00B000
00B000
00B000
1FFF80
3EFAE0
B4B0B0
B0B074
E0B078
E0B038
E0B078
F0B074
B4B0B4
7EFAE0
1FFF80
00B000
00B000
00B000
00B000
ENDCHAR
STARTCHAR uni0445
ENCODING 1093
SWIDTH 438 0
DWIDTH 9 0
BBX 8 11 0 0
BITMAP
380F
2D2D
0E38
0BB4
03E0
02D0
03E0
0B74
1E3C
2D1D
780F
ENDCHAR
STARTCHAR uni0446
ENCODING 1094
SWIDTH 524 0
DWIDTH 10 0
BBX 9 14 1 -3
BITMAP
B40E00
B40E00
B40E00
B40E00
B40E00
B40E00
B40E00
B40E00
B40E00
B95F40
BFFF80
000380
000380
000380
ENDCHAR
STARTCHAR uni0447
ENCODING 1095
SWIDTH 479 0
DWIDTH 10 0
BBX 7 11 1 0
BITMAP
E02C
E02C
E02C
E02C
B02C
B42C
3FFC
056C
002C
002C
002C
ENDCHAR
STARTCHAR uni0448
ENCODING 1096
SWIDTH 703 0
DWIDTH 14 0
BBX 12 11 1 0
BITMAP
B43C0E
B43C0E
B43C0E
B43C0E
B43C0E
B43C0E
B43C0E
B43C0E
B43C0E
B97D6E
BFFFFE
ENDCHAR
STARTCHAR uni0449
ENCODING 1097
SWIDTH 722 0
DWIDTH 14 0
BBX 13 14 1 -3
BITMAP
B0381D00
B0381D00
B0381D00
B0381D00
B0381D00
B0381D00
B0381D00
B0381D00
B0381D00
B97D6E40
BFFFFF80
00000380
00000380
00000380
ENDCHAR
STARTCHAR uni044A
ENCODING 1098
SWIDTH 538 0
DWIDTH 11 0
BBX 10 11 0 0
BITMAP
BF8000
578000
038000
038000
03FF80
03D6E0
0380B0
0380B0
0380B0
03D6E0
03FF80
ENDCHAR
STARTCHAR uni044B
ENCODING 1099
SWIDTH 679 0
DWIDTH 14 0
BBX 11 11 1 0
BITMAP
B4003C
B4003C
B4003C
B4003C
BFE43C
B9BC3C
B41E3C
B40E3C
B41D3C
B9BC3C
BFE43C
ENDCHAR
STARTCHAR uni044C
ENCODING 1100
SWIDTH 478 0
DWIDTH 10 0
BBX 8 11 1 0
BITMAP
B400
B400
B400
B400
BFE4
B9BC
B41E
B40E
B41D
B9BC
BFE4
ENDCHAR
STARTCHAR uni044D
ENCODING 1101
SWIDTH 472 0
DWIDTH 9 0
BBX 8 11 1 0
BITMAP
1F90
7AB4
E03C
001C
07FD
056D
001D
A02C
B038
7AF4
1F90
ENDCHAR
STARTCHAR uni044E
ENCODING 1102
SWIDTH 706 0
DWIDTH 14 0
BBX 13 11 1 0
BITMAP
B40BE400
B43EBC00
B4781E00
B4B00B00
BFF00B40
B9F00740
B4B00B40
B4B00B00
B4381E00
B42EBC00
B40BE400
ENDCHAR
STARTCHAR uni044F
ENCODING 1103
SWIDTH 482 0
DWIDTH 10 0
BBX 9 11 0 0
BITMAP
07FF40
2E5B40
3C0B40
380B40
2D0B40
1FFF40
079B40
0F0B40
1D0B40
3C0B40
780B40
ENDCHAR
STARTCHAR uni0450
ENCODING 1104
SWIDTH 468 0
DWIDTH 9 0
BBX 8 15 1 0
BITMAP
2D00
0F00
0340
0000
1BE0
3EBC
B01D
E01E
FFFE
F555
E000
F000
B404
7EAD
1BE4
ENDCHAR
STARTCHAR uni0451
ENCODING 1105
SWIDTH 468 0
DWIDTH 9 0
BBX 8 15 1 0
BITMAP
7838
3838
0000
0000
1BE0
3EBC
B01D
E01E
FFFE
F555
E000
F000
B404
7EAD
1BE4
ENDCHAR
STARTCHAR uni0452
ENCODING 1106
SWIDTH 482 0
DWIDTH 10 0
BBX 9 20 0 -4
BITMAP
2C0000
2C0000
FFD000
7D4000
2C0000
2DB900
2FAF00
2D0B40
2C0740
2C0740
2C0740
2C0740
2C0740
2C0740
2C0740
2C0740
000740
000740
002F00
007D00
ENDCHAR
STARTCHAR uni0453
ENCODING 1107
SWIDTH 371 0
DWIDTH 7 0
BBX 6 15 1 0
BITMAP
02D0
0B80
0A00
0000
BFF0
BAA0
B400
B400
B400
B400
B400
B400
B400
B400
B400
ENDCHAR
STARTCHAR uni0454
ENCODING 1108
SWIDTH 472 0
DWIDTH 9 0
BBX 8 11 1 0
BITMAP
0BE0
3EB8
741D
B00D
FF80
F540
F000
B009
741D
3EB8
0BE0
ENDCHAR
STARTCHAR uni0455
ENCODING 1109
SWIDTH 455 0
DWIDTH 9 0
BBX 7 11 1 0
BITMAP
1BD0
7EB8
B03C
B404
7E00
1BE0
01B8
502C
F02C
7AB8
1BE0
ENDCHAR
STARTCHAR uni0456
ENCODING 1110
SWIDTH 229 0
DWIDTH 5 0
BBX 2 15 1 0
BITMAP
70
70
00
00
B0
B0
B0
B0
B0
B0
B0
B0
B0
B0
B0
ENDCHAR
STARTCHAR uni0457
ENCODING 1111
SWIDTH 234 0
DWIDTH 5 0
BBX 7 15 -1 0
BITMAP
B474
B474
0000
0000
0B00
0B00
0B00
0B00
0B00
0B00
0B00
0B00
0B00
0B00
0B00
ENDCHAR
STARTCHAR uni0458
ENCODING 1112
SWIDTH 223 0
DWIDTH 4 0
BBX 4 19 -1 -4
BITMAP
0B
0B
00
00
0B
0B
0B
0B
0B
0B
0B
0B
0B
0B
0B
0B
0B
2E
7D
ENDCHAR
STARTCHAR uni0459
ENCODING 1113
SWIDTH 729 0
DWIDTH 15 0
BBX 14 11 0 0
BITMAP
07FF4000
0BAB4000
0B074000
0B074000
0B07FF40
0B079AD0
0B0740E0
0E0740F0
0E0740E0
7D0796D0
7807FE40
ENDCHAR
STARTCHAR uni045A
ENCODING 1114
SWIDTH 743 0
DWIDTH 15 0
BBX 13 11 1 0
BITMAP
B40E0000
B40E0000
B40E0000
B40E0000
BFFFFE00
B95FAB80
B40E02C0
B40E02C0
B40E02C0
B40F5B80
B40FFE00
ENDCHAR
STARTCHAR uni045B
ENCODING 1115
SWIDTH 499 0
DWIDTH 10 0
BBX 9 16 0 0
BITMAP
2C0000
2C0000
BFE000
7D5000
2C0000
2DB900
2FAF00
2D0B40
2C0740
2C0740
2C0740
2C0740
2C0740
2C0740
2C0740
2C0740
ENDCHAR
STARTCHAR uni045C
ENCODING 1116
SWIDTH 479 0
DWIDTH 10 0
BBX 8 15 1 0
BITMAP
00B4
02D0
0280
0000
B41E
B478
B4F0
B6D0
BF80
BBC0
B5E0
B4B4
B478
B42D
B41F
ENDCHAR
STARTCHAR uni045D
ENCODING 1117
SWIDTH 509 0
DWIDTH 10 0
BBX 8 15 1 0
BITMAP
2E00
0B40
0280
0000
B41E
B42E
B47E
B4AE
B4DE
B68E
B74E
BB0E
BD0E
BC0E
B40E
ENDCHAR
STARTCHAR uni045E
ENCODING 1118
SWIDTH 416 0
DWIDTH 8 0
BBX 8 19 0 -4
BITMAP
1D6C
0BE4
0000
0000
B40E
781E
3C2D
2C2C
1D38
0E74
0B70
07E0
03E0
03D0
02C0
0280
0740
2F00
3900
ENDCHAR
STARTCHAR uni045F
ENCODING 1119
SWIDTH 509 0
DWIDTH 10 0
BBX 8 14 1 -3
BITMAP
B40E
B40E
B40E
B40E
B40E
B40E
B40E
B40E
B40E
B95E
BFFE
02C0
02C0
02C0
ENDCHAR
STARTCHAR uni0460
ENCODING 1120
SWIDTH 754 0
DWIDTH 15 0
BBX 13 14 1 0
BITMAP
B41E0380
B41E0380
B41E0380
B41E0380
B41E0380
B41E0380
B41E0380
B41E0380
B41E0380
B41E0380
B41E0380
782F0780
3EBBAF00
1BE1F900
ENDCHAR
STARTCHAR uni0461
ENCODING 1121
SWIDTH 650 0
DWIDTH 13 0
BBX 11 11 1 0
BITMAP
F0742C
F0742C
F0742C
F0742C
F0742C
F0742C
F0742C
B0742C
B0B838
7AFEB4
1F8BD0
ENDCHAR
STARTCHAR uni0462
ENCODING 1122
SWIDTH 551 0
DWIDTH 11 0
BBX 12 14 -1 0
BITMAP
0B4000
0B4000
7FF000
1B9000
0B4000
0B4000
0BFF90
0BAAF4
0B403C
0B402D
0B402D
0B403C
0BAAF4
0BFF90
ENDCHAR
STARTCHAR uni0463
ENCODING 1123
SWIDTH 477 0
DWIDTH 10 0
BBX 9 15 0 0
BITMAP
2C0000
2C0000
2C0000
FFE000
6E5000
2C0000
2C0000
2C0000
2FF900
2E6F00
2C0740
2C0380
2C0740
2E6F00
2FF900
ENDCHAR
STARTCHAR uni0464
ENCODING 1124
SWIDTH 772 0
DWIDTH 15 0
BBX 13 14 1 0
BITMAP
7406F800
742FAF00
74780780
74B003C0
74F00180
74E00000
7FFFF000
7AE55000
74E00000
74F00180
74B003C0
74780780
742EAF00
7407F800
ENDCHAR
STARTCHAR uni0465
ENCODING 1125
SWIDTH 646 0
DWIDTH 13 0
BBX 11 11 1 0
BITMAP
B01FD0
B0BAB4
B0E038
B1D02C
BFFF80
BAE540
B1D000
B0E018
B0B03C
B07AB4
B01B90
ENDCHAR
STARTCHAR uni0466
ENCODING 1126
SWIDTH 526 0
DWIDTH 11 0
BBX 11 14 0 0
BITMAP
007800
00B800
00FC00
01ED00
02CE00
038B00
078740
074380
0BFFC0
0EBAD0
1D75E0
2C74E0
3874B0
747474
ENDCHAR
STARTCHAR uni0467
ENCODING 1127
SWIDTH 470 0
DWIDTH 9 0
BBX 9 11 0 0
BITMAP
01E000
02F000
03F400
077800
0B2C00
0E1C00
1FFD00
2EEA00
39E700
75E740
B5E380
ENDCHAR
STARTCHAR uni0468
ENCODING 1128
SWIDTH 759 0
DWIDTH 15 0
BBX 14 14 1 0
BITMAP
7800F000
7801F000
7802F400
7803B800
78076C00
780B1D00
780F0E00
781E0B00
7FFFFF40
7ABEFB80
7838E3C0
7874E2C0
78B0E1D0
78F0E0E0
ENDCHAR
STARTCHAR uni0469
ENCODING 1129
SWIDTH 654 0
DWIDTH 13 0
BBX 12 11 1 0
BITMAP
740B40
740F80
741FC0
742DD0
7438E0
7474B0
7FFFF0
7AEBB4
75DB68
76CB6C
77CB5D
ENDCHAR
STARTCHAR uni046A
ENCODING 1130
SWIDTH 747 0
DWIDTH 15 0
BBX 13 14 1 0
BITMAP
1FFFFD00
0BAAB800
0380B400
02D1E000
00E2D000
00BB8000
0BFFF800
3EAEAF00
781D0B40
B41D0780
B01D0780
B01D0780
B01D0780
B01D0780
ENDCHAR
STARTCHAR uni046B
ENCODING 1131
SWIDTH 645 0
DWIDTH 13 0
BBX 11 11 1 0
BITMAP
1FFFD0
0B9B80
078B40
03CF00
01ED00
0BFF80
3EBAE0
7474B4
B47474
B07478
B07478
ENDCHAR
STARTCHAR uni046C
ENCODING 1132
SWIDTH 980 0
DWIDTH 20 0
BBX 18 14 1 0
BITMAP
740BFFFF00
7403EABD00
7401D03C00
7400F0B400
740078F000
74003ED000
7FFFFFF900
796FAFAF80
742D0B03C0
743C0B02D0
74380B02D0
74380B02D0
74380B02D0
74380B02D0
ENDCHAR
STARTCHAR uni046D
ENCODING 1133
SWIDTH 856 0
DWIDTH 17 0
BBX 15 11 1 0
BITMAP
B00FFFD0
B00B9BC0
B0038780
B002DB00
B001EE00
BFFFFF90
B97EBAF0
B0387874
B0747838
B0747838
B0747838
ENDCHAR
STARTCHAR uni046E
ENCODING 1134
SWIDTH 454 0
DWIDTH 9 0
BBX 8 23 0 -4
BITMAP
0A2C
03B4
01D0
0000
0000
2FE0
15BC
001D
001E
001D
006C
0BF0
05B8
001D
000E
000E
001E
05BC
2FE0
7800
3400
2D00
0900
ENDCHAR
STARTCHAR uni046F
ENCODING 1135
SWIDTH 423 0
DWIDTH 8 0
BBX 7 20 1 -4
BITMAP
74D0
2A80
0B00
0000
0000
BF80
6AF0
00B4
00B0
2FD0
16E0
0074
0074
0074
16E0
BF80
E000
E000
B400
2400
ENDCHAR
STARTCHAR uni0470
ENCODING 1136
SWIDTH 600 0
DWIDTH 12 0
BBX 11 14 0 0
BITMAP
78382C
78382C
78382C
78382C
78382C
38382C
38383C
2D3878
1F79F0
07FFD0
00BD00
003800
003800
003800
ENDCHAR
STARTCHAR uni0471
ENCODING 1137
SWIDTH 612 0
DWIDTH 12 0
BBX 11 16 1 -5
BITMAP
E0F0E0
E0F0F0
E0F0B4
E0F074
E0F074
E0F074
E0F074
B0F0B0
78F1E0
2EFBC0
07FE00
00F000
00F000
00F000
00F000
00F000
ENDCHAR
STARTCHAR uni0472
ENCODING 1138
SWIDTH 593 0
DWIDTH 12 0
BBX 10 14 1 0
BITMAP
06F800
1FAF40
380780
B402D0
B001D0
F000E0
FFFFE0
F556E0
F000E0
B001E0
B402D0
3C0780
1FAF40
06F800
ENDCHAR
STARTCHAR uni0473
ENCODING 1139
SWIDTH 497 0
DWIDTH 10 0
BBX 8 11 1 0
BITMAP
0BE0
3EBC
741E
A00B
FFFF
F55F
E00B
B00F
741E
3EBC
0BE0
ENDCHAR
STARTCHAR uni0474
ENCODING 1140
SWIDTH 553 0
DWIDTH 11 0
BBX 11 14 0 0
BITMAP
740074
7800F4
3C01D0
2D02C0
1D03C0
0E0380
0B0740
074B00
038E00
028D00
02DC00
01FC00
00F800
00B400
ENDCHAR
STARTCHAR uni0475
ENCODING 1141
SWIDTH 443 0
DWIDTH 9 0
BBX 9 11 0 0
BITMAP
740780
380F40
2C1D00
1D2C00
0D2C00
0E3800
0B7400
07B000
03E000
02D000
01C000
ENDCHAR
STARTCHAR uni0476
ENCODING 1142
SWIDTH 553 0
DWIDTH 11 0
BBX 11 18 0 0
BITMAP
2DB000
0B7800
029800
000000
740074
7800F4
3C01D0
2D02C0
1D03C0
0E0380
0B0740
074B00
038E00
028D00
02DC00
01FC00
00F800
00B400
ENDCHAR
STARTCHAR uni0477
ENCODING 1143
SWIDTH 443 0
DWIDTH 9 0
BBX 9 15 0 0
BITMAP
7AD000
2DE000
0A6000
000000
740780
380F40
2C1D00
1D2C00
0D2C00
0E3800
0B7400
07B000
03E000
02D000
01C000
ENDCHAR
STARTCHAR uni0478
ENCODING 1144
SWIDTH 1017 0
DWIDTH 20 0
BBX 19 18 1 -4
BITMAP
06F9000000
1FAF400000
3C03C00000
7401D1D038
B000E1E078
B000E0F074
B000E0B0B0
B000E074E0
B000E039D0
B000E02DC0
7401D01F80
3C03C00F80
1FAF400F40
06F9000B00
0000000A00
0000001D00
000000BC00
000000E400
ENDCHAR
STARTCHAR uni0479
ENCODING 1145
SWIDTH 918 0
DWIDTH 18 0
BBX 17 15 1 -4
BITMAP
0BE01D03C0
3EBC1E0780
B41E0F0740
F00F0B0B00
E00B074E00
E00B039D00
E00B02DC00
F00B01FC00
B41E00F800
3EBC00B400
0BE400B000
000000A000
000000D000
00000BC000
00000E4000
ENDCHAR
STARTCHAR uni047A
ENCODING 1146
SWIDTH 593 0
DWIDTH 12 0
BBX 10 17 1 -2
BITMAP
00E000
07F900
1FFF40
3C9780
B402D0
B001E0
F000E0
E000E0
E000E0
F000E0
B001E0
B402D0
3C97C0
1FFF40
07F900
00E000
005000
ENDCHAR
STARTCHAR uni047B
ENCODING 1147
SWIDTH 498 0
DWIDTH 10 0
BBX 8 13 1 -1
BITMAP
03C0
0BE0
3FFC
755D
B00F
E00B
E00B
E00B
B00F
755D
3FFC
0BE4
03C0
ENDCHAR
STARTCHAR uni047C
ENCODING 1148
SWIDTH 752 0
DWIDTH 15 0
BBX 13 19 1 0
BITMAP
00100000
00BE5000
00D6B400
000E0000
000D0000
0A182900
3E001F00
78000740
74000380
B4000380
B4000380
B41D0380
B41D0380
B41D0380
B41D0380
741E0380
782E0740
3EBBAF00
0BE1F900
ENDCHAR
STARTCHAR uni047D
ENCODING 1149
SWIDTH 654 0
DWIDTH 13 0
BBX 11 16 1 0
BITMAP
001000
01FE40
0286D0
002C00
002800
1C24E0
7800B4
B00038
B0002C
B0002C
B0742C
B0742C
B0742C
B0B838
7AFEB4
1F8BE0
ENDCHAR
STARTCHAR uni047E
ENCODING 1150
SWIDTH 754 0
DWIDTH 15 0
BBX 13 17 1 0
BITMAP
02FFF000
001D0000
00000000
B41E0380
B41E0380
B41E0380
B41E0380
B41E0380
B41E0380
B41E0380
B41E0380
B41E0380
B41E0380
B41E0380
782F0780
3EBBAF00
1BE1F900
ENDCHAR
STARTCHAR uni047F
ENCODING 1151
SWIDTH 650 0
DWIDTH 13 0
BBX 11 14 1 0
BITMAP
0BFFC0
007400
000000
F0742C
F0742C
F0742C
F0742C
F0742C
F0742C
F0742C
B0742C
B0B838
7AFEB4
1F8BD0
ENDCHAR
STARTCHAR uni0480
ENCODING 1152
SWIDTH 570 0
DWIDTH 11 0
BBX 9 18 1 -4
BITMAP
06F800
1FAF40
3C0780
B402C0
B00280
F00000
F00000
F00000
F00000
B00000
B40000
380000
2F9000
07E000
00E000
00E000
00E000
00E000
ENDCHAR
STARTCHAR uni0481
ENCODING 1153
SWIDTH 472 0
DWIDTH 9 0
BBX 8 15 1 -4
BITMAP
0BE0
3EB8
742C
B01D
E000
E000
E000
B000
7400
3D40
1B80
0380
0380
0380
0380
ENDCHAR
STARTCHAR uni0482
ENCODING 1154
SWIDTH 547 0
DWIDTH 11 0
BBX 9 13 1 0
BITMAP
000700
000E00
075C00
02F800
007D00
00AB80
51D140
B68000
1F4000
0BD000
1DB400
281000
340000
ENDCHAR
STARTCHAR uni0483
ENCODING 1155
SWIDTH 0 0
DWIDTH 0 0
BBX 7 4 -8 11
BITMAP
0038
BFF8
B000
1000
ENDCHAR
STARTCHAR uni0484
ENCODING 1156
SWIDTH 0 0
DWIDTH 0 0
BBX 7 3 -8 13
BITMAP
0050
17F8
791C
ENDCHAR
STARTCHAR uni0485
ENCODING 1157
SWIDTH 0 0
DWIDTH 0 0
BBX 3 3 -6 13
BITMAP
74
34
18
ENDCHAR
STARTCHAR uni0486
ENCODING 1158
SWIDTH 0 0
DWIDTH 0 0
BBX 3 3 -5 13
BITMAP
74
70
90
ENDCHAR
STARTCHAR uni0488
ENCODING 1160
SWIDTH 0 0
DWIDTH 0 0
BBX 20 17 -15 -3
BITMAP
0000B80000
0001CA0000
07D0000B80
0D70002890
0000000000
0000000000
0000000000
2E000001F8
A34000024D
0000000000
0000000000
0000000000
07D0000B80
0D700028D0
0000000000
0000B80000
0001CA0000
ENDCHAR
STARTCHAR uni0489
ENCODING 1161
SWIDTH 0 0
DWIDTH 0 0
BBX 19 18 -15 -4
BITMAP
0000240000
0000340000
0200700000
0180500640
00D0002D00
0050001000
0000000000
0000000000
A900000290
1A000001B4
0000000000
0000000000
0050001400
01E0001C00
0640140900
0000340600
0000700000
0000600000
ENDCHAR
STARTCHAR uni048A
ENCODING 1162
SWIDTH 666 0
DWIDTH 13 0
BBX 12 22 1 -4
BITMAP
039740
01BE00
000000
000000
7401E0
7402E0
7407E0
740AE0
741DE0
7428E0
7470E0
74A0E0
75C0E0
7680E0
7B00E0
7E00E0
7C00E0
7800FE
00001E
00001D
00002C
000024
ENDCHAR
STARTCHAR uni048B
ENCODING 1163
SWIDTH 550 0
DWIDTH 11 0
BBX 10 19 1 -4
BITMAP
1E5D00
07F400
000000
000000
B41E00
B42E00
B47E00
B4AE00
B4DE00
B68E00
B74E00
BB0E00
BD0E00
BC0E00
B40FE0
0001E0
0001D0
0002C0
000240
ENDCHAR
STARTCHAR uni048C
ENCODING 1164
SWIDTH 551 0
DWIDTH 11 0
BBX 12 14 -1 0
BITMAP
0B4000
0B4000
7FF000
1B9000
0B4000
0B4000
0BFF90
0BAAF4
0B403C
0B402D
0B402D
0B403C
0BAAF4
0BFF90
ENDCHAR
STARTCHAR uni048D
ENCODING 1165
SWIDTH 477 0
DWIDTH 10 0
BBX 9 16 0 0
BITMAP
2C0000
2C0000
FFE000
6E5000
2C0000
2C0000
2C0000
2C0000
2C0000
2FF900
2E6F00
2C0740
2C0380
2C0740
2E6F00
2FF900
ENDCHAR
STARTCHAR uni048E
ENCODING 1166
SWIDTH 557 0
DWIDTH 11 0
BBX 10 14 1 0
BITMAP
7FF900
7AAF40
7403C0
7402D0
7402D0
741FC0
740F80
7FFF80
7A95D0
740040
740000
740000
740000
740000
ENDCHAR
STARTCHAR uni048F
ENCODING 1167
SWIDTH 496 0
DWIDTH 10 0
BBX 8 15 1 -4
BITMAP
B7E4
BEBC
B42D
B00E
B00F
B00B
B00F
B06E
B47D
BEBD
B7EE
B001
B000
B000
B000
ENDCHAR
STARTCHAR uni0490
ENCODING 1168
SWIDTH 479 0
DWIDTH 10 0
BBX 8 18 1 0
BITMAP
0005
000B
000B
000B
BFFF
BAA9
B400
B400
B400
B400
B400
B400
B400
B400
B400
B400
B400
B400
ENDCHAR
STARTCHAR uni0491
ENCODING 1169
SWIDTH 395 0
DWIDTH 8 0
BBX 6 14 1 0
BITMAP
00B0
00B0
00B0
BFF0
BAA0
B000
B000
B000
B000
B000
B000
B000
B000
B000
ENDCHAR
STARTCHAR uni0492
ENCODING 1170
SWIDTH 487 0
DWIDTH 10 0
BBX 9 14 0 0
BITMAP
1FFFC0
1EAA80
1D0000
1D0000
1D0000
1D0000
FFD000
6E5000
1D0000
1D0000
1D0000
1D0000
1D0000
1D0000
ENDCHAR
STARTCHAR uni0493
ENCODING 1171
SWIDTH 371 0
DWIDTH 7 0
BBX 7 11 0 0
BITMAP
2FFC
2EA8
2D00
2D00
2D00
FFD0
6E50
2D00
2D00
2D00
2D00
ENDCHAR
STARTCHAR uni0494
ENCODING 1172
SWIDTH 539 0
DWIDTH 11 0
BBX 9 17 1 -3
BITMAP
7FFF00
7AAA00
740000
740000
740000
740000
7FE400
7ABD00
740F00
740740
740380
740380
740380
740380
000740
002E00
003800
ENDCHAR
STARTCHAR uni0495
ENCODING 1173
SWIDTH 443 0
DWIDTH 9 0
BBX 7 14 1 -3
BITMAP
BFF0
BAA0
B000
B000
BF80
BAF0
B078
B03C
B02C
B02C
B02C
0078
01F0
0180
ENDCHAR
STARTCHAR uni0496
ENCODING 1174
SWIDTH 833 0
DWIDTH 17 0
BBX 17 17 0 -3
BITMAP
3C03C03C00
1E03C0B400
0F03C0E000
0783C2D000
02C3C38000
01E3CB4000
00BFFE0000
01FBEF0000
02D3C78000
07C3C3D000
0B43C1E000
1F03C0F400
2D03C07F40
7C03C03F40
0000000740
0000000740
0000000740
ENDCHAR
STARTCHAR uni0497
ENCODING 1175
SWIDTH 696 0
DWIDTH 14 0
BBX 14 14 0 -3
BITMAP
3C1D0B40
1D1D1E00
0F1D2C00
075D7800
02FFF000
03EEB400
075D7800
0F1D2C00
1E1D1E00
3C1D0FD0
781D0BD0
000001D0
000001D0
000001D0
ENDCHAR
STARTCHAR uni0498
ENCODING 1176
SWIDTH 517 0
DWIDTH 10 0
BBX 9 18 1 -4
BITMAP
1BE400
7EBE00
B40F00
A00B40
000B40
001E00
03F800
02AE00
000B40
000740
E00740
F40B40
7EBE00
1BE400
02C000
02C000
02C000
02C000
ENDCHAR
STARTCHAR uni0499
ENCODING 1177
SWIDTH 446 0
DWIDTH 9 0
BBX 7 15 1 -4
BITMAP
1FD0
7AB4
F038
0078
0FE0
0AB4
0038
502C
E038
B9B4
1FD0
0740
0740
0740
0740
ENDCHAR
STARTCHAR uni049A
ENCODING 1178
SWIDTH 617 0
DWIDTH 12 0
BBX 11 17 1 -3
BITMAP
7402D0
740B80
741F00
742D00
74B800
75F000
7FD000
7AE000
74B400
743C00
741E00
740B40
7403F4
7401F4
000074
000074
000074
ENDCHAR
STARTCHAR uni049B
ENCODING 1179
SWIDTH 524 0
DWIDTH 11 0
BBX 9 14 1 -3
BITMAP
B41E00
B47800
B4F000
B6D000
BF8000
BBC000
B5E000
B4B400
B47800
B42FC0
B41FC0
0002C0
0002C0
0002C0
ENDCHAR
STARTCHAR uni049C
ENCODING 1180
SWIDTH 553 0
DWIDTH 11 0
BBX 10 14 1 0
BITMAP
B402D0
B40780
B40B40
B64E00
B75D00
B77800
BFF400
BBB800
B76D00
B75E00
B40F40
B40780
B403C0
B402E0
ENDCHAR
STARTCHAR uni049D
ENCODING 1181
SWIDTH 498 0
DWIDTH 10 0
BBX 9 11 1 0
BITMAP
B40B40
B41E00
B76C00
B7B400
BFF000
BBF400
B77800
B52D00
B41E00
B40F00
B40B80
ENDCHAR
STARTCHAR uni049E
ENCODING 1182
SWIDTH 570 0
DWIDTH 11 0
BBX 11 14 0 0
BITMAP
1E00B8
1E01F0
FFD3D0
6E5B80
1E1E00
1E3D00
1FF800
1EBC00
1E1E00
1E0B40
1E07C0
1E02E0
1E00F4
1E007C
ENDCHAR
STARTCHAR uni049F
ENCODING 1183
SWIDTH 462 0
DWIDTH 9 0
BBX 10 15 -1 0
BITMAP
074000
BFE000
5B9000
074000
0742D0
074780
074B00
075D00
07F800
07AC00
075E00
074B40
074780
0742D0
0741E0
ENDCHAR
STARTCHAR uni04A0
ENCODING 1184
SWIDTH 710 0
DWIDTH 14 0
BBX 14 14 0 0
BITMAP
7FF403D0
15B40B80
00741F00
00743D00
0074B800
0075F000
007FD000
007AE000
0074B400
00743C00
00741E00
00740B40
007403C0
007401E0
ENDCHAR
STARTCHAR uni04A1
ENCODING 1185
SWIDTH 607 0
DWIDTH 12 0
BBX 12 11 0 0
BITMAP
7FF02D
2AF078
00F1E0
00F3C0
00FF40
00FB80
00F2D0
00F0F0
00F0B4
00F03C
00F01E
ENDCHAR
STARTCHAR uni04A2
ENCODING 1186
SWIDTH 662 0
DWIDTH 13 0
BBX 12 17 1 -3
BITMAP
7400F0
7400F0
7400F0
7400F0
7400F0
7400F0
7FFFF0
7AAAF0
7400F0
7400F0
7400F0
7400F0
7400FD
7400FD
00001D
00001D
00001D
ENDCHAR
STARTCHAR uni04A3
ENCODING 1187
SWIDTH 541 0
DWIDTH 11 0
BBX 10 14 1 -3
BITMAP
B40E00
B40E00
B40E00
B40E00
BFFE00
B95E00
B40E00
B40E00
B40E00
B40FD0
B40FD0
0002D0
0002D0
0002D0
ENDCHAR
STARTCHAR uni04A4
ENCODING 1188
SWIDTH 829 0
DWIDTH 17 0
BBX 15 14 1 0
BITMAP
7400FFF8
7400F554
7400F000
7400F000
7400F000
7400F000
7FFFF000
7AAAF000
7400F000
7400F000
7400F000
7400F000
7400F000
7400F000
ENDCHAR
STARTCHAR uni04A5
ENCODING 1189
SWIDTH 614 0
DWIDTH 12 0
BBX 11 11 1 0
BITMAP
B00FF4
B00EA4
B00E00
B00E00
BFFE00
B96E00
B00E00
B00E00
B00E00
B00E00
B00E00
ENDCHAR
STARTCHAR uni04A6
ENCODING 1190
SWIDTH 880 0
DWIDTH 18 0
BBX 16 17 1 -3
BITMAP
7FFFE000
7AAAE000
7400E000
7400E000
7400E000
7400E000
7400FF90
7400FAF4
7400E03C
7400E02D
7400E01D
7400E01E
7400E01E
7400E01D
0000002C
000001B8
000001E0
ENDCHAR
STARTCHAR uni04A7
ENCODING 1191
SWIDTH 755 0
DWIDTH 15 0
BBX 14 14 1 -3
BITMAP
BFFE0000
BAAE0000
B00E0000
B00E0000
B00FF900
B00FAF40
B00E0780
B00E02C0
B00E01D0
B00E01D0
B00E02C0
00000380
00000F40
00000900
ENDCHAR
STARTCHAR uni04A8
ENCODING 1192
SWIDTH 641 0
DWIDTH 13 0
BBX 11 14 1 0
BITMAP
0A0B90
2E3EF0
787474
B4B038
B0B03C
F0F02C
F0F02C
F0F03C
B0B03C
B4B478
783DB4
3D1FE0
1FAFE8
02F96C
ENDCHAR
STARTCHAR uni04A9
ENCODING 1193
SWIDTH 528 0
DWIDTH 11 0
BBX 9 11 1 0
BITMAP
1C7D00
79EF00
B2C740
B2C740
E2C780
E2C780
B2D740
B1EB40
78BF00
2EBF80
0BE6C0
ENDCHAR
STARTCHAR uni04AA
ENCODING 1194
SWIDTH 566 0
DWIDTH 11 0
BBX 10 18 1 -4
BITMAP
06F900
1FAF40
3C03C0
7402D0
B00190
B00000
B00000
B00000
B00000
B00190
7402D0
3803C0
1FAF40
07F900
00E000
00E000
00E000
00E000
ENDCHAR
STARTCHAR uni04AB
ENCODING 1195
SWIDTH 461 0
DWIDTH 9 0
BBX 8 15 1 -4
BITMAP
1BE0
7EB8
B01D
E00D
E000
E000
E000
E009
B01D
7EB8
1FE0
0740
0740
0740
0740
ENDCHAR
STARTCHAR uni04AC
ENCODING 1196
SWIDTH 520 0
DWIDTH 10 0
BBX 10 17 0 -3
BITMAP
7FFFF0
6AFA90
00B000
00B000
00B000
00B000
00B000
00B000
00B000
00B000
00B000
00B000
00BE00
00BE00
001E00
001E00
001E00
ENDCHAR
STARTCHAR uni04AD
ENCODING 1197
SWIDTH 424 0
DWIDTH 9 0
BBX 8 14 0 -3
BITMAP
7FFF
56E5
02C0
02C0
02C0
02C0
02C0
02C0
02C0
02F8
02F8
0038
0038
0038
ENDCHAR
STARTCHAR uni04AE
ENCODING 1198
SWIDTH 524 0
DWIDTH 10 0
BBX 10 14 0 0
BITMAP
7800F0
3C01D0
2D03C0
0E0780
0B4B00
078E00
02ED00
01F800
00B400
00B000
00B000
00B000
00B000
00B000
ENDCHAR
STARTCHAR uni04AF
ENCODING 1199
SWIDTH 444 0
DWIDTH 9 0
BBX 9 15 0 -4
BITMAP
740740
380B00
2C0E00
1D1D00
0E2C00
0B3800
077400
03F000
03F000
02E000
01D000
01D000
01D000
01D000
01D000
ENDCHAR
STARTCHAR uni04B0
ENCODING 1200
SWIDTH 524 0
DWIDTH 10 0
BBX 10 14 0 0
BITMAP
7800F0
3C01E0
2D03C0
1E0780
0B4B40
078E00
03ED00
01FC00
07FF00
05B900
00B000
00B000
00B000
00B000
ENDCHAR
STARTCHAR uni04B1
ENCODING 1201
SWIDTH 444 0
DWIDTH 9 0
BBX 9 15 0 -4
BITMAP
740740
380B00
2C0E00
1D1D00
0E2C00
0B3800
077400
07F400
03F000
06E400
0FFD00
01D000
01D000
01D000
01D000
ENDCHAR
STARTCHAR uni04B2
ENCODING 1202
SWIDTH 559 0
DWIDTH 11 0
BBX 10 17 1 -3
BITMAP
F003C0
780B40
3C0F00
1E1D00
0B3C00
07B400
02F000
02F000
07B400
0F3C00
1D1E00
3C0F00
B807E0
F003F0
0000E0
0000E0
0000E0
ENDCHAR
STARTCHAR uni04B3
ENCODING 1203
SWIDTH 465 0
DWIDTH 9 0
BBX 9 14 0 -3
BITMAP
380F00
2D2D00
0E3800
0BB400
03E000
02D000
03E000
0B7400
1E3C00
2D1F80
780F80
000380
000380
000380
ENDCHAR
STARTCHAR uni04B4
ENCODING 1204
SWIDTH 781 0
DWIDTH 16 0
BBX 14 17 0 -3
BITMAP
7FFF83C0
16E543C0
01D003C0
01D003C0
01D003C0
01D003C0
01D003C0
01D003C0
01D003C0
01D003C0
01D003C0
01D003C0
01EAABE0
01FFFFF0
000000B0
000000B0
000000B0
ENDCHAR
STARTCHAR uni04B5
ENCODING 1205
SWIDTH 587 0
DWIDTH 12 0
BBX 11 14 0 -3
BITMAP
BFF4B0
5B90B0
0740B0
0740B0
0740B0
0740B0
0740B0
0740B0
0740B0
0795F4
07FFFC
00002C
00002C
00002C
ENDCHAR
STARTCHAR uni04B6
ENCODING 1206
SWIDTH 638 0
DWIDTH 13 0
BBX 11 17 1 -3
BITMAP
B001D0
B001D0
B001D0
B001D0
B401D0
B401D0
7906D0
2FFFD0
0595D0
0001D0
0001D0
0001D0
0001FC
0001FC
00003C
00003C
00003C
ENDCHAR
STARTCHAR uni04B7
ENCODING 1207
SWIDTH 512 0
DWIDTH 10 0
BBX 9 14 1 -3
BITMAP
E02C00
E02C00
E02C00
E02C00
B02C00
B42C00
3FFC00
056C00
002C00
002F80
002F80
000380
000380
000380
ENDCHAR
STARTCHAR uni04B8
ENCODING 1208
SWIDTH 595 0
DWIDTH 12 0
BBX 10 14 1 0
BITMAP
B001D0
B001D0
B001D0
B001D0
B4A1D0
B4A1D0
78A2D0
2FFFD0
06F6D0
00A1D0
00A1D0
0001D0
0001D0
0001D0
ENDCHAR
STARTCHAR uni04B9
ENCODING 1209
SWIDTH 483 0
DWIDTH 10 0
BBX 8 11 1 0
BITMAP
B01D
B01D
B01D
B25D
B39D
7B9D
2FFD
07AD
025D
001D
001D
ENDCHAR
STARTCHAR uni04BA
ENCODING 1210
SWIDTH 595 0
DWIDTH 12 0
BBX 10 14 1 0
BITMAP
B00000
B00000
B00000
B00000
B00000
BBFD00
BEAF80
B003C0
B002D0
B002D0
B002D0
B002D0
B002D0
B002D0
ENDCHAR
STARTCHAR uni04BB
ENCODING 1211
SWIDTH 482 0
DWIDTH 10 0
BBX 8 15 1 0
BITMAP
B000
B000
B000
B000
B6E4
BEBC
B42D
B01D
B01D
B01D
B01D
B01D
B01D
B01D
B01D
ENDCHAR
STARTCHAR uni04BC
ENCODING 1212
SWIDTH 674 0
DWIDTH 14 0
BBX 12 14 1 0
BITMAP
002F80
00FAF0
02D078
43802C
D7401D
AB401D
7FFFFD
0B9554
0B4000
074000
078000
02D000
00FAB8
002FE4
ENDCHAR
STARTCHAR uni04BD
ENCODING 1213
SWIDTH 518 0
DWIDTH 10 0
BBX 10 11 0 0
BITMAP
01BE00
03EB80
DB02C0
EE01D0
7FFFD0
1E5550
0E0000
0F0000
0B4080
03EBC0
00BE00
ENDCHAR
STARTCHAR uni04BE
ENCODING 1214
SWIDTH 674 0
DWIDTH 14 0
BBX 12 18 1 -4
BITMAP
002F80
00FAF0
02D078
43802C
D7401D
AB401D
7FFFFD
0B9554
0B4000
074000
078000
02D000
00FAB8
002FE4
000B00
000B00
000B00
000B00
ENDCHAR
STARTCHAR uni04BF
ENCODING 1215
SWIDTH 518 0
DWIDTH 10 0
BBX 10 15 0 -4
BITMAP
01BE00
03EB80
DB02C0
EE01D0
7FFFD0
1E5550
0E0000
0F0000
0B4080
03EBC0
00BE00
002C00
002C00
002C00
002C00
ENDCHAR
STARTCHAR uni04C0
ENCODING 1216
SWIDTH 250 0
DWIDTH 5 0
BBX 3 14 1 0
BITMAP
74
74
74
74
74
74
74
74
74
74
74
74
74
74
ENDCHAR
STARTCHAR uni04C1
ENCODING 1217
SWIDTH 791 0
DWIDTH 16 0
BBX 16 18 0 0
BITMAP
00297800
000BE000
00000000
00000000
3C03C03C
1E03C0B4
0F03C0E0
0783C2D0
02C3C380
01E3CB40
00BFFE00
01FBEF00
02D3C780
07C3C3D0
0B43C1E0
1F03C0F4
2D03C078
7C03C03D
ENDCHAR
STARTCHAR uni04C2
ENCODING 1218
SWIDTH 662 0
DWIDTH 13 0
BBX 13 15 0 0
BITMAP
00E5D000
007F4000
00000000
00000000
3C1D0B40
1D1D1E00
0F1D2C00
075D7800
02FFF000
03EEB400
075D7800
0F1D2C00
1E1D1E00
3C1D0F00
781D0B80
ENDCHAR
STARTCHAR uni04C3
ENCODING 1219
SWIDTH 553 0
DWIDTH 11 0
BBX 10 17 1 -3
BITMAP
B403C0
B40B40
B41E00
B43C00
B4B400
B5E000
BFF800
BABF00
B40780
B403C0
B402D0
B401D0
B402D0
B402C0
0003C0
001F40
002900
ENDCHAR
STARTCHAR uni04C4
ENCODING 1220
SWIDTH 481 0
DWIDTH 10 0
BBX 8 14 1 -3
BITMAP
B41E
B478
B4F0
B6C0
BFD0
BAB8
B42D
B40E
B40E
B40E
B40E
001D
0078
0060
ENDCHAR
STARTCHAR uni04C5
ENCODING 1221
SWIDTH 662 0
DWIDTH 13 0
BBX 13 18 0 -4
BITMAP
02FFF800
03EAB800
03C03800
03C03800
03803800
03803800
03803800
03803800
03803800
07803800
07403800
0B003800
6E003800
78003F80
00000740
00000740
00000B00
00000900
ENDCHAR
STARTCHAR uni04C6
ENCODING 1222
SWIDTH 551 0
DWIDTH 11 0
BBX 11 15 0 -4
BITMAP
07FF80
07AB80
0B4380
0B0380
0B0380
0B0380
0B0380
0B0380
0E0380
7D0380
7803F8
000078
000074
0000B0
000090
ENDCHAR
STARTCHAR uni04C7
ENCODING 1223
SWIDTH 620 0
DWIDTH 12 0
BBX 10 18 1 -4
BITMAP
7400E0
7400E0
7400E0
7400E0
7400E0
7400E0
7FFFE0
7AAAE0
7400E0
7400E0
7400E0
7400E0
7400E0
7400E0
0000E0
0001E0
000AD0
000F80
ENDCHAR
STARTCHAR uni04C8
ENCODING 1224
SWIDTH 498 0
DWIDTH 10 0
BBX 8 15 1 -4
BITMAP
B00E
B00E
B00E
B00E
BFFE
B96E
B00E
B00E
B00E
B00E
B00E
000E
001D
006D
00F4
ENDCHAR
STARTCHAR uni04C9
ENCODING 1225
SWIDTH 671 0
DWIDTH 13 0
BBX 12 18 1 -4
BITMAP
7400F0
7400F0
7400F0
7400F0
7400F0
7400F0
7FFFF0
7AAAF0
7400F0
7400F0
7400F0
7400F0
7400F0
7400FE
00000E
00001D
00002C
000024
ENDCHAR
STARTCHAR uni04CA
ENCODING 1226
SWIDTH 550 0
DWIDTH 11 0
BBX 10 15 1 -4
BITMAP
B40E00
B40E00
B40E00
B40E00
BFFE00
B95E00
B40E00
B40E00
B40E00
B40E00
B40FE0
0001E0
0001D0
0002C0
000240
ENDCHAR
STARTCHAR uni04CB
ENCODING 1227
SWIDTH 600 0
DWIDTH 12 0
BBX 10 17 1 -3
BITMAP
B001D0
B001D0
B001D0
B001D0
B401D0
B401D0
7906D0
2FFFD0
0595D0
0001D0
0001D0
0001D0
000FD0
000FD0
000E00
000E00
000E00
ENDCHAR
STARTCHAR uni04CC
ENCODING 1228
SWIDTH 479 0
DWIDTH 10 0
BBX 7 14 1 -3
BITMAP
E02C
E02C
E02C
E02C
B02C
B42C
3FFC
056C
002C
00FC
00FC
00E0
00E0
00E0
ENDCHAR
STARTCHAR uni04CD
ENCODING 1229
SWIDTH 801 0
DWIDTH 16 0
BBX 15 18 1 -4
BITMAP
7C000F80
7D001F80
7E002F80
7F003F80
7B407B80
7780B780
76C0E380
75D1D780
74E2C780
74B28780
74774780
743F0780
742E0780
741D07F4
000000B4
000000B0
000000E0
00000080
ENDCHAR
STARTCHAR uni04CE
ENCODING 1230
SWIDTH 687 0
DWIDTH 14 0
BBX 13 15 1 -4
BITMAP
BC00F400
BC01F400
BD02F400
BE03F400
BB07B400
B74B7400
B68E7400
B5DD7400
B4FC7400
B4B87800
B4747F40
00000740
00000B00
00000E00
00000800
ENDCHAR
STARTCHAR uni04CF
ENCODING 1231
SWIDTH 250 0
DWIDTH 5 0
BBX 3 14 1 0
BITMAP
74
74
74
74
74
74
74
74
74
74
74
74
74
74
ENDCHAR
STARTCHAR uni04D0
ENCODING 1232
SWIDTH 576 0
DWIDTH 12 0
BBX 11 18 0 0
BITMAP
039780
01BE00
000000
000000
003800
007C00
00BD00
00DE00
01CB00
02C740
038380
0742C0
0B01D0
0FFFE0
1EAAF0
2C00B4
380078
74003C
ENDCHAR
STARTCHAR uni04D1
ENCODING 1233
SWIDTH 479 0
DWIDTH 10 0
BBX 8 15 1 0
BITMAP
2978
0BE0
0000
0000
1BE0
7EB8
B02C
002D
0BFD
7D6D
B02D
F02D
B02D
7AFD
2F9D
ENDCHAR
STARTCHAR uni04D2
ENCODING 1234
SWIDTH 576 0
DWIDTH 12 0
BBX 11 17 0 0
BITMAP
078380
078380
000000
003800
007C00
00BD00
00DE00
01CB00
02C740
038380
0742C0
0B01D0
0FFFE0
1EAAF0
2C00B4
380078
74003C
ENDCHAR
STARTCHAR uni04D3
ENCODING 1235
SWIDTH 479 0
DWIDTH 10 0
BBX 8 15 1 0
BITMAP
382C
382C
0000
0000
1BE0
7EB8
B02C
002D
0BFD
7D6D
B02D
F02D
B02D
7AFD
2F9D
ENDCHAR
STARTCHAR uni04D4
ENCODING 1236
SWIDTH 812 0
DWIDTH 16 0
BBX 16 14 0 0
BITMAP
0003FFFD
000BE554
000EE000
002DE000
0038E000
00B4E000
00E0FFF8
02D0F554
0780F000
0BFFF000
1FAAF000
2D00B000
7800B555
B400BFFE
ENDCHAR
STARTCHAR uni04D5
ENCODING 1237
SWIDTH 728 0
DWIDTH 15 0
BBX 13 11 1 0
BITMAP
1FD2F900
BABBAF00
A03E0780
002C0380
1BFFFF80
B97D5540
E02C0000
E02D0000
E03E0000
BAFBAB80
2F81FE00
ENDCHAR
STARTCHAR uni04D6
ENCODING 1238
SWIDTH 496 0
DWIDTH 10 0
BBX 9 18 1 0
BITMAP
1D6C00
0BE400
000000
000000
7FFF00
7AAA00
740000
740000
740000
740000
7FFD00
7AA900
740000
740000
740000
740000
7AAA00
7FFF40
ENDCHAR
STARTCHAR uni04D7
ENCODING 1239
SWIDTH 468 0
DWIDTH 9 0
BBX 8 15 1 0
BITMAP
3978
1BE0
0000
0000
1BE0
3EBC
B01D
E01E
FFFE
F555
E000
F000
B404
7EAD
1BE4
ENDCHAR
STARTCHAR uni04D8
ENCODING 1240
SWIDTH 597 0
DWIDTH 12 0
BBX 10 14 1 0
BITMAP
1BF800
2EAF00
000780
0002D0
0001E0
0000E0
0000E0
FFFFE0
E555E0
E001E0
B002D0
780780
2EAF00
07F800
ENDCHAR
STARTCHAR uni04D9
ENCODING 1241
SWIDTH 465 0
DWIDTH 9 0
BBX 8 11 1 0
BITMAP
2F90
BAF4
003C
001D
001D
FFFD
F56D
F02D
B03C
7EB4
1BD0
ENDCHAR
STARTCHAR uni04DA
ENCODING 1242
SWIDTH 597 0
DWIDTH 12 0
BBX 10 17 1 0
BITMAP
2C1D00
2C1D00
000000
1BF800
2EAF00
000780
0002D0
0001E0
0000E0
0000E0
FFFFE0
E555E0
E001E0
B002D0
780780
2EAF00
07F800
ENDCHAR
STARTCHAR uni04DB
ENCODING 1243
SWIDTH 465 0
DWIDTH 9 0
BBX 8 15 1 0
BITMAP
7838
7838
0000
0000
2F90
BAF4
003C
001D
001D
FFFD
F56D
F02D
B03C
7EB4
1BD0
ENDCHAR
STARTCHAR uni04DC
ENCODING 1244
SWIDTH 791 0
DWIDTH 16 0
BBX 16 17 0 0
BITMAP
00382C00
00382C00
00000000
3C03C03C
1E03C0B4
0F03C0E0
0783C2D0
02C3C380
01E3CB40
00BFFE00
01FBEF00
02D3C780
07C3C3D0
0B43C1E0
1F03C0F4
2D03C078
7C03C03D
ENDCHAR
STARTCHAR uni04DD
ENCODING 1245
SWIDTH 662 0
DWIDTH 13 0
BBX 13 15 0 0
BITMAP
01D1E000
01D1E000
00000000
00000000
3C1D0B40
1D1D1E00
0F1D2C00
075D7800
02FFF000
03EEB400
075D7800
0F1D2C00
1E1D1E00
3C1D0F00
781D0B80
ENDCHAR
STARTCHAR uni04DE
ENCODING 1246
SWIDTH 517 0
DWIDTH 10 0
BBX 9 17 1 0
BITMAP
3C2D00
2C2C00
000000
1BE400
7EBE00
B40F00
A00B40
000B40
001E00
03F800
02AE00
000B40
000740
E00740
F40B40
7EBE00
1BE400
ENDCHAR
STARTCHAR uni04DF
ENCODING 1247
SWIDTH 446 0
DWIDTH 9 0
BBX 7 15 1 0
BITMAP
B474
7474
0000
0000
1FD0
7AB4
F038
0078
0FE0
0AB4
0038
502C
E038
B9B4
1F90
ENDCHAR
STARTCHAR uni04E0
ENCODING 1248
SWIDTH 510 0
DWIDTH 10 0
BBX 8 14 1 0
BITMAP
BFFE
6ABD
0078
00B0
02D0
0780
0BE4
05BD
001E
000F
F00B
B41E
7EBD
1BE4
ENDCHAR
STARTCHAR uni04E1
ENCODING 1249
SWIDTH 510 0
DWIDTH 10 0
BBX 8 15 1 -4
BITMAP
BFFE
6ABD
0078
00F0
02D0
0780
0BE0
05BC
001E
000F
500B
F00B
B41E
3EBC
1BE4
ENDCHAR
STARTCHAR uni04E2
ENCODING 1250
SWIDTH 619 0
DWIDTH 12 0
BBX 10 18 1 0
BITMAP
055500
0BFF00
000000
000000
7401E0
7402E0
7407E0
740AE0
741DE0
7428E0
7470E0
74A0E0
75C0E0
7680E0
7B00E0
7E00E0
7C00E0
7800E0
ENDCHAR
STARTCHAR uni04E3
ENCODING 1251
SWIDTH 509 0
DWIDTH 10 0
BBX 8 15 1 0
BITMAP
1554
2FFC
0000
0000
B41E
B42E
B47E
B4AE
B4DE
B68E
B74E
BB0E
BD0E
BC0E
B40E
ENDCHAR
STARTCHAR uni04E4
ENCODING 1252
SWIDTH 619 0
DWIDTH 12 0
BBX 10 17 1 0
BITMAP
0B0B40
0B0B40
000000
7401E0
7402E0
7407E0
740AE0
741DE0
7428E0
7470E0
74A0E0
75C0E0
7680E0
7B00E0
7E00E0
7C00E0
7800E0
ENDCHAR
STARTCHAR uni04E5
ENCODING 1253
SWIDTH 509 0
DWIDTH 10 0
BBX 8 15 1 0
BITMAP
3C2C
282C
0000
0000
B41E
B42E
B47E
B4AE
B4DE
B68E
B74E
BB0E
BD0E
BC0E
B40E
ENDCHAR
STARTCHAR uni04E6
ENCODING 1254
SWIDTH 600 0
DWIDTH 12 0
BBX 10 17 1 0
BITMAP
0F0B00
0E0B00
000000
06F900
1FAF40
3C03C0
7401D0
B000E0
B000E0
B000E0
B000E0
B000E0
B000E0
7401D0
3C03C0
1FAF40
06F900
ENDCHAR
STARTCHAR uni04E7
ENCODING 1255
SWIDTH 501 0
DWIDTH 10 0
BBX 8 15 1 0
BITMAP
382C
382C
0000
0000
0BE0
3EBC
B41E
F00F
E00B
E00B
E00B
F00B
B41E
3EBC
0BE4
ENDCHAR
STARTCHAR uni04E8
ENCODING 1256
SWIDTH 593 0
DWIDTH 12 0
BBX 10 14 1 0
BITMAP
06F800
1FAF40
380780
B402D0
B001D0
F000E0
FFFFE0
F556E0
F000E0
B001E0
B402D0
3C0780
1FAF40
06F800
ENDCHAR
STARTCHAR uni04E9
ENCODING 1257
SWIDTH 497 0
DWIDTH 10 0
BBX 8 11 1 0
BITMAP
0BE0
3EBC
741E
A00B
FFFF
F55F
E00B
B00F
741E
3EBC
0BE0
ENDCHAR
STARTCHAR uni04EA
ENCODING 1258
SWIDTH 593 0
DWIDTH 12 0
BBX 10 17 1 0
BITMAP
0F0B00
0B0B00
000000
06F800
1FAF40
380780
B402D0
B001D0
F000E0
FFFFE0
F556E0
F000E0
B001E0
B402D0
3C0780
1FAF40
06F800
ENDCHAR
STARTCHAR uni04EB
ENCODING 1259
SWIDTH 497 0
DWIDTH 10 0
BBX 8 15 1 0
BITMAP
7838
7838
0000
0000
0BE0
3EBC
741E
A00B
FFFF
F55F
E00B
B00F
741E
3EBC
0BE0
ENDCHAR
STARTCHAR uni04EC
ENCODING 1260
SWIDTH 589 0
DWIDTH 12 0
BBX 10 17 1 0
BITMAP
0E0F00
0E0E00
000000
06F800
1FAF40
3C07C0
7402D0
6001E0
0000E0
02FFE0
01AAE0
0000E0
6001E0
7402D0
3803C0
1FAF40
06F900
ENDCHAR
STARTCHAR uni04ED
ENCODING 1261
SWIDTH 472 0
DWIDTH 9 0
BBX 8 15 1 0
BITMAP
7438
7438
0000
0000
1F90
7AB4
E03C
001C
07FD
056D
001D
A02C
B038
7AF4
1F90
ENDCHAR
STARTCHAR uni04EE
ENCODING 1262
SWIDTH 547 0
DWIDTH 11 0
BBX 9 18 1 0
BITMAP
055400
1FFD00
000000
000000
F003C0
B40780
380B40
2C0F00
1D1E00
0F2D00
0B7C00
07B800
03F400
01F000
01E000
02C000
1B8000
2E0000
ENDCHAR
STARTCHAR uni04EF
ENCODING 1263
SWIDTH 416 0
DWIDTH 8 0
BBX 8 19 0 -4
BITMAP
1554
1FFD
0000
0000
B40E
781E
3C2D
2C2C
1D38
0E74
0B70
07E0
03E0
03D0
02C0
0280
0740
2F00
3900
ENDCHAR
STARTCHAR uni04F0
ENCODING 1264
SWIDTH 547 0
DWIDTH 11 0
BBX 9 17 1 0
BITMAP
1D1E00
1D1D00
000000
F003C0
B40780
380B40
2C0F00
1D1E00
0F2D00
0B7C00
07B800
03F400
01F000
01E000
02C000
1B8000
2E0000
ENDCHAR
STARTCHAR uni04F1
ENCODING 1265
SWIDTH 416 0
DWIDTH 8 0
BBX 8 19 0 -4
BITMAP
2D1D
2D1D
0000
0000
B40E
781E
3C2D
2C2C
1D38
0E74
0B70
07E0
03E0
03D0
02C0
0280
0740
2F00
3900
ENDCHAR
STARTCHAR uni04F2
ENCODING 1266
SWIDTH 547 0
DWIDTH 11 0
BBX 9 18 1 0
BITMAP
02DB00
03AD00
072800
000000
F003C0
B40780
380B40
2C0F00
1D1E00
0F2D00
0B7C00
07B800
03F400
01F000
01E000
02C000
1B8000
2E0000
ENDCHAR
STARTCHAR uni04F3
ENCODING 1267
SWIDTH 416 0
DWIDTH 8 0
BBX 8 19 0 -4
BITMAP
02DF
076D
0664
0000
B40E
781E
3C2D
2C2C
1D38
0E74
0B70
07E0
03E0
03D0
02C0
0280
0740
2F00
3900
ENDCHAR
STARTCHAR uni04F4
ENCODING 1268
SWIDTH 600 0
DWIDTH 12 0
BBX 10 17 1 0
BITMAP
1E0F00
0E0E00
000000
B001D0
B001D0
B001D0
B001D0
B401D0
B401D0
7906D0
2FFFD0
0595D0
0001D0
0001D0
0001D0
0001D0
0001D0
ENDCHAR
STARTCHAR uni04F5
ENCODING 1269
SWIDTH 479 0
DWIDTH 10 0
BBX 7 15 1 0
BITMAP
7478
7478
0000
0000
E02C
E02C
E02C
E02C
B02C
B42C
3FFC
056C
002C
002C
002C
ENDCHAR
STARTCHAR uni04F6
ENCODING 1270
SWIDTH 487 0
DWIDTH 10 0
BBX 8 17 1 -3
BITMAP
7FFF
7AAA
7400
7400
7400
7400
7400
7400
7400
7400
7400
7400
7F00
7F00
0F00
0F00
0F00
ENDCHAR
STARTCHAR uni04F7
ENCODING 1271
SWIDTH 371 0
DWIDTH 7 0
BBX 6 14 1 -3
BITMAP
BFF0
BAA0
B400
B400
B400
B400
B400
B400
B400
BE00
BE00
0E00
0E00
0E00
ENDCHAR
STARTCHAR uni04F8
ENCODING 1272
SWIDTH 755 0
DWIDTH 15 0
BBX 13 17 1 0
BITMAP
01D1E000
01D1E000
00000000
74000740
74000740
74000740
74000740
74000740
74000740
7FFD0740
7AAF8740
7403C740
7402D740
7402D740
7403C740
7AAF8740
7FFD0740
ENDCHAR
STARTCHAR uni04F9
ENCODING 1273
SWIDTH 679 0
DWIDTH 14 0
BBX 11 15 1 0
BITMAP
074380
074380
000000
000000
B4003C
B4003C
B4003C
B4003C
BFE43C
B9BC3C
B41E3C
B40E3C
B41D3C
B9BC3C
BFE43C
ENDCHAR
STARTCHAR uni04FA
ENCODING 1274
SWIDTH 520 0
DWIDTH 10 0
BBX 10 18 0 -4
BITMAP
0BFFE0
0BAA90
0B0000
0B0000
0B0000
7FF000
1F9000
0B0000
0B0000
0B0000
0B0000
0B0000
0B9000
0BE000
00E000
01E000
0BD000
0F4000
ENDCHAR
STARTCHAR uni04FB
ENCODING 1275
SWIDTH 410 0
DWIDTH 8 0
BBX 8 15 0 -4
BITMAP
0BFF
0BA9
0B00
0B00
7FF0
1F50
0B00
0B00
0B00
0B50
0BD0
01D0
01D0
0BC0
0F40
ENDCHAR
STARTCHAR uni04FC
ENCODING 1276
SWIDTH 570 0
DWIDTH 11 0
BBX 10 18 1 -4
BITMAP
F003C0
780B40
3C0F00
1E1D00
0B3C00
07B400
02F000
02F000
07B400
0F3C00
1D1E00
3C0F00
B807D0
F003F0
0000B0
0000B0
0006E0
000B80
ENDCHAR
STARTCHAR uni04FD
ENCODING 1277
SWIDTH 476 0
DWIDTH 10 0
BBX 9 15 0 -4
BITMAP
380F00
2D2D00
0E3800
0BB400
03E000
02D000
03E000
0B7400
1E3C00
2D1E40
780FC0
0002C0
0002C0
001B80
002E00
ENDCHAR
STARTCHAR uni04FE
ENCODING 1278
SWIDTH 550 0
DWIDTH 11 0
BBX 9 14 1 0
BITMAP
F003C0
780B40
3C0F00
1E2D00
0B7C00
07F400
0FFD00
07F800
07F400
0F3C00
1E1E00
3C0F00
B80780
F003C0
ENDCHAR
STARTCHAR uni04FF
ENCODING 1279
SWIDTH 438 0
DWIDTH 9 0
BBX 8 11 0 0
BITMAP
780F
2D2D
1E3C
0BB4
07F0
1FFC
0BF4
0774
0E38
2D1D
780F
ENDCHAR
STARTCHAR uni0500
ENCODING 1280
SWIDTH 555 0
DWIDTH 11 0
BBX 9 14 1 0
BITMAP
000380
000380
000380
000380
000380
000380
1BFF80
7EAB80
B40380
E00380
E00380
B40380
7EAB80
1BFF80
ENDCHAR
STARTCHAR uni0501
ENCODING 1281
SWIDTH 496 0
DWIDTH 10 0
BBX 8 15 1 0
BITMAP
001E
001E
001E
001E
1F9E
7EBE
B41E
E01E
E01E
E01E
E01E
E01E
B41E
7EBE
1F9E
ENDCHAR
STARTCHAR uni0502
ENCODING 1282
SWIDTH 723 0
DWIDTH 14 0
BBX 13 14 1 0
BITMAP
00038000
00038000
00038000
00038000
00038000
00038000
1BFF8100
7EAB8780
B4038380
F00383C0
F0038380
B4038780
7EABEF00
1BFFF900
ENDCHAR
STARTCHAR uni0503
ENCODING 1283
SWIDTH 743 0
DWIDTH 15 0
BBX 13 15 1 0
BITMAP
001D0000
001D0000
001D0000
001D0000
1B9D0000
3EBD0100
B41D0740
B01D0380
E01D0380
E01D0380
E01D0380
F01D0780
B41E0B40
3EBFAE00
1B92F800
ENDCHAR
STARTCHAR uni0504
ENCODING 1284
SWIDTH 685 0
DWIDTH 14 0
BBX 13 14 0 0
BITMAP
7FE00000
6ABC0000
001D0000
001E0000
001E0500
006D0B00
0BF40740
06B80740
002D0740
001E0740
000E0B40
000E0F00
000BAD00
0002F400
ENDCHAR
STARTCHAR uni0505
ENCODING 1285
SWIDTH 562 0
DWIDTH 11 0
BBX 11 11 0 0
BITMAP
7F8000
16F000
00B400
007450
00B074
2FD074
16F078
007474
0074B4
007AE0
002F80
ENDCHAR
STARTCHAR uni0506
ENCODING 1286
SWIDTH 470 0
DWIDTH 9 0
BBX 9 17 0 -3
BITMAP
7F9000
16F400
003C00
002C00
002C00
007800
1FE000
16F400
003800
002C00
002C00
002C00
002F80
001F80
000740
000B00
000900
ENDCHAR
STARTCHAR uni0507
ENCODING 1287
SWIDTH 443 0
DWIDTH 9 0
BBX 8 14 1 -3
BITMAP
BF40
56E0
00F0
00B0
01E0
7F80
16E0
00F0
00B0
00BD
007D
001D
002C
0024
ENDCHAR
STARTCHAR uni0508
ENCODING 1288
SWIDTH 834 0
DWIDTH 17 0
BBX 16 14 0 0
BITMAP
02FFF800
02EAB800
02C07800
02C07800
02C07804
03C0781E
03C0780E
03C0780E
0380780F
0380780E
0780780E
0B40382D
2E002EB8
78000BE0
ENDCHAR
STARTCHAR uni0509
ENCODING 1289
SWIDTH 698 0
DWIDTH 14 0
BBX 14 11 0 0
BITMAP
07FF8000
07AB8000
07478280
074782C0
074781D0
074781D0
070781D0
0B0382D0
0F0382C0
2E02EB40
7800BD00
ENDCHAR
STARTCHAR uni050A
ENCODING 1290
SWIDTH 864 0
DWIDTH 17 0
BBX 15 14 1 0
BITMAP
7400E000
7400E000
7400E000
7400E000
7400E010
7400E038
7FFFE03C
7AAAE02C
7400E02C
7400E03C
7400E038
7400F074
7400BAF0
74002F80
ENDCHAR
STARTCHAR uni050B
ENCODING 1291
SWIDTH 716 0
DWIDTH 14 0
BBX 13 11 1 0
BITMAP
B00E0000
B00E0000
B00E0600
B00E0740
BFFE0740
B95E0780
B00E0780
B00E0740
B00B0B00
B007AE00
B002F800
ENDCHAR
STARTCHAR uni050C
ENCODING 1292
SWIDTH 541 0
DWIDTH 11 0
BBX 9 14 1 0
BITMAP
06F900
1FAE00
3C0000
B40000
B00000
F00000
F00340
F00380
F003C0
B003C0
B403C0
3C0780
1FAF00
06F800
ENDCHAR
STARTCHAR uni050D
ENCODING 1293
SWIDTH 452 0
DWIDTH 9 0
BBX 7 11 1 0
BITMAP
0BE0
3EB0
7400
B000
E000
E014
E02C
B02C
742C
2EB8
0BE0
ENDCHAR
STARTCHAR uni050E
ENCODING 1294
SWIDTH 616 0
DWIDTH 12 0
BBX 12 14 0 0
BITMAP
BFFFF0
6AFAA0
00B000
00B000
00B014
00B02C
00B02D
00B01D
00B01D
00B01D
00B02C
00B438
007EF4
001F90
ENDCHAR
STARTCHAR uni050F
ENCODING 1295
SWIDTH 558 0
DWIDTH 11 0
BBX 10 11 0 0
BITMAP
7FFF40
16E500
01D000
01D090
01D0B0
01D0B0
01D0B0
01D0B0
01E0F0
00FAD0
006F40
ENDCHAR
STARTCHAR uni0510
ENCODING 1296
SWIDTH 589 0
DWIDTH 12 0
BBX 10 14 1 0
BITMAP
06F900
2FAF80
3C02D0
780190
780000
2D0000
0BF800
2FA400
780000
740000
7400E0
7802D0
2FAB80
06FE00
ENDCHAR
STARTCHAR uni0511
ENCODING 1297
SWIDTH 470 0
DWIDTH 9 0
BBX 8 11 1 0
BITMAP
1FE0
BABC
B019
B400
2FD0
7940
F000
E004
F02D
7EBC
1BE0
ENDCHAR
STARTCHAR uni0512
ENCODING 1298
SWIDTH 664 0
DWIDTH 13 0
BBX 13 18 0 -4
BITMAP
02FFF800
03EAB800
03C03800
03C03800
03803800
03803800
03803800
03803800
03803800
07803800
07403800
0B003800
6E003D40
78003F40
00000740
00000740
00002F00
00007D00
ENDCHAR
STARTCHAR uni0513
ENCODING 1299
SWIDTH 553 0
DWIDTH 11 0
BBX 11 15 0 -4
BITMAP
07FF80
07AB80
0B4380
0B0380
0B0380
0B0380
0B0380
0B0380
0E0380
7D03D4
7803F4
000074
000074
0002F0
0003D0
ENDCHAR
STARTCHAR uni1E00
ENCODING 7680
SWIDTH 576 0
DWIDTH 12 0
BBX 11 18 0 -4
BITMAP
003800
007C00
00BD00
00DE00
01CB00
02C740
038380
0742C0
0B01D0
0FFFE0
1EAAF0
2C00B4
380078
74003C
000000
007800
009900
007800
ENDCHAR
STARTCHAR uni1E01
ENCODING 7681
SWIDTH 479 0
DWIDTH 10 0
BBX 8 15 1 -4
BITMAP
1BE0
7EB8
B02C
002D
0BFD
7D6D
B02D
F02D
B02D
7AFD
2F9D
0000
0B40
0980
0B40
ENDCHAR
STARTCHAR uni1E3E
ENCODING 7742
SWIDTH 755 0
DWIDTH 15 0
BBX 13 18 1 0
BITMAP
0003D000
000B4000
001D0000
00000000
7C000F80
7D001F80
7E002F80
7F003F80
7B407B80
7780B780
76C0E380
75D1D780
74E2C780
74B28780
74774780
743F0780
742E0780
741D0780
ENDCHAR
STARTCHAR uni1E3F
ENCODING 7743
SWIDTH 752 0
DWIDTH 15 0
BBX 13 15 1 0
BITMAP
0002D000
000B4000
000A0000
00000000
B6E4BD00
BEBFAF40
B42E0780
B01D0380
B01D0380
B01D0380
B01D0380
B01D0380
B01D0380
B01D0380
B01D0380
ENDCHAR
STARTCHAR Wgrave
ENCODING 7808
SWIDTH 761 0
DWIDTH 15 0
BBX 15 18 0 0
BITMAP
002D0000
000F0000
00074000
00000000
78038078
38078074
2C0BC0B4
2C0AD0B0
1D0DD0E0
1D1DA0E0
0E2C71D0
0B2875D0
0B3436C0
07742A80
07B02F80
03E01F40
02E00F40
02D00F00
ENDCHAR
STARTCHAR wgrave
ENCODING 7809
SWIDTH 649 0
DWIDTH 13 0
BBX 13 15 0 0
BITMAP
01F00000
00780000
00190000
00000000
741D0740
382E0B00
383E0B00
2C3B0E00
1C774D00
1DB39D00
0EE2AC00
0BD1F800
0BC0F400
0780F400
0380B000
ENDCHAR
STARTCHAR Wacute
ENCODING 7810
SWIDTH 761 0
DWIDTH 15 0
BBX 15 18 0 0
BITMAP
0000B400
0001E000
00028000
00000000
78038078
38078074
2C0BC0B4
2C0AD0B0
1D0DD0E0
1D1DA0E0
0E2C71D0
0B2875D0
0B3436C0
07742A80
07B02F80
03E01F40
02E00F40
02D00F00
ENDCHAR
STARTCHAR wacute
ENCODING 7811
SWIDTH 649 0
DWIDTH 13 0
BBX 13 15 0 0
BITMAP
0003C000
000B4000
001D0000
00000000
741D0740
382E0B00
383E0B00
2C3B0E00
1C774D00
1DB39D00
0EE2AC00
0BD1F800
0BC0F400
0780F400
0380B000
ENDCHAR
STARTCHAR Wdieresis
ENCODING 7812
SWIDTH 761 0
DWIDTH 15 0
BBX 15 17 0 0
BITMAP
00783800
00783800
00000000
78038078
38078074
2C0BC0B4
2C0AD0B0
1D0DD0E0
1D1DA0E0
0E2C71D0
0B2875D0
0B3436C0
07742A80
07B02F80
03E01F40
02E00F40
02D00F00
ENDCHAR
STARTCHAR wdieresis
ENCODING 7813
SWIDTH 649 0
DWIDTH 13 0
BBX 13 15 0 0
BITMAP
02D1D000
01D1D000
00000000
00000000
741D0740
382E0B00
383E0B00
2C3B0E00
1C774D00
1DB39D00
0EE2AC00
0BD1F800
0BC0F400
0780F400
0380B000
ENDCHAR
STARTCHAR uni1EA0
ENCODING 7840
SWIDTH 576 0
DWIDTH 12 0
BBX 11 17 0 -3
BITMAP
003800
007C00
00BD00
00DE00
01CB00
02C740
038380
0742C0
0B01D0
0FFFE0
1EAAF0
2C00B4
380078
74003C
000000
003800
003800
ENDCHAR
STARTCHAR uni1EA1
ENCODING 7841
SWIDTH 479 0
DWIDTH 10 0
BBX 8 14 1 -3
BITMAP
1BE0
7EB8
B02C
002D
0BFD
7D6D
B02D
F02D
B02D
7AFD
2F9D
0000
0B00
0B40
ENDCHAR
STARTCHAR uni1EA2
ENCODING 7842
SWIDTH 576 0
DWIDTH 12 0
BBX 11 19 0 0
BITMAP
003800
000A00
001D00
002800
000000
003800
007C00
00BD00
00DE00
01CB00
02C740
038380
0742C0
0B01D0
0FFFE0
1EAAF0
2C00B4
380078
74003C
ENDCHAR
STARTCHAR uni1EA3
ENCODING 7843
SWIDTH 479 0
DWIDTH 10 0
BBX 8 17 1 0
BITMAP
0290
00A0
01E0
0280
0000
0000
1BE0
7EB8
B02C
002D
0BFD
7D6D
B02D
F02D
B02D
7AFD
2F9D
ENDCHAR
STARTCHAR uni1EA4
ENCODING 7844
SWIDTH 576 0
DWIDTH 12 0
BBX 11 20 0 0
BITMAP
00002C
000074
007C60
01EF00
028740
000000
003800
007C00
00BD00
00DE00
01CB00
02C740
038380
0742C0
0B01D0
0FFFE0
1EAAF0
2C00B4
380078
74003C
ENDCHAR
STARTCHAR uni1EA5
ENCODING 7845
SWIDTH 479 0
DWIDTH 10 0
BBX 10 17 1 0
BITMAP
0002D0
000380
07D700
1EB400
2C3800
000000
1BE000
7EB800
B02C00
002D00
0BFD00
7D6D00
B02D00
F02D00
B02D00
7AFD00
2F9D00
ENDCHAR
STARTCHAR uni1EA6
ENCODING 7846
SWIDTH 576 0
DWIDTH 12 0
BBX 11 20 0 0
BITMAP
740000
2C0000
187C00
01EF00
028740
000000
003800
007C00
00BD00
00DE00
01CB00
02C740
038380
0742C0
0B01D0
0FFFE0
1EAAF0
2C00B4
380078
74003C
ENDCHAR
STARTCHAR uni1EA7
ENCODING 7847
SWIDTH 479 0
DWIDTH 10 0
BBX 10 17 -1 0
BITMAP
780000
2C0000
0D7D00
01EB40
02C380
000000
01BE00
07EB80
0B02C0
0002D0
00BFD0
07D6D0
0B02D0
0F02D0
0B02D0
07AFD0
02F9D0
ENDCHAR
STARTCHAR uni1EA8
ENCODING 7848
SWIDTH 576 0
DWIDTH 12 0
BBX 11 19 0 0
BITMAP
0000E0
00BD34
01DBD0
028340
000000
003800
007C00
00BD00
00DE00
01CB00
02C740
038380
0742C0
0B01D0
0FFFE0
1EAAF0
2C00B4
380078
74003C
ENDCHAR
STARTCHAR uni1EA9
ENCODING 7849
SWIDTH 479 0
DWIDTH 10 0
BBX 9 16 1 0
BITMAP
000A00
07D340
1DBE00
282800
000000
1BE000
7EB800
B02C00
002D00
0BFD00
7D6D00
B02D00
F02D00
B02D00
7AFD00
2F9D00
ENDCHAR
STARTCHAR uni1EAA
ENCODING 7850
SWIDTH 576 0
DWIDTH 12 0
BBX 11 20 0 0
BITMAP
00E200
015D00
000000
00BD00
028740
000000
003800
007C00
00BD00
00DE00
01CB00
02C740
038380
0742C0
0B01D0
0FFFE0
1EAAF0
2C00B4
380078
74003C
ENDCHAR
STARTCHAR uni1EAB
ENCODING 7851
SWIDTH 479 0
DWIDTH 10 0
BBX 8 17 1 0
BITMAP
0A20
19E0
0000
07D0
2878
0000
1BE0
7EB8
B02C
002D
0BFD
7D6D
B02D
F02D
B02D
7AFD
2F9D
ENDCHAR
STARTCHAR uni1EAC
ENCODING 7852
SWIDTH 576 0
DWIDTH 12 0
BBX 11 21 0 -3
BITMAP
007800
00EE00
018600
000000
003800
007C00
00BD00
00DE00
01CB00
02C740
038380
0742C0
0B01D0
0FFFE0
1EAAF0
2C00B4
380078
74003C
000000
003800
003800
ENDCHAR
STARTCHAR uni1EAD
ENCODING 7853
SWIDTH 479 0
DWIDTH 10 0
BBX 8 19 1 -3
BITMAP
03C0
0AA0
1C74
0000
0000
1BE0
7EB8
B02C
002D
0BFD
7D6D
B02D
F02D
B02D
7AFD
2F9D
0000
0B00
0B40
ENDCHAR
STARTCHAR uni1EAE
ENCODING 7854
SWIDTH 576 0
DWIDTH 12 0
BBX 11 19 0 0
BITMAP
000D00
001800
028700
00BD00
000000
003800
007C00
00BD00
00DE00
01CB00
02C740
038380
0742C0
0B01D0
0FFFE0
1EAAF0
2C00B4
380078
74003C
ENDCHAR
STARTCHAR uni1EAF
ENCODING 7855
SWIDTH 479 0
DWIDTH 10 0
BBX 8 16 1 0
BITMAP
00D0
0180
1C74
0BE0
0000
1BE0
7EB8
B02C
002D
0BFD
7D6D
B02D
F02D
B02D
7AFD
2F9D
ENDCHAR
STARTCHAR uni1EB0
ENCODING 7856
SWIDTH 576 0
DWIDTH 12 0
BBX 11 19 0 0
BITMAP
00A000
002000
028700
00BD00
000000
003800
007C00
00BD00
00DE00
01CB00
02C740
038380
0742C0
0B01D0
0FFFE0
1EAAF0
2C00B4
380078
74003C
ENDCHAR
STARTCHAR uni1EB1
ENCODING 7857
SWIDTH 479 0
DWIDTH 10 0
BBX 8 16 1 0
BITMAP
0700
0240
1C74
0BE0
0000
1BE0
7EB8
B02C
002D
0BFD
7D6D
B02D
F02D
B02D
7AFD
2F9D
ENDCHAR
STARTCHAR uni1EB2
ENCODING 7858
SWIDTH 576 0
DWIDTH 12 0
BBX 11 20 0 0
BITMAP
002800
000D00
002800
028700
00BD00
000000
003800
007C00
00BD00
00DE00
01CB00
02C740
038380
0742C0
0B01D0
0FFFE0
1EAAF0
2C00B4
380078
74003C
ENDCHAR
STARTCHAR uni1EB3
ENCODING 7859
SWIDTH 479 0
DWIDTH 10 0
BBX 8 17 1 0
BITMAP
0290
00A0
0280
1C74
0BD0
0000
1BE0
7EB8
B02C
002D
0BFD
7D6D
B02D
F02D
B02D
7AFD
2F9D
ENDCHAR
STARTCHAR uni1EB4
ENCODING 7860
SWIDTH 576 0
DWIDTH 12 0
BBX 11 20 0 0
BITMAP
00E600
015E00
000000
028700
00BD00
000000
003800
007C00
00BD00
00DE00
01CB00
02C740
038380
0742C0
0B01D0
0FFFE0
1EAAF0
2C00B4
380078
74003C
ENDCHAR
STARTCHAR uni1EB5
ENCODING 7861
SWIDTH 479 0
DWIDTH 10 0
BBX 8 17 1 0
BITMAP
0B64
19E0
0000
1C74
0BE0
0000
1BE0
7EB8
B02C
002D
0BFD
7D6D
B02D
F02D
B02D
7AFD
2F9D
ENDCHAR
STARTCHAR uni1EB6
ENCODING 7862
SWIDTH 576 0
DWIDTH 12 0
BBX 11 21 0 -3
BITMAP
039780
01BE00
000000
000000
003800
007C00
00BD00
00DE00
01CB00
02C740
038380
0742C0
0B01D0
0FFFE0
1EAAF0
2C00B4
380078
74003C
000000
003800
003800
ENDCHAR
STARTCHAR uni1EB7
ENCODING 7863
SWIDTH 479 0
DWIDTH 10 0
BBX 8 18 1 -3
BITMAP
2978
0BE0
0000
0000
1BE0
7EB8
B02C
002D
0BFD
7D6D
B02D
F02D
B02D
7AFD
2F9D
0000
0B00
0B40
ENDCHAR
STARTCHAR uni1EB8
ENCODING 7864
SWIDTH 496 0
DWIDTH 10 0
BBX 9 17 1 -3
BITMAP
7FFF00
7AAA00
740000
740000
740000
740000
7FFD00
7AA900
740000
740000
740000
740000
7AAA00
7FFF40
000000
02C000
02C000
ENDCHAR
STARTCHAR uni1EB9
ENCODING 7865
SWIDTH 468 0
DWIDTH 9 0
BBX 8 14 1 -3
BITMAP
1BE0
3EBC
B01D
E01E
FFFE
F555
E000
F000
B404
7EAD
1BE4
0000
0380
0380
ENDCHAR
STARTCHAR uni1EBA
ENCODING 7866
SWIDTH 496 0
DWIDTH 10 0
BBX 9 19 1 0
BITMAP
01D000
007000
00B000
01C000
000000
7FFF00
7AAA00
740000
740000
740000
740000
7FFD00
7AA900
740000
740000
740000
740000
7AAA00
7FFF40
ENDCHAR
STARTCHAR uni1EBB
ENCODING 7867
SWIDTH 468 0
DWIDTH 9 0
BBX 8 17 1 0
BITMAP
0280
00A0
01E0
0280
0000
0000
1BE0
3EBC
B01D
E01E
FFFE
F555
E000
F000
B404
7EAD
1BE4
ENDCHAR
STARTCHAR uni1EBC
ENCODING 7868
SWIDTH 496 0
DWIDTH 10 0
BBX 9 18 1 0
BITMAP
050400
1FAC00
28B400
000000
7FFF00
7AAA00
740000
740000
740000
740000
7FFD00
7AA900
740000
740000
740000
740000
7AAA00
7FFF40
ENDCHAR
STARTCHAR uni1EBD
ENCODING 7869
SWIDTH 468 0
DWIDTH 9 0
BBX 8 16 1 0
BITMAP
0414
2F68
35F0
0000
0000
1BE0
3EBC
B01D
E01E
FFFE
F555
E000
F000
B404
7EAD
1BE4
ENDCHAR
STARTCHAR uni1EBE
ENCODING 7870
SWIDTH 496 0
DWIDTH 10 0
BBX 10 20 1 0
BITMAP
0001D0
0002C0
02D240
0BB400
1D2800
000000
7FFF00
7AAA00
740000
740000
740000
740000
7FFD00
7AA900
740000
740000
740000
740000
7AAA00
7FFF40
ENDCHAR
STARTCHAR uni1EBF
ENCODING 7871
SWIDTH 468 0
DWIDTH 9 0
BBX 9 17 1 0
BITMAP
0002C0
000740
07C600
1EF000
287400
000000
1BE000
3EBC00
B01D00
E01E00
FFFE00
F55500
E00000
F00000
B40400
7EAD00
1BE400
ENDCHAR
STARTCHAR uni1EC0
ENCODING 7872
SWIDTH 496 0
DWIDTH 10 0
BBX 10 20 0 0
BITMAP
F00000
740000
24B400
02ED00
074A00
000000
1FFFC0
1EAA80
1D0000
1D0000
1D0000
1D0000
1FFF40
1EAA40
1D0000
1D0000
1D0000
1D0000
1EAA80
1FFFD0
ENDCHAR
STARTCHAR uni1EC1
ENCODING 7873
SWIDTH 468 0
DWIDTH 9 0
BBX 10 17 -1 0
BITMAP
740000
2C0000
187C00
01EF00
028740
000000
01BE00
03EBC0
0B01D0
0E01E0
0FFFE0
0F5550
0E0000
0F0000
0B4040
07EAD0
01BE40
ENDCHAR
STARTCHAR uni1EC2
ENCODING 7874
SWIDTH 496 0
DWIDTH 10 0
BBX 9 19 1 0
BITMAP
000740
03E280
0E7E00
1C2800
000000
7FFF00
7AAA00
740000
740000
740000
740000
7FFD00
7AA900
740000
740000
740000
740000
7AAA00
7FFF40
ENDCHAR
STARTCHAR uni1EC3
ENCODING 7875
SWIDTH 468 0
DWIDTH 9 0
BBX 9 16 1 0
BITMAP
000E00
0BD340
1DBD00
283800
000000
1BE000
3EBC00
B01D00
E01E00
FFFE00
F55500
E00000
F00000
B40400
7EAD00
1BE400
ENDCHAR
STARTCHAR uni1EC4
ENCODING 7876
SWIDTH 496 0
DWIDTH 10 0
BBX 9 20 1 0
BITMAP
076400
08A000
000000
07E000
1D2800
000000
7FFF00
7AAA00
740000
740000
740000
740000
7FFD00
7AA900
740000
740000
740000
740000
7AAA00
7FFF40
ENDCHAR
STARTCHAR uni1EC5
ENCODING 7877
SWIDTH 468 0
DWIDTH 9 0
BBX 8 17 1 0
BITMAP
0E20
15D0
0000
0BD0
2874
0000
1BE0
3EBC
B01D
E01E
FFFE
F555
E000
F000
B404
7EAD
1BE4
ENDCHAR
STARTCHAR uni1EC6
ENCODING 7878
SWIDTH 496 0
DWIDTH 10 0
BBX 9 21 1 -3
BITMAP
02D000
0BB000
092400
000000
7FFF00
7AAA00
740000
740000
740000
740000
7FFD00
7AA900
740000
740000
740000
740000
7AAA00
7FFF40
000000
02C000
02C000
ENDCHAR
STARTCHAR uni1EC7
ENCODING 7879
SWIDTH 468 0
DWIDTH 9 0
BBX 8 19 1 -3
BITMAP
0780
0EE0
1C60
0000
0000
1BE0
3EBC
B01D
E01E
FFFE
F555
E000
F000
B404
7EAD
1BE4
0000
0380
0380
ENDCHAR
STARTCHAR uni1EC8
ENCODING 7880
SWIDTH 250 0
DWIDTH 5 0
BBX 4 19 1 0
BITMAP
78
1D
2D
34
00
74
74
74
74
74
74
74
74
74
74
74
74
74
74
ENDCHAR
STARTCHAR uni1EC9
ENCODING 7881
SWIDTH 234 0
DWIDTH 5 0
BBX 3 17 1 0
BITMAP
74
1C
2C
70
00
00
B0
B0
B0
B0
B0
B0
B0
B0
B0
B0
B0
ENDCHAR
STARTCHAR uni1ECA
ENCODING 7882
SWIDTH 250 0
DWIDTH 5 0
BBX 3 17 1 -3
BITMAP
74
74
74
74
74
74
74
74
74
74
74
74
74
74
00
74
74
ENDCHAR
STARTCHAR uni1ECB
ENCODING 7883
SWIDTH 229 0
DWIDTH 5 0
BBX 2 18 1 -3
BITMAP
70
70
00
00
B0
B0
B0
B0
B0
B0
B0
B0
B0
B0
B0
00
B0
B0
ENDCHAR
STARTCHAR uni1ECC
ENCODING 7884
SWIDTH 600 0
DWIDTH 12 0
BBX 10 17 1 -3
BITMAP
06F900
1FAF40
3C03C0
7401D0
B000E0
B000E0
B000E0
B000E0
B000E0
B000E0
7401D0
3C03C0
1FAF40
06F900
000000
00E000
00F000
ENDCHAR
STARTCHAR uni1ECD
ENCODING 7885
SWIDTH 501 0
DWIDTH 10 0
BBX 8 14 1 -3
BITMAP
0BE0
3EBC
B41E
F00F
E00B
E00B
E00B
F00B
B41E
3EBC
0BE4
0000
0380
03C0
ENDCHAR
STARTCHAR uni1ECE
ENCODING 7886
SWIDTH 600 0
DWIDTH 12 0
BBX 10 19 1 0
BITMAP
00A400
002800
007800
00A000
000000
06F900
1FAF40
3C03C0
7401D0
B000E0
B000E0
B000E0
B000E0
B000E0
B000E0
7401D0
3C03C0
1FAF40
06F900
ENDCHAR
STARTCHAR uni1ECF
ENCODING 7887
SWIDTH 501 0
DWIDTH 10 0
BBX 8 17 1 0
BITMAP
0290
00A0
01E0
0280
0000
0000
0BE0
3EBC
B41E
F00F
E00B
E00B
E00B
F00B
B41E
3EBC
0BE4
ENDCHAR
STARTCHAR uni1ED0
ENCODING 7888
SWIDTH 600 0
DWIDTH 12 0
BBX 11 20 1 0
BITMAP
0000B4
0000E0
01F5C0
07AD00
0B0E00
000000
06F900
1FAF40
3C03C0
7401D0
B000E0
B000E0
B000E0
B000E0
B000E0
B000E0
7401D0
3C03C0
1FAF40
06F900
ENDCHAR
STARTCHAR uni1ED1
ENCODING 7889
SWIDTH 501 0
DWIDTH 10 0
BBX 9 17 1 0
BITMAP
0002C0
000380
07D600
1EB400
2C3800
000000
0BE000
3EBC00
B41E00
F00F00
E00B00
E00B00
E00B00
F00B00
B41E00
3EBC00
0BE400
ENDCHAR
STARTCHAR uni1ED2
ENCODING 7890
SWIDTH 600 0
DWIDTH 12 0
BBX 11 20 0 0
BITMAP
780000
2C0000
0D7D00
01EB40
02C380
000000
01BE40
07EBD0
0F00F0
1D0074
2C0038
2C0038
2C0038
2C0038
2C0038
2C0038
1D0074
0F00F0
07EBD0
01BE40
ENDCHAR
STARTCHAR uni1ED3
ENCODING 7891
SWIDTH 501 0
DWIDTH 10 0
BBX 10 17 -1 0
BITMAP
780000
2C0000
0D7D00
01EB00
02C380
000000
00BE00
03EBC0
0B41E0
0F00F0
0E00B0
0E00B0
0E00B0
0F00B0
0B41E0
03EBC0
00BE40
ENDCHAR
STARTCHAR uni1ED4
ENCODING 7892
SWIDTH 600 0
DWIDTH 12 0
BBX 10 19 1 0
BITMAP
000280
01F490
07AF80
0A0A00
000000
06F900
1FAF40
3C03C0
7401D0
B000E0
B000E0
B000E0
B000E0
B000E0
B000E0
7401D0
3C03C0
1FAF40
06F900
ENDCHAR
STARTCHAR uni1ED5
ENCODING 7893
SWIDTH 501 0
DWIDTH 10 0
BBX 9 16 1 0
BITMAP
000A00
07D340
1DBE00
282800
000000
0BE000
3EBC00
B41E00
F00F00
E00B00
E00B00
E00B00
F00B00
B41E00
3EBC00
0BE400
ENDCHAR
STARTCHAR uni1ED6
ENCODING 7894
SWIDTH 600 0
DWIDTH 12 0
BBX 10 20 1 0
BITMAP
02D800
027800
000000
01F400
0B4A00
000000
06F900
1FAF40
3C03C0
7401D0
B000E0
B000E0
B000E0
B000E0
B000E0
B000E0
7401D0
3C03C0
1FAF40
06F900
ENDCHAR
STARTCHAR uni1ED7
ENCODING 7895
SWIDTH 501 0
DWIDTH 10 0
BBX 8 17 1 0
BITMAP
0A20
19E0
0000
0BD0
2878
0000
0BE0
3EBC
B41E
F00F
E00B
E00B
E00B
F00B
B41E
3EBC
0BE4
ENDCHAR
STARTCHAR uni1ED8
ENCODING 7896
SWIDTH 600 0
DWIDTH 12 0
BBX 10 21 1 -3
BITMAP
00F000
02A800
074D00
000000
06F900
1FAF40
3C03C0
7401D0
B000E0
B000E0
B000E0
B000E0
B000E0
B000E0
7401D0
3C03C0
1FAF40
06F900
000000
00E000
00F000
ENDCHAR
STARTCHAR uni1ED9
ENCODING 7897
SWIDTH 501 0
DWIDTH 10 0
BBX 8 19 1 -3
BITMAP
0380
0AE0
1C74
0000
0000
0BE0
3EBC
B41E
F00F
E00B
E00B
E00B
F00B
B41E
3EBC
0BE4
0000
0380
03C0
ENDCHAR
STARTCHAR uni1EDA
ENCODING 7898
SWIDTH 592 0
DWIDTH 12 0
BBX 11 18 1 0
BITMAP
002E00
007800
00A018
00002C
06F978
1FAFE0
3807C0
B402D0
F001D0
E001E0
E000E0
E000E0
E001E0
F001D0
B402C0
380780
1FAF00
06F800
ENDCHAR
STARTCHAR uni1EDB
ENCODING 7899
SWIDTH 502 0
DWIDTH 10 0
BBX 9 15 1 0
BITMAP
00B800
01E000
028040
0001C0
0BE6C0
3EBF40
741E00
B00F00
E00B00
E00B00
E00B00
B00E00
741D00
3EBC00
0BE000
ENDCHAR
STARTCHAR uni1EDC
ENCODING 7900
SWIDTH 592 0
DWIDTH 12 0
BBX 11 18 1 0
BITMAP
0B4000
02D000
00E018
00002C
06F978
1FAFE0
3807C0
B402D0
F001D0
E001E0
E000E0
E000E0
E001E0
F001D0
B402C0
380780
1FAF00
06F800
ENDCHAR
STARTCHAR uni1EDD
ENCODING 7901
SWIDTH 502 0
DWIDTH 10 0
BBX 9 15 1 0
BITMAP
2D0000
0B4000
028040
0001C0
0BE6C0
3EBF40
741E00
B00F00
E00B00
E00B00
E00B00
B00E00
741D00
3EBC00
0BE000
ENDCHAR
STARTCHAR uni1EDE
ENCODING 7902
SWIDTH 592 0
DWIDTH 12 0
BBX 11 19 1 0
BITMAP
00A400
002800
007800
00A018
00002C
06F978
1FAFE0
3807C0
B402D0
F001D0
E001E0
E000E0
E000E0
E001E0
F001D0
B402C0
380780
1FAF00
06F800
ENDCHAR
STARTCHAR uni1EDF
ENCODING 7903
SWIDTH 502 0
DWIDTH 10 0
BBX 9 17 1 0
BITMAP
029000
00A000
01E000
028000
000040
0001C0
0BE6C0
3EBF40
741E00
B00F00
E00B00
E00B00
E00B00
B00E00
741D00
3EBC00
0BE000
ENDCHAR
STARTCHAR uni1EE0
ENCODING 7904
SWIDTH 592 0
DWIDTH 12 0
BBX 11 18 1 0
BITMAP
010500
0BEA00
0D7D18
00002C
06F978
1FAFE0
3807C0
B402D0
F001D0
E001E0
E000E0
E000E0
E001E0
F001D0
B402C0
380780
1FAF00
06F800
ENDCHAR
STARTCHAR uni1EE1
ENCODING 7905
SWIDTH 502 0
DWIDTH 10 0
BBX 9 16 1 0
BITMAP
040400
2FA800
35B400
000040
0001C0
0BE6C0
3EBF40
741E00
B00F00
E00B00
E00B00
E00B00
B00E00
741D00
3EBC00
0BE000
ENDCHAR
STARTCHAR uni1EE2
ENCODING 7906
SWIDTH 592 0
DWIDTH 12 0
BBX 11 19 1 -3
BITMAP
000018
00002C
06F978
1FAFE0
3807C0
B402D0
F001D0
E001E0
E000E0
E000E0
E001E0
F001D0
B402C0
380780
1FAF00
06F800
000000
00E000
00E000
ENDCHAR
STARTCHAR uni1EE3
ENCODING 7907
SWIDTH 502 0
DWIDTH 10 0
BBX 9 16 1 -3
BITMAP
000040
0001C0
0BE6C0
3EBF40
741E00
B00F00
E00B00
E00B00
E00B00
B00E00
741D00
3EBC00
0BE000
000000
038000
038000
ENDCHAR
STARTCHAR uni1EE4
ENCODING 7908
SWIDTH 561 0
DWIDTH 11 0
BBX 9 17 1 -3
BITMAP
B002C0
B002C0
B002C0
B002C0
B002C0
B002C0
B002C0
B002C0
B002C0
B002C0
B003C0
780780
3EAF40
0BF900
000000
01D000
01D000
ENDCHAR
STARTCHAR uni1EE5
ENCODING 7909
SWIDTH 483 0
DWIDTH 10 0
BBX 8 14 1 -3
BITMAP
B01D
B01D
B01D
B01D
B01D
B01D
B01D
B01D
B42D
7EBD
1F9D
0000
0B40
0B40
ENDCHAR
STARTCHAR uni1EE6
ENCODING 7910
SWIDTH 561 0
DWIDTH 11 0
BBX 9 19 1 0
BITMAP
00E000
003400
00B400
00D000
000000
B002C0
B002C0
B002C0
B002C0
B002C0
B002C0
B002C0
B002C0
B002C0
B002C0
B003C0
780780
3EAF40
0BF900
ENDCHAR
STARTCHAR uni1EE7
ENCODING 7911
SWIDTH 483 0
DWIDTH 10 0
BBX 8 17 1 0
BITMAP
0280
00A0
01E0
0280
0000
0000
B01D
B01D
B01D
B01D
B01D
B01D
B01D
B01D
B42D
7EBD
1F9D
ENDCHAR
STARTCHAR uni1EE8
ENCODING 7912
SWIDTH 608 0
DWIDTH 12 0
BBX 12 18 1 0
BITMAP
002E00
007800
00A000
000007
B002C7
B002DE
B002FC
B002D0
B002C0
B002C0
B002C0
B002C0
B002C0
B002C0
B403C0
780780
2EAF00
0BF800
ENDCHAR
STARTCHAR uni1EE9
ENCODING 7913
SWIDTH 549 0
DWIDTH 11 0
BBX 10 15 1 0
BITMAP
00B800
01E000
028000
000070
B01DA0
B01FD0
B01D00
B01D00
B01D00
B01D00
B01D00
B01D00
B42D00
7EBD00
1F9D00
ENDCHAR
STARTCHAR uni1EEA
ENCODING 7914
SWIDTH 608 0
DWIDTH 12 0
BBX 12 18 1 0
BITMAP
0B4000
02D000
00E000
000007
B002C7
B002DE
B002FC
B002D0
B002C0
B002C0
B002C0
B002C0
B002C0
B002C0
B403C0
780780
2EAF00
0BF800
ENDCHAR
STARTCHAR uni1EEB
ENCODING 7915
SWIDTH 549 0
DWIDTH 11 0
BBX 10 15 1 0
BITMAP
2D0000
0B4000
038000
000070
B01DA0
B01FD0
B01D00
B01D00
B01D00
B01D00
B01D00
B01D00
B42D00
7EBD00
1F9D00
ENDCHAR
STARTCHAR uni1EEC
ENCODING 7916
SWIDTH 608 0
DWIDTH 12 0
BBX 12 19 1 0
BITMAP
00A400
002800
007800
00A000
000007
B002C7
B002DE
B002FC
B002D0
B002C0
B002C0
B002C0
B002C0
B002C0
B002C0
B403C0
780780
2EAF00
0BF800
ENDCHAR
STARTCHAR uni1EED
ENCODING 7917
SWIDTH 549 0
DWIDTH 11 0
BBX 10 17 1 0
BITMAP
029000
00A000
01E000
028000
000000
000070
B01DA0
B01FD0
B01D00
B01D00
B01D00
B01D00
B01D00
B01D00
B42D00
7EBD00
1F9D00
ENDCHAR
STARTCHAR uni1EEE
ENCODING 7918
SWIDTH 608 0
DWIDTH 12 0
BBX 12 18 1 0
BITMAP
010500
0BEA00
0D7D00
000007
B002C7
B002DE
B002FC
B002D0
B002C0
B002C0
B002C0
B002C0
B002C0
B002C0
B403C0
780780
2EAF00
0BF800
ENDCHAR
STARTCHAR uni1EEF
ENCODING 7919
SWIDTH 549 0
DWIDTH 11 0
BBX 10 16 1 0
BITMAP
040400
2FA800
35B400
000000
000070
B01DA0
B01FD0
B01D00
B01D00
B01D00
B01D00
B01D00
B01D00
B42D00
7EBD00
1F9D00
ENDCHAR
STARTCHAR uni1EF0
ENCODING 7920
SWIDTH 608 0
DWIDTH 12 0
BBX 12 18 1 -3
BITMAP
000007
B002C7
B002DE
B002FC
B002D0
B002C0
B002C0
B002C0
B002C0
B002C0
B002C0
B403C0
780780
2EAF00
0BF800
000000
00E000
00E000
ENDCHAR
STARTCHAR uni1EF1
ENCODING 7921
SWIDTH 549 0
DWIDTH 11 0
BBX 10 15 1 -3
BITMAP
000070
B01DA0
B01FD0
B01D00
B01D00
B01D00
B01D00
B01D00
B01D00
B42D00
7EBD00
1F9D00
000000
038000
078000
ENDCHAR
STARTCHAR Ygrave
ENCODING 7922
SWIDTH 524 0
DWIDTH 10 0
BBX 10 18 0 0
BITMAP
078000
01E000
00A000
000000
7800F0
3C01D0
2D03C0
0E0780
0B4B00
078E00
02ED00
01F800
00B400
00B000
00B000
00B000
00B000
00B000
ENDCHAR
STARTCHAR ygrave
ENCODING 7923
SWIDTH 416 0
DWIDTH 8 0
BBX 8 19 0 -4
BITMAP
1E00
0780
0280
0000
B40E
781E
3C2D
2C2C
1D38
0E74
0B70
07E0
03E0
03D0
02C0
0280
0740
2F00
3900
ENDCHAR
STARTCHAR uni1EF4
ENCODING 7924
SWIDTH 524 0
DWIDTH 10 0
BBX 10 17 0 -3
BITMAP
7800F0
3C01D0
2D03C0
0E0780
0B4B00
078E00
02ED00
01F800
00B400
00B000
00B000
00B000
00B000
00B000
000000
00B000
00B000
ENDCHAR
STARTCHAR uni1EF5
ENCODING 7925
SWIDTH 416 0
DWIDTH 8 0
BBX 8 16 0 -5
BITMAP
B40E
781E
3C2D
2C2C
1D38
0E74
0B70
07E0
03E0
03D0
02C0
0280
0740
2F00
3938
003C
ENDCHAR
STARTCHAR uni1EF6
ENCODING 7926
SWIDTH 524 0
DWIDTH 10 0
BBX 10 19 0 0
BITMAP
007400
001C00
002C00
007000
000000
7800F0
3C01D0
2D03C0
0E0780
0B4B00
078E00
02ED00
01F800
00B400
00B000
00B000
00B000
00B000
00B000
ENDCHAR
STARTCHAR uni1EF7
ENCODING 7927
SWIDTH 416 0
DWIDTH 8 0
BBX 8 21 0 -4
BITMAP
01D0
0070
00B0
01C0
0000
0000
B40E
781E
3C2D
2C2C
1D38
0E74
0B70
07E0
03E0
03D0
02C0
0280
0740
2F00
3900
ENDCHAR
STARTCHAR uni1EF8
ENCODING 7928
SWIDTH 524 0
DWIDTH 10 0
BBX 10 18 0 0
BITMAP
014100
07EB00
0A2D00
000000
7800F0
3C01D0
2D03C0
0E0780
0B4B00
078E00
02ED00
01F800
00B400
00B000
00B000
00B000
00B000
00B000
ENDCHAR
STARTCHAR uni1EF9
ENCODING 7929
SWIDTH 416 0
DWIDTH 8 0
BBX 8 20 0 -4
BITMAP
0504
1F9C
28B8
0000
0000
B40E
781E
3C2D
2C2C
1D38
0E74
0B70
07E0
03E0
03D0
02C0
0280
0740
2F00
3900
ENDCHAR
STARTCHAR uni1F4D
ENCODING 8013
SWIDTH 634 0
DWIDTH 13 0
BBX 16 15 -4 0
BITMAP
E2D00000
A3807F80
B742FAF4
26078078
000B002D
000E001D
000E001D
000E001D
000E001D
000E001D
000E001D
000B002D
00078078
0002FAF4
0000BF90
ENDCHAR
STARTCHAR uni2000
ENCODING 8192
SWIDTH 447 0
DWIDTH 9 0
BBX 1 1 0 0
BITMAP
00
ENDCHAR
STARTCHAR uni2001
ENCODING 8193
SWIDTH 876 0
DWIDTH 18 0
BBX 1 1 0 0
BITMAP
00
ENDCHAR
STARTCHAR uni2002
ENCODING 8194
SWIDTH 447 0
DWIDTH 9 0
BBX 1 1 0 0
BITMAP
00
ENDCHAR
STARTCHAR uni2003
ENCODING 8195
SWIDTH 876 0
DWIDTH 18 0
BBX 1 1 0 0
BITMAP
00
ENDCHAR
STARTCHAR uni2004
ENCODING 8196
SWIDTH 305 0
DWIDTH 6 0
BBX 1 1 0 0
BITMAP
00
ENDCHAR
STARTCHAR uni2005
ENCODING 8197
SWIDTH 233 0
DWIDTH 5 0
BBX 1 1 0 0
BITMAP
00
ENDCHAR
STARTCHAR uni2006
ENCODING 8198
SWIDTH 162 0
DWIDTH 3 0
BBX 1 1 0 0
BITMAP
00
ENDCHAR
STARTCHAR uni2007
ENCODING 8199
SWIDTH 491 0
DWIDTH 10 0
BBX 1 1 0 0
BITMAP
00
ENDCHAR
STARTCHAR uni2008
ENCODING 8200
SWIDTH 249 0
DWIDTH 5 0
BBX 1 1 0 0
BITMAP
00
ENDCHAR
STARTCHAR uni2009
ENCODING 8201
SWIDTH 190 0
DWIDTH 4 0
BBX 1 1 0 0
BITMAP
00
ENDCHAR
STARTCHAR uni200A
ENCODING 8202
SWIDTH 105 0
DWIDTH 2 0
BBX 1 1 0 0
BITMAP
00
ENDCHAR
STARTCHAR uni200B
ENCODING 8203
SWIDTH 0 0
DWIDTH 0 0
BBX 1 1 0 0
BITMAP
00
ENDCHAR
STARTCHAR uni2010
ENCODING 8208
SWIDTH 248 0
DWIDTH 5 0
BBX 5 2 0 5
BITMAP
BF80
5540
ENDCHAR
STARTCHAR uni2011
ENCODING 8209
SWIDTH 248 0
DWIDTH 5 0
BBX 5 2 0 5
BITMAP
BF80
5540
ENDCHAR
STARTCHAR endash
ENCODING 8211
SWIDTH 572 0
DWIDTH 11 0
BBX 9 2 1 6
BITMAP
7FFF80
555540
ENDCHAR
STARTCHAR emdash
ENCODING 8212
SWIDTH 678 0
DWIDTH 14 0
BBX 12 2 1 6
BITMAP
7FFFFD
555555
ENDCHAR
STARTCHAR uni2015
ENCODING 8213
SWIDTH 678 0
DWIDTH 14 0
BBX 12 2 1 6
BITMAP
7FFFFD
555555
ENDCHAR
STARTCHAR underscoredbl
ENCODING 8215
SWIDTH 402 0
DWIDTH 8 0
BBX 8 4 0 -4
BITMAP
BFFE
5555
BFFE
5555
ENDCHAR
STARTCHAR quoteleft
ENCODING 8216
SWIDTH 194 0
DWIDTH 4 0
BBX 3 5 1 10
BITMAP
24
70
B0
E0
E0
ENDCHAR
STARTCHAR quoteright
ENCODING 8217
SWIDTH 194 0
DWIDTH 4 0
BBX 3 5 0 10
BITMAP
2C
2C
2C
38
60
ENDCHAR
STARTCHAR quotesinglbase
ENCODING 8218
SWIDTH 194 0
DWIDTH 4 0
BBX 3 5 0 -3
BITMAP
28
2C
38
74
60
ENDCHAR
STARTCHAR quotereversed
ENCODING 8219
SWIDTH 194 0
DWIDTH 4 0
BBX 3 5 0 10
BITMAP
78
38
38
2C
08
ENDCHAR
STARTCHAR quotedblleft
ENCODING 8220
SWIDTH 333 0
DWIDTH 7 0
BBX 5 5 1 10
BITMAP
2480
76C0
B380
E380
E380
ENDCHAR
STARTCHAR quotedblright
ENCODING 8221
SWIDTH 337 0
DWIDTH 7 0
BBX 5 5 1 10
BITMAP
B6C0
B3C0
B380
E740
8600
ENDCHAR
STARTCHAR quotedblbase
ENCODING 8222
SWIDTH 326 0
DWIDTH 7 0
BBX 6 6 0 -3
BITMAP
1450
2CE0
2CE0
39D0
76C0
6240
ENDCHAR
STARTCHAR dagger
ENCODING 8224
SWIDTH 482 0
DWIDTH 10 0
BBX 9 14 0 0
BITMAP
00E000
00E000
00E000
7FFFC0
2AFA40
00E000
00E000
00E000
00E000
00E000
00E000
00E000
00E000
00E000
ENDCHAR
STARTCHAR daggerdbl
ENCODING 8225
SWIDTH 500 0
DWIDTH 10 0
BBX 8 18 1 -4
BITMAP
0380
0380
0380
FFFF
ABEA
0380
0380
0380
0380
0380
0380
0380
57D5
FFFF
0380
0380
0380
0380
ENDCHAR
STARTCHAR bullet
ENCODING 8226
SWIDTH 336 0
DWIDTH 7 0
BBX 5 5 1 4
BITMAP
2E00
BF40
BF40
7F00
0400
ENDCHAR
STARTCHAR twodotenleader
ENCODING 8229
SWIDTH 420 0
DWIDTH 8 0
BBX 7 2 1 0
BITMAP
74B4
74B0
ENDCHAR
STARTCHAR ellipsis
ENCODING 8230
SWIDTH 590 0
DWIDTH 12 0
BBX 10 2 1 0
BITMAP
74B5E0
74B1E0
ENDCHAR
STARTCHAR uni2027
ENCODING 8231
SWIDTH 181 0
DWIDTH 4 0
BBX 2 2 1 5
BITMAP
E0
E0
ENDCHAR
STARTCHAR perthousand
ENCODING 8240
SWIDTH 818 0
DWIDTH 16 0
BBX 16 14 0 0
BITMAP
1F400000
39D00000
70A09000
70A1C000
70A28000
39D70000
1F8D0000
0018B9F4
00369F5D
00A34709
01C3070A
02834709
02029F5D
0000B9F4
ENDCHAR
STARTCHAR minute
ENCODING 8242
SWIDTH 174 0
DWIDTH 3 0
BBX 2 5 1 10
BITMAP
D0
D0
D0
D0
D0
ENDCHAR
STARTCHAR second
ENCODING 8243
SWIDTH 319 0
DWIDTH 6 0
BBX 5 5 1 10
BITMAP
A340
A340
A340
A300
9300
ENDCHAR
STARTCHAR guilsinglleft
ENCODING 8249
SWIDTH 271 0
DWIDTH 5 0
BBX 4 8 1 1
BITMAP
0A
1C
34
B0
B0
34
1C
0A
ENDCHAR
STARTCHAR guilsinglright
ENCODING 8250
SWIDTH 271 0
DWIDTH 5 0
BBX 4 8 1 1
BITMAP
90
70
28
1D
1D
28
70
90
ENDCHAR
STARTCHAR exclamdbl
ENCODING 8252
SWIDTH 491 0
DWIDTH 10 0
BBX 8 14 1 0
BITMAP
742D
742D
742D
741D
741D
741D
741D
741D
741D
741C
0000
0000
741D
741D
ENDCHAR
STARTCHAR fraction
ENCODING 8260
SWIDTH 403 0
DWIDTH 8 0
BBX 7 12 1 1
BITMAP
0024
0070
00A0
01C0
0240
0700
0900
1C00
3400
7000
D000
8000
ENDCHAR
STARTCHAR uni2074
ENCODING 8308
SWIDTH 329 0
DWIDTH 7 0
BBX 6 8 0 6
BITMAP
02C0
07C0
0AC0
1DC0
35C0
7FF0
15D0
01C0
ENDCHAR
STARTCHAR uni207F
ENCODING 8319
SWIDTH 374 0
DWIDTH 7 0
BBX 6 8 1 6
BITMAP
AB80
BAD0
A1D0
A0D0
A0D0
A0D0
A0D0
A0D0
ENDCHAR
STARTCHAR franc
ENCODING 8355
SWIDTH 480 0
DWIDTH 10 0
BBX 9 14 0 0
BITMAP
1FFFC0
1EAA80
1D0000
1D0000
1D0000
1D0000
1FFF00
1EAA00
1D0000
1D0000
BFE000
7E5000
1D0000
1D0000
ENDCHAR
STARTCHAR lira
ENCODING 8356
SWIDTH 510 0
DWIDTH 10 0
BBX 9 14 1 0
BITMAP
06F800
1FAE00
2D0B00
3C0640
3C0000
FFE000
7D4000
2C0000
FFE000
6D4000
2C0000
3C0000
BAAA40
FFFF80
ENDCHAR
STARTCHAR uni20A6
ENCODING 8358
SWIDTH 691 0
DWIDTH 14 0
BBX 14 14 0 0
BITMAP
0B401E00
0B801E00
0BD01E00
0BF01E00
0B741E00
BFFFFFD0
5FAE6E50
0B0B1E00
BFFFFFD0
5F96EE50
0B01EE00
0B00BE00
0B003E00
0B002E00
ENDCHAR
STARTCHAR peseta
ENCODING 8359
SWIDTH 709 0
DWIDTH 14 0
BBX 12 14 1 0
BITMAP
7FE074
79BC74
742D74
741FFF
741EB9
741D74
747C74
7FF474
794074
740074
740074
740074
74007E
74002E
ENDCHAR
STARTCHAR uni20A8
ENCODING 8360
SWIDTH 911 0
DWIDTH 18 0
BBX 17 14 1 0
BITMAP
7FF8000000
7AAF000000
740B400000
740386F800
74038FAE00
7407AD0B00
741F6D0100
7FFD1F8000
7AB806F800
742D006E00
741E140B40
740B2C0B00
74079FAE00
7403C6F800
ENDCHAR
STARTCHAR uni20A9
ENCODING 8361
SWIDTH 634 0
DWIDTH 13 0
BBX 13 14 0 0
BITMAP
742D0F00
382D0E00
382E0E00
2C3E1D00
2C3A1D00
BFFFFF40
6EBBBD00
0E637800
BFFFFF40
5BE7F900
0BD2F000
07D2F000
03C1E000
03C1E000
ENDCHAR
STARTCHAR uni20AA
ENCODING 8362
SWIDTH 669 0
DWIDTH 13 0
BBX 11 11 1 0
BITMAP
BFF82C
BAAD2C
B00E2C
B2DF2C
B2DB2C
B2DB2C
B2DB2C
B2D02C
B2D03C
B2E5B8
B2FFE0
ENDCHAR
STARTCHAR dong
ENCODING 8363
SWIDTH 510 0
DWIDTH 10 0
BBX 9 19 1 -4
BITMAP
001E00
00FFC0
006F40
001E00
1F9E00
7EBE00
B41E00
E01E00
E01E00
E01E00
E01E00
E01E00
B41E00
7EBE00
1F9E00
000000
000000
BFFF00
555500
ENDCHAR
STARTCHAR Euro
ENCODING 8364
SWIDTH 493 0
DWIDTH 10 0
BBX 8 14 1 0
BITMAP
01BE
07EA
0F00
1D00
2D00
FFF4
6D50
2D00
FFF4
6D50
1D00
0F00
0BEA
01BE
ENDCHAR
STARTCHAR uni20B1
ENCODING 8369
SWIDTH 648 0
DWIDTH 13 0
BBX 13 14 0 0
BITMAP
0FFF8000
0FAAF000
BFFFFF80
5F557D40
BFFFFF80
5F56F940
0FFFE000
0FA94000
0F000000
0F000000
0F000000
0F000000
0F000000
0F000000
ENDCHAR
STARTCHAR uni20B9
ENCODING 8377
SWIDTH 462 0
DWIDTH 9 0
BBX 9 14 0 0
BITMAP
7FFF80
6AFA40
003C00
7FFF80
6ABE40
007800
7FF400
7E4000
2E0000
0F4000
07C000
02E000
00F400
007800
ENDCHAR
STARTCHAR uni20BA
ENCODING 8378
SWIDTH 500 0
DWIDTH 10 0
BBX 9 14 0 0
BITMAP
074000
076400
07F400
1F9000
BF6400
57F400
1F92C0
BF42C0
5742C0
074380
074780
074B00
07BD00
07E400
ENDCHAR
STARTCHAR uni20BC
ENCODING 8380
SWIDTH 575 0
DWIDTH 12 0
BBX 10 11 1 0
BITMAP
00E000
00E000
07F800
1FFF00
38E780
B4E2C0
B0E1D0
E0E1D0
E0E0E0
E0E0E0
E0E0E0
ENDCHAR
STARTCHAR uni20BD
ENCODING 8381
SWIDTH 583 0
DWIDTH 12 0
BBX 11 14 0 0
BITMAP
0FFF80
0FAAF0
0F0078
0F003C
0F003C
0F0038
0F00B4
BFFFE0
6FA940
0F0000
BFF800
6FA400
0F0000
0F0000
ENDCHAR
STARTCHAR uni2105
ENCODING 8453
SWIDTH 640 0
DWIDTH 13 0
BBX 11 14 1 0
BITMAP
2E0000
B68000
A04140
A04340
B68A00
2E1C00
002800
007000
00D7E0
01CE74
035C28
0A1C28
090E74
0007E0
ENDCHAR
STARTCHAR uni2113
ENCODING 8467
SWIDTH 422 0
DWIDTH 8 0
BBX 7 15 1 0
BITMAP
07D0
0FB4
1E74
1D74
1D74
1DB4
1EE0
1FD0
1F80
FE00
AD00
1D00
0E00
0B80
02C0
ENDCHAR
STARTCHAR uni2116
ENCODING 8470
SWIDTH 886 0
DWIDTH 18 0
BBX 16 14 1 0
BITMAP
B80382F4
BC038B6C
BD038E0D
BB038D0E
B7438D0E
B6838E0D
B5C38B6C
B4E382F4
B4B38000
B4378BFD
B42B8554
B41F8000
B40F8000
B4078000
ENDCHAR
STARTCHAR trademark
ENCODING 8482
SWIDTH 547 0
DWIDTH 11 0
BBX 8 5 1 9
BITMAP
FDC3
21D7
21AA
21AA
2196
ENDCHAR
STARTCHAR Omega
ENCODING 8486
SWIDTH 581 0
DWIDTH 12 0
BBX 10 14 1 0
BITMAP
06F800
1FAE00
380780
B403C0
B002D0
F002D0
F001D0
F001D0
B002D0
B002C0
740380
2C0740
6F2E80
FF6FD0
ENDCHAR
STARTCHAR estimated
ENCODING 8494
SWIDTH 636 0
DWIDTH 13 0
BBX 11 11 1 0
BITMAP
01BE00
0A4280
2C00A0
3C00B0
7C00B4
7FFFF4
7C0000
3C0000
2C0000
0A4190
01FE40
ENDCHAR
STARTCHAR oneeighth
ENCODING 8539
SWIDTH 666 0
DWIDTH 13 0
BBX 12 14 1 0
BITMAP
6C0000
FC0200
1C0700
1C0D00
1C1C00
1C3400
1C62F4
1CD76C
01872C
0343F4
0A076C
0D0A1D
18076C
0002F4
ENDCHAR
STARTCHAR threeeighths
ENCODING 8540
SWIDTH 736 0
DWIDTH 15 0
BBX 13 14 1 0
BITMAP
7E400000
E7806000
02809000
1F41C000
06834000
42C70000
E78D7E00
6E1CEB40
0034D740
0070BE00
00D0E740
0181C340
0241E740
00007E00
ENDCHAR
STARTCHAR fiveeighths
ENCODING 8541
SWIDTH 736 0
DWIDTH 15 0
BBX 13 14 1 0
BITMAP
BF800000
A5009000
A000D000
BE028000
57834000
028A0000
E78C7E00
6E29EB40
0070D740
00A0BE00
01C0E740
0281C340
0201E740
00007E00
ENDCHAR
STARTCHAR seveneighths
ENCODING 8542
SWIDTH 692 0
DWIDTH 14 0
BBX 12 14 1 0
BITMAP
FFC000
568140
034340
070700
0E0D00
1D1800
2835B8
3462DE
00D28E
0281FC
03429E
0A034A
09039E
0001B8
ENDCHAR
STARTCHAR partialdiff
ENCODING 8706
SWIDTH 497 0
DWIDTH 10 0
BBX 8 15 1 0
BITMAP
2F90
3AF4
003C
002D
000E
0BDE
3EBF
B40F
B00B
E00B
F00B
B00E
741D
3EB8
0BE0
ENDCHAR
STARTCHAR Delta
ENCODING 8710
SWIDTH 614 0
DWIDTH 12 0
BBX 12 14 0 0
BITMAP
002D00
003E00
007F00
00BB40
01E780
02D3C0
03C2D0
0741E0
0B00F0
0E00B4
1D0078
2C003C
3EAABD
7FFFFE
ENDCHAR
STARTCHAR product
ENCODING 8719
SWIDTH 614 0
DWIDTH 12 0
BBX 10 16 1 -2
BITMAP
7FFFE0
7955E0
7400E0
7400E0
7400E0
7400E0
7400E0
7400E0
7400E0
7400E0
7400E0
7400E0
7400E0
7400E0
7400E0
7400E0
ENDCHAR
STARTCHAR summation
ENCODING 8721
SWIDTH 513 0
DWIDTH 10 0
BBX 10 17 0 -3
BITMAP
7FFFD0
3D5550
1D0000
0B4000
038000
01E000
00B400
003C00
001E00
003C00
00B400
01E000
03C000
0B4000
1D0000
3D5550
7FFFF0
ENDCHAR
STARTCHAR minus
ENCODING 8722
SWIDTH 499 0
DWIDTH 10 0
BBX 8 2 1 6
BITMAP
7FFD
5555
ENDCHAR
STARTCHAR radical
ENCODING 8730
SWIDTH 536 0
DWIDTH 11 0
BBX 10 14 0 0
BITMAP
0000B0
0000E0
0001D0
0002C0
000380
000740
7E0B00
2B0E00
075D00
03AC00
02F800
01F400
00F000
00A000
ENDCHAR
STARTCHAR infinity
ENCODING 8734
SWIDTH 874 0
DWIDTH 17 0
BBX 16 11 1 0
BITMAP
0BE01B90
2EB87AF4
741DE038
B00FD02D
E007C01D
E007801D
E007C01D
B00FD02D
741DE038
2EB87AF4
0BE01B90
ENDCHAR
STARTCHAR integral
ENCODING 8747
SWIDTH 235 0
DWIDTH 5 0
BBX 7 19 -1 -4
BITMAP
01B8
03E4
0740
0740
0740
0740
0740
0740
0740
0740
0740
0740
0740
0740
0740
0740
0B40
2F00
7D00
ENDCHAR
STARTCHAR approxequal
ENCODING 8776
SWIDTH 492 0
DWIDTH 10 0
BBX 8 7 1 3
BITMAP
7E45
EBFE
4064
0000
7E45
EBFE
4064
ENDCHAR
STARTCHAR notequal
ENCODING 8800
SWIDTH 479 0
DWIDTH 10 0
BBX 8 11 1 1
BITMAP
0004
0024
0030
BFFD
6AE9
0280
0300
BFFD
6EA8
2800
2000
ENDCHAR
STARTCHAR lessequal
ENCODING 8804
SWIDTH 445 0
DWIDTH 9 0
BBX 8 11 0 0
BITMAP
0009
00BD
07E4
3E00
7D00
0BE0
00BD
0009
0000
1555
7FFE
ENDCHAR
STARTCHAR greaterequal
ENCODING 8805
SWIDTH 460 0
DWIDTH 9 0
BBX 8 11 1 0
BITMAP
9000
BD00
1BE0
00BD
007D
0BE0
BE00
A000
0000
5554
BFFD
ENDCHAR
STARTCHAR lozenge
ENCODING 9674
SWIDTH 442 0
DWIDTH 9 0
BBX 8 14 0 0
BITMAP
01D0
03E0
07B4
0E38
1D2D
2C0E
740B
740B
2C0E
1D1D
0E38
07B4
03E0
01D0
ENDCHAR
STARTCHAR uniEE01
ENCODING 60929
SWIDTH 271 0
DWIDTH 5 0
BBX 2 10 2 2
BITMAP
F0
E0
00
00
00
00
00
00
F0
E0
ENDCHAR
STARTCHAR uniEE02
ENCODING 60930
SWIDTH 298 0
DWIDTH 6 0
BBX 4 4 1 7
BITMAP
D7
D7
D7
D7
ENDCHAR
STARTCHAR uniF6C3
ENCODING 63171
SWIDTH 235 0
DWIDTH 5 0
BBX 2 4 1 -2
BITMAP
B0
B0
E0
90
ENDCHAR
STARTCHAR uniFB01
ENCODING 64257
SWIDTH 489 0
DWIDTH 10 0
BBX 9 15 0 0
BITMAP
02F900
0BAD00
0E0000
1E0000
BFD740
6E4740
1E0740
1E0740
1E0740
1E0740
1E0740
1E0740
1E0740
1E0740
1E0740
ENDCHAR
STARTCHAR uniFB02
ENCODING 64258
SWIDTH 503 0
DWIDTH 10 0
BBX 9 15 0 0
BITMAP
02FE40
0BAB80
0F0380
0E0380
7FE380
1F5380
0E0380
0E0380
0E0380
0E0380
0E0380
0E0380
0E0380
0E0380
0E0380
ENDCHAR
STARTCHAR uniFB03
ENCODING 64259
SWIDTH 744 0
DWIDTH 15 0
BBX 14 15 0 0
BITMAP
02F0BE40
0BA2EA40
0F038000
0E038000
7FFFF5D0
1F5791D0
0E0381D0
0E0381D0
0E0381D0
0E0381D0
0E0381D0
0E0381D0
0E0381D0
0E0381D0
0E0381D0
ENDCHAR
STARTCHAR uniFB04
ENCODING 64260
SWIDTH 744 0
DWIDTH 15 0
BBX 14 15 0 0
BITMAP
02F0BE90
0BA2EAD0
0F0381D0
0E0381D0
7FFFF5D0
1F5791D0
0E0381D0
0E0381D0
0E0381D0
0E0381D0
0E0381D0
0E0381D0
0E0381D0
0E0381D0
0E0381D0
ENDCHAR
STARTCHAR uniFEFF
ENCODING 65279
SWIDTH 0 0
DWIDTH 0 0
BBX 1 1 0 0
BITMAP
00
ENDCHAR
STARTCHAR uniFFFC
ENCODING 65532
SWIDTH 1024 0
DWIDTH 21 0
BBX 19 18 1 -4
BITMAP
FCF8F8F9F8
C000000018
C000000018
0000000000
C000000018
C000000018
02F5FD0240
C61D860258
C50DFD0258
C61D866258
02F5FD2E00
C000000018
C000000018
C000000018
0000000000
C000000018
C000000018
FCF8F8F9F8
ENDCHAR
STARTCHAR uniFFFD
ENCODING 65533
SWIDTH 1025 0
DWIDTH 21 0
BBX 19 19 1 -3
BITMAP
0000600000
0001F80000
0007FE0000
001FFF8000
007FFFE000
01FD06F800
07F810FE00
1FF5B4BF80
7FFFF4BFE0
FFFFD1FFF4
7FFF47FFE0
1FFF0FFF80
07FFFFFE00
01FF0FF800
007F0FE000
001FFF8000
0007FE0000
0001F80000
0000600000
ENDCHAR
STARTCHAR .notdef
ENCODING -1
SWIDTH 392 0
DWIDTH 8 0
BBX 6 14 1 0
BITMAP
FFE0
8060
5050
5050
5110
4510
4510
4510
4510
5110
5050
5050
8060
FFE0
ENDCHAR
STARTCHAR glyph369
ENCODING -1
SWIDTH 364 0
DWIDTH 7 0
BBX 6 4 1 11
BITMAP
E2D0
A380
B740
2600
ENDCHAR
STARTCHAR uni2009.locl
ENCODING -1
SWIDTH 124 0
DWIDTH 2 0
BBX 1 1 0 0
BITMAP
00
ENDCHAR
STARTCHAR f_f.dlig
ENCODING -1
SWIDTH 546 0
DWIDTH 11 0
BBX 11 15 0 0
BITMAP
02F1B8
0BA3E4
0F0780
0E0740
7FFFF4
1F6B90
0E0740
0E0740
0E0740
0E0740
0E0740
0E0740
0E0740
0E0740
0E0740
ENDCHAR
STARTCHAR longs_t.dlig
ENCODING -1
SWIDTH 544 0
DWIDTH 11 0
BBX 10 15 0 0
BITMAP
02F900
0BAB40
0F0740
0E0740
7E3FF0
1E1B90
0E0740
0E0740
0E0740
0E0740
0E0740
0E0740
0E0740
0E03E0
0901F0
ENDCHAR
STARTCHAR s_t.dlig
ENCODING -1
SWIDTH 710 0
DWIDTH 14 0
BBX 13 15 1 0
BITMAP
001BD000
007EB400
00743800
00743C00
1BF5FF40
7EB97D40
B03C3C00
B0143C00
79003C00
2F903C00
06F43C00
007C3C00
E02C3C00
BAB82E40
1BE00B40
ENDCHAR
STARTCHAR two.dnom
ENCODING -1
SWIDTH 329 0
DWIDTH 7 0
BBX 5 8 1 0
BITMAP
7E00
E740
8380
0740
0E00
3800
B540
FFC0
ENDCHAR
STARTCHAR one.dnom
ENCODING -1
SWIDTH 329 0
DWIDTH 7 0
BBX 4 8 1 0
BITMAP
19
BD
0D
0D
0D
0D
0D
0D
ENDCHAR
STARTCHAR zero.dnom
ENCODING -1
SWIDTH 329 0
DWIDTH 7 0
BBX 5 8 1 0
BITMAP
6E00
A740
D280
D280
D280
D280
A740
6E00
ENDCHAR
STARTCHAR nine.c2sc
ENCODING -1
SWIDTH 447 0
DWIDTH 9 0
BBX 7 11 1 0
BITMAP
1F90
7AF0
F078
E038
E038
B9F8
2FB8
0078
00B4
1BE0
2E40
ENDCHAR
STARTCHAR eight.c2sc
ENCODING -1
SWIDTH 447 0
DWIDTH 9 0
BBX 7 11 1 0
BITMAP
1FD0
7AB4
B038
B474
2FE0
7AF4
B038
E02C
F038
7AB4
1F90
ENDCHAR
STARTCHAR seven.c2sc
ENCODING -1
SWIDTH 447 0
DWIDTH 9 0
BBX 8 11 0 0
BITMAP
7FFF
2AAF
000E
002C
0038
0074
00E0
01D0
03C0
0740
0B00
ENDCHAR
STARTCHAR six.c2sc
ENCODING -1
SWIDTH 447 0
DWIDTH 9 0
BBX 7 11 1 0
BITMAP
06E0
2F90
7800
B400
B7E0
FEB8
F03C
B02C
B43C
3EB4
1BD0
ENDCHAR
STARTCHAR five.c2sc
ENCODING -1
SWIDTH 447 0
DWIDTH 9 0
BBX 7 11 1 0
BITMAP
3FF8
3AA4
7400
7400
7BE0
7AB8
002C
002C
B02C
7AB8
1BE0
ENDCHAR
STARTCHAR four.c2sc
ENCODING -1
SWIDTH 447 0
DWIDTH 9 0
BBX 9 11 0 0
BITMAP
003C00
00BC00
01FC00
03AC00
0B2C00
1D2C00
382C00
7FFF40
557D40
002C00
002C00
ENDCHAR
STARTCHAR three.c2sc
ENCODING -1
SWIDTH 447 0
DWIDTH 9 0
BBX 7 11 1 0
BITMAP
2F90
BAB4
E038
0074
0FE0
06F4
0038
0038
E038
BAF4
2F90
ENDCHAR
STARTCHAR two.c2sc
ENCODING -1
SWIDTH 447 0
DWIDTH 9 0
BBX 8 11 1 0
BITMAP
1FD0
BAF4
E038
9038
0074
01F0
03D0
0F40
2D00
B954
FFFD
ENDCHAR
STARTCHAR one.c2sc
ENCODING -1
SWIDTH 447 0
DWIDTH 9 0
BBX 5 11 1 0
BITMAP
0180
2F80
BB80
4380
0380
0380
0380
0380
0380
0380
0380
ENDCHAR
STARTCHAR zero.c2sc
ENCODING -1
SWIDTH 447 0
DWIDTH 9 0
BBX 7 11 1 0
BITMAP
1FD0
7EF4
B038
E03C
E02C
E02C
E02C
E03C
B038
7EF4
1FD0
ENDCHAR
STARTCHAR Z.c2sc
ENCODING -1
SWIDTH 454 0
DWIDTH 9 0
BBX 9 11 0 0
BITMAP
7FFF40
2AAF00
001D00
007800
00B000
01D000
038000
0B0000
1D0000
3D5540
7FFF40
ENDCHAR
STARTCHAR Y.c2sc
ENCODING -1
SWIDTH 458 0
DWIDTH 9 0
BBX 9 11 0 0
BITMAP
740780
3C0B00
2D1E00
0E2D00
0B7800
03F400
02E000
01D000
01D000
01D000
01D000
ENDCHAR
STARTCHAR X.c2sc
ENCODING -1
SWIDTH 478 0
DWIDTH 10 0
BBX 9 11 0 0
BITMAP
3C0780
2D0F00
0F1E00
077C00
02F400
01F000
03F400
077C00
0F1E00
2D0B40
780780
ENDCHAR
STARTCHAR W.c2sc
ENCODING -1
SWIDTH 655 0
DWIDTH 13 0
BBX 13 11 0 0
BITMAP
741E0380
381E0740
382F0B00
2C3B4B00
1C734E00
1D728D00
0EA1DD00
0AD1EC00
0BD0F800
07C0B800
03807400
ENDCHAR
STARTCHAR V.c2sc
ENCODING -1
SWIDTH 487 0
DWIDTH 10 0
BBX 10 11 0 0
BITMAP
7402D0
3803C0
2C0780
1D0740
0E0B00
0B0E00
071D00
036C00
02B800
01F400
00F000
ENDCHAR
STARTCHAR U.c2sc
ENCODING -1
SWIDTH 488 0
DWIDTH 10 0
BBX 8 11 1 0
BITMAP
E00E
E00E
E00E
E00E
E00E
E00E
E00E
E00E
B01D
7EBC
1BE0
ENDCHAR
STARTCHAR T.c2sc
ENCODING -1
SWIDTH 456 0
DWIDTH 9 0
BBX 9 11 0 0
BITMAP
7FFF80
6AEA40
01D000
01D000
01D000
01D000
01D000
01D000
01D000
01D000
01D000
ENDCHAR
STARTCHAR S.c2sc
ENCODING -1
SWIDTH 453 0
DWIDTH 9 0
BBX 8 11 1 0
BITMAP
1BE0
7AB8
F02D
F014
7E40
1FE0
01BC
902D
E02D
B9BC
1BE0
ENDCHAR
STARTCHAR R.c2sc
ENCODING -1
SWIDTH 465 0
DWIDTH 9 0
BBX 8 11 1 0
BITMAP
BFE4
BABC
B01D
B01D
B02D
BFF4
B5E0
B0B4
B038
B02D
B00E
ENDCHAR
STARTCHAR Q.c2sc
ENCODING -1
SWIDTH 519 0
DWIDTH 10 0
BBX 9 13 1 -2
BITMAP
0BE400
3EBD00
B40F00
F00B40
E00740
E00740
E00740
F00B00
B40F00
3EBD00
0BFC00
001F00
000600
ENDCHAR
STARTCHAR P.c2sc
ENCODING -1
SWIDTH 481 0
DWIDTH 10 0
BBX 8 11 1 0
BITMAP
BFE4
BABD
B00F
B00F
B01E
BFFC
B550
B000
B000
B000
B000
ENDCHAR
STARTCHAR O.c2sc
ENCODING -1
SWIDTH 519 0
DWIDTH 10 0
BBX 9 11 1 0
BITMAP
0BE400
3EBD00
740F00
F00B40
E00740
E00740
E00740
F00B40
B40F00
3EBD00
0BE400
ENDCHAR
STARTCHAR N.c2sc
ENCODING -1
SWIDTH 533 0
DWIDTH 11 0
BBX 9 11 1 0
BITMAP
B40740
B80740
BD0740
BB0740
B38740
B1C740
B0E740
B07B40
B02F40
B01F40
B00B40
ENDCHAR
STARTCHAR M.c2sc
ENCODING -1
SWIDTH 652 0
DWIDTH 13 0
BBX 11 11 1 0
BITMAP
B800B8
BC00F8
BD01F8
BE02E8
B703B8
B34738
B28A38
B1DD38
B0FC38
B0B838
B07438
ENDCHAR
STARTCHAR L.c2sc
ENCODING -1
SWIDTH 411 0
DWIDTH 8 0
BBX 7 11 1 0
BITMAP
B000
B000
B000
B000
B000
B000
B000
B000
B000
B554
BFF8
ENDCHAR
STARTCHAR K.c2sc
ENCODING -1
SWIDTH 473 0
DWIDTH 9 0
BBX 8 11 1 0
BITMAP
B01E
B07C
B0F4
B2D0
BB80
BF80
BAD0
B0F0
B078
B02D
B00F
ENDCHAR
STARTCHAR J.c2sc
ENCODING -1
SWIDTH 419 0
DWIDTH 8 0
BBX 8 11 0 0
BITMAP
002D
002D
002D
002D
002D
002D
002D
502D
742C
3EB8
1BE0
ENDCHAR
STARTCHAR I.c2sc
ENCODING -1
SWIDTH 221 0
DWIDTH 4 0
BBX 2 11 1 0
BITMAP
B0
B0
B0
B0
B0
B0
B0
B0
B0
B0
B0
ENDCHAR
STARTCHAR H.c2sc
ENCODING -1
SWIDTH 533 0
DWIDTH 11 0
BBX 9 11 1 0
BITMAP
B00740
B00740
B00740
B00740
BFFF40
B55B40
B00740
B00740
B00740
B00740
B00740
ENDCHAR
STARTCHAR G.c2sc
ENCODING -1
SWIDTH 509 0
DWIDTH 10 0
BBX 8 11 1 0
BITMAP
0BE4
3EBD
B40E
F005
E000
E0BF
E05B
F00B
B40B
3EAF
0BF8
ENDCHAR
STARTCHAR F.c2sc
ENCODING -1
SWIDTH 415 0
DWIDTH 8 0
BBX 7 11 1 0
BITMAP
BFF8
BAA4
B000
B000
B000
BFF0
BAA0
B000
B000
B000
B000
ENDCHAR
STARTCHAR dollar.c2sc
ENCODING -1
SWIDTH 453 0
DWIDTH 9 0
BBX 8 16 1 -3
BITMAP
0340
0340
1FE0
B9B8
F02C
F014
7E00
1FE0
01BC
902D
E01D
B9BC
1FE0
0340
0340
0100
ENDCHAR
STARTCHAR sterling.c2sc
ENCODING -1
SWIDTH 467 0
DWIDTH 9 0
BBX 9 11 0 0
BITMAP
02F800
0BAE00
0E0B00
0E0500
1E0000
7FFC00
1E5000
0E0000
1D0000
2E5540
2FFF80
ENDCHAR
STARTCHAR yen.c2sc
ENCODING -1
SWIDTH 400 0
DWIDTH 8 0
BBX 8 11 0 0
BITMAP
B41E
382C
2C38
1D74
0EB0
0BD0
3FFC
17D4
3FFC
17D4
0380
ENDCHAR
STARTCHAR Gamma.c2sc
ENCODING -1
SWIDTH 405 0
DWIDTH 8 0
BBX 7 11 1 0
BITMAP
BFF8
BAA4
B000
B000
B000
B000
B000
B000
B000
B000
B000
ENDCHAR
STARTCHAR Delta.c2sc
ENCODING -1
SWIDTH 487 0
DWIDTH 10 0
BBX 10 11 0 0
BITMAP
00F000
01F400
02B800
036C00
071D00
0B0E00
0E0B00
1D0740
2C0780
3D57C0
7FFFD0
ENDCHAR
STARTCHAR Theta.c2sc
ENCODING -1
SWIDTH 519 0
DWIDTH 10 0
BBX 9 11 1 0
BITMAP
0BE400
3EBD00
740F00
F00B40
EBF740
E6A740
E00740
F00B40
B40F00
3EBD00
0BE400
ENDCHAR
STARTCHAR Lambda.c2sc
ENCODING -1
SWIDTH 487 0
DWIDTH 10 0
BBX 10 11 0 0
BITMAP
00F000
01F400
02B800
036C00
071D00
0B0E00
0E0B00
1D0740
2C0780
3803C0
7402D0
ENDCHAR
STARTCHAR Xi.c2sc
ENCODING -1
SWIDTH 389 0
DWIDTH 8 0
BBX 7 11 0 0
BITMAP
7FFC
2AA8
0000
0000
3FF8
1554
0000
0000
0000
1554
7FFC
ENDCHAR
STARTCHAR Pi.c2sc
ENCODING -1
SWIDTH 525 0
DWIDTH 11 0
BBX 9 11 1 0
BITMAP
BFFF40
BAAB40
B00B40
B00B40
B00B40
B00B40
B00B40
B00B40
B00B40
B00B40
B00B40
ENDCHAR
STARTCHAR Sigma.c2sc
ENCODING -1
SWIDTH 435 0
DWIDTH 9 0
BBX 9 11 0 0
BITMAP
7FFE00
7EA900
2D0000
0F0000
078000
02D000
078000
0F0000
2D0000
7EAA00
7FFF40
ENDCHAR
STARTCHAR Phi.c2sc
ENCODING -1
SWIDTH 587 0
DWIDTH 12 0
BBX 10 11 1 0
BITMAP
00E000
0BFE00
3EFB80
B4E1D0
E0E0E0
E0E0E0
F0E0E0
78E6D0
2FFF40
01F400
00E000
ENDCHAR
STARTCHAR Psi.c2sc
ENCODING -1
SWIDTH 560 0
DWIDTH 11 0
BBX 10 11 1 0
BITMAP
E1D1D0
E1D1D0
E1D1D0
E1D2D0
E1D2C0
B1D3C0
79EB40
1FFE00
06E400
01D000
01D000
ENDCHAR
STARTCHAR Omega.c2sc
ENCODING -1
SWIDTH 540 0
DWIDTH 11 0
BBX 9 11 1 0
BITMAP
0BF400
2EAE00
780B40
B00780
F00380
F00380
B00380
B00740
380B00
6E2E40
FF3F80
ENDCHAR
STARTCHAR uni0402.c2sc
ENCODING -1
SWIDTH 596 0
DWIDTH 12 0
BBX 11 11 0 0
BITMAP
7FFF00
6AE900
02C000
02C000
02EFE0
02EAB8
02C02C
02C02C
02C02C
02C1B8
02C2E0
ENDCHAR
STARTCHAR uni0404.c2sc
ENCODING -1
SWIDTH 490 0
DWIDTH 10 0
BBX 8 11 1 0
BITMAP
0BE4
3EBD
B00E
E006
FFC0
F540
E000
F006
B40E
3EBD
0BE4
ENDCHAR
STARTCHAR uni0409.c2sc
ENCODING -1
SWIDTH 782 0
DWIDTH 16 0
BBX 15 11 0 0
BITMAP
07FFC000
07AAC000
0B42C000
0B42C000
0B02FF90
0B02E6F4
0B02C038
0B02C03C
0E02C038
6D02E6F4
7802FF90
ENDCHAR
STARTCHAR uni040A.c2sc
ENCODING -1
SWIDTH 788 0
DWIDTH 16 0
BBX 14 11 1 0
BITMAP
B0074000
B0074000
B0074000
B0074000
BFFFFE40
B55B9AD0
B00740F0
B00740B0
B00740E0
B0079AD0
B007FE40
ENDCHAR
STARTCHAR uni040B.c2sc
ENCODING -1
SWIDTH 596 0
DWIDTH 12 0
BBX 11 11 0 0
BITMAP
7FFF00
6AE900
02C000
02C000
02EFE0
02EAB8
02C02C
02C02C
02C02C
02C02C
02C02C
ENDCHAR
STARTCHAR uni040F.c2sc
ENCODING -1
SWIDTH 524 0
DWIDTH 11 0
BBX 9 14 1 -3
BITMAP
B00B40
B00B40
B00B40
B00B40
B00B40
B00B40
B00B40
B00B40
B00B40
B55B40
BFFF40
02C000
02C000
02C000
ENDCHAR
STARTCHAR uni0411.c2sc
ENCODING -1
SWIDTH 479 0
DWIDTH 10 0
BBX 8 11 1 0
BITMAP
BFF8
B554
B000
B000
BFE4
B5BD
B01E
B00E
B01E
B5BC
BFE4
ENDCHAR
STARTCHAR uni0414.c2sc
ENCODING -1
SWIDTH 563 0
DWIDTH 11 0
BBX 11 14 0 -3
BITMAP
03FFD0
03AAD0
0381D0
0781D0
0741D0
0741D0
0741D0
0B01D0
0E01D0
6E56E4
7FFFF8
740038
740038
740038
ENDCHAR
STARTCHAR uni0416.c2sc
ENCODING -1
SWIDTH 651 0
DWIDTH 13 0
BBX 13 11 0 0
BITMAP
3C1D0F00
1E1D2D00
0B5D3800
079DB000
02FFE000
03EEF000
079D7400
0F1D3C00
1E1D2D00
3D1D1F00
781D0B40
ENDCHAR
STARTCHAR uni0417.c2sc
ENCODING -1
SWIDTH 466 0
DWIDTH 9 0
BBX 9 11 0 0
BITMAP
0BF800
2EAE00
380B00
000F00
02F800
01AD00
000B00
000740
780B00
2EAE00
0BF400
ENDCHAR
STARTCHAR uni0418.c2sc
ENCODING -1
SWIDTH 537 0
DWIDTH 11 0
BBX 9 11 1 0
BITMAP
B00B40
B00F40
B02F40
B07B40
B0E740
B2D740
B38740
BB0740
BD0740
BC0740
B40740
ENDCHAR
STARTCHAR uni041A.c2sc
ENCODING -1
SWIDTH 473 0
DWIDTH 9 0
BBX 8 11 1 0
BITMAP
B02D
B078
B1E0
B3C0
BF40
BB80
B2D0
B1E0
B0B4
B03C
B01E
ENDCHAR
STARTCHAR uni041B.c2sc
ENCODING -1
SWIDTH 521 0
DWIDTH 10 0
BBX 9 11 0 0
BITMAP
07FFC0
07AAC0
0B42C0
0B42C0
0B02C0
0B02C0
0B02C0
0B02C0
0E02C0
7D02C0
7802C0
ENDCHAR
STARTCHAR uni0423.c2sc
ENCODING -1
SWIDTH 454 0
DWIDTH 9 0
BBX 9 11 0 0
BITMAP
780780
3C0B00
2D0E00
1E1D00
0B2C00
077800
03F400
02F000
01D000
07C000
1F4000
ENDCHAR
STARTCHAR uni0426.c2sc
ENCODING -1
SWIDTH 564 0
DWIDTH 11 0
BBX 10 14 1 -3
BITMAP
B00B40
B00B40
B00B40
B00B40
B00B40
B00B40
B00B40
B00B40
B00B40
B55B90
BFFFE0
0000E0
0000E0
0000E0
ENDCHAR
STARTCHAR uni0427.c2sc
ENCODING -1
SWIDTH 487 0
DWIDTH 10 0
BBX 9 11 0 0
BITMAP
740740
740740
740740
740740
780740
3D0B40
1FFF40
015740
000740
000740
000740
ENDCHAR
STARTCHAR uni0428.c2sc
ENCODING -1
SWIDTH 691 0
DWIDTH 14 0
BBX 12 11 1 0
BITMAP
B0381E
B0381E
B0381E
B0381E
B0381E
B0381E
B0381E
B0381E
B0381E
B57D6E
BFFFFE
ENDCHAR
STARTCHAR uni0429.c2sc
ENCODING -1
SWIDTH 731 0
DWIDTH 15 0
BBX 13 14 1 -3
BITMAP
B0381E00
B0381E00
B0381E00
B0381E00
B0381E00
B0381E00
B0381E00
B0381E00
B0381E00
B57D6E40
BFFFFFC0
000002C0
000002C0
000002C0
ENDCHAR
STARTCHAR uni042A.c2sc
ENCODING -1
SWIDTH 559 0
DWIDTH 11 0
BBX 11 11 0 0
BITMAP
BF8000
6B8000
038000
038000
03FF80
0396E0
0380B4
038074
0380B4
0396E0
03FF80
ENDCHAR
STARTCHAR uni042B.c2sc
ENCODING -1
SWIDTH 658 0
DWIDTH 13 0
BBX 11 11 1 0
BITMAP
B0002C
B0002C
B0002C
B0002C
BFE42C
B5BD2C
B01E2C
B00E2C
B01E2C
B5BC2C
BFE42C
ENDCHAR
STARTCHAR uni042C.c2sc
ENCODING -1
SWIDTH 475 0
DWIDTH 10 0
BBX 8 11 1 0
BITMAP
B000
B000
B000
B000
BFE4
B5BD
B01E
B00E
B01E
B5BC
BFE4
ENDCHAR
STARTCHAR uni042D.c2sc
ENCODING -1
SWIDTH 491 0
DWIDTH 10 0
BBX 8 11 1 0
BITMAP
1BE0
7AB8
E01D
900E
07FF
015F
000F
900E
E02D
7AB8
1BE0
ENDCHAR
STARTCHAR uni042E.c2sc
ENCODING -1
SWIDTH 705 0
DWIDTH 14 0
BBX 12 11 1 0
BITMAP
B01BE0
B07EBC
B0F41E
B1E00B
BFD00B
B6D00B
B1D00B
B0E00B
B0B01E
B03EBC
B00BE0
ENDCHAR
STARTCHAR uni042F.c2sc
ENCODING -1
SWIDTH 499 0
DWIDTH 10 0
BBX 8 11 1 0
BITMAP
1BFE
7EAE
B40E
B00E
780E
2FFE
0EAE
1D0E
380E
740E
F00E
ENDCHAR
STARTCHAR uni0492.c2sc
ENCODING -1
SWIDTH 444 0
DWIDTH 9 0
BBX 9 11 0 0
BITMAP
0FFF40
0FAA40
0E0000
0E0000
0E0000
BFE000
5F5000
0E0000
0E0000
0E0000
0E0000
ENDCHAR
STARTCHAR uni0496.c2sc
ENCODING -1
SWIDTH 676 0
DWIDTH 14 0
BBX 13 15 0 -4
BITMAP
3C1D0F00
1E1D2D00
0B5D3800
079DB000
02FFE000
03EEF000
079D7400
0F1D3C00
1E1D2D00
3D1D1F40
781D0BC0
000001C0
000001C0
000001C0
00000040
ENDCHAR
STARTCHAR uni049A.c2sc
ENCODING -1
SWIDTH 492 0
DWIDTH 10 0
BBX 9 14 1 -3
BITMAP
B02D00
B07800
B1E000
B3C000
BF4000
BB8000
B2D000
B1E000
B0B400
B03D00
B01F40
000740
000740
000740
ENDCHAR
STARTCHAR uni049C.c2sc
ENCODING -1
SWIDTH 562 0
DWIDTH 11 0
BBX 10 11 1 0
BITMAP
B003D0
B10B40
B71E00
B77800
BFF000
BBB400
B73C00
B61E00
B00B40
B007C0
B002D0
ENDCHAR
STARTCHAR uni04A0.c2sc
ENCODING -1
SWIDTH 571 0
DWIDTH 11 0
BBX 11 11 0 0
BITMAP
7FC0B4
57C1E0
02C780
02CF00
02FD00
02EE00
02CB40
02C780
02C2D0
02C0F0
02C0B8
ENDCHAR
STARTCHAR uni04A8.c2sc
ENCODING -1
SWIDTH 625 0
DWIDTH 13 0
BBX 11 11 1 0
BITMAP
1A2F80
3D7AE0
B4E0B0
F0E0B0
E1E074
E0E0B4
E0F0B0
B0B5E0
783FC0
2EAFF4
06F8B4
ENDCHAR
STARTCHAR uni04B0.c2sc
ENCODING -1
SWIDTH 480 0
DWIDTH 10 0
BBX 9 11 0 0
BITMAP
740780
3C0B00
2D1E00
0E2D00
0B7800
03F400
0FFD00
06F400
01D000
01D000
01D000
ENDCHAR
STARTCHAR uni04B2.c2sc
ENCODING -1
SWIDTH 514 0
DWIDTH 10 0
BBX 10 14 0 -3
BITMAP
3C0780
2D0F00
0F1E00
077C00
02F400
01F000
03F400
077C00
0F1E00
2D0B90
7807E0
0000E0
0000E0
0000E0
ENDCHAR
STARTCHAR uni04B4.c2sc
ENCODING -1
SWIDTH 695 0
DWIDTH 14 0
BBX 13 14 0 -3
BITMAP
7FFF1D00
6AE91D00
02C01D00
02C01D00
02C01D00
02C01D00
02C01D00
02C01D00
02C01D00
02E56E40
02FFFF80
00000380
00000380
00000380
ENDCHAR
STARTCHAR uni04B8.c2sc
ENCODING -1
SWIDTH 487 0
DWIDTH 10 0
BBX 9 11 0 0
BITMAP
740740
740740
740740
744740
78D740
3DDB40
1FFF40
01E740
00D740
004740
000740
ENDCHAR
STARTCHAR uni04BA.c2sc
ENCODING -1
SWIDTH 487 0
DWIDTH 10 0
BBX 8 11 1 0
BITMAP
B000
B000
B000
B000
BBF4
BAAD
B00F
B00B
B00B
B00B
B00B
ENDCHAR
STARTCHAR uni04BC.c2sc
ENCODING -1
SWIDTH 632 0
DWIDTH 13 0
BBX 12 11 0 0
BITMAP
002FD0
00BAB8
41E02D
A2C01E
77C00E
2FFFFE
07D555
02C000
02E000
00BAB4
002FE4
ENDCHAR
STARTCHAR uni04D8.c2sc
ENCODING -1
SWIDTH 527 0
DWIDTH 11 0
BBX 9 11 1 0
BITMAP
1BE400
2EBD00
000F00
000740
000780
FFFF80
F55B80
E00740
B40B00
3EBD00
0BE400
ENDCHAR
STARTCHAR uni04E0.c2sc
ENCODING -1
SWIDTH 466 0
DWIDTH 9 0
BBX 8 11 1 0
BITMAP
FFFC
6AB8
01E0
0780
0B90
06F8
002C
001D
E02C
BAB8
2FD0
ENDCHAR
STARTCHAR uni04E8.c2sc
ENCODING -1
SWIDTH 519 0
DWIDTH 10 0
BBX 9 11 1 0
BITMAP
0BE400
3EBD00
740B00
E00740
FFFF40
F55B40
E00740
F00B40
B40F00
3EBD00
0BE400
ENDCHAR
STARTCHAR lira.c2sc
ENCODING -1
SWIDTH 467 0
DWIDTH 9 0
BBX 9 11 0 0
BITMAP
02F800
0BAE00
0E0B00
0E0700
1E0000
7FFC00
1E5000
7FFC00
1E5000
2E5540
2FFF80
ENDCHAR
STARTCHAR Euro.c2sc
ENCODING -1
SWIDTH 433 0
DWIDTH 9 0
BBX 8 11 0 0
BITMAP
01BE
03EA
0B40
0F00
7FFC
1E54
7FFC
1F54
0B40
07E9
01BE
ENDCHAR
STARTCHAR uni2116.c2sc
ENCODING -1
SWIDTH 884 0
DWIDTH 18 0
BBX 16 11 1 0
BITMAP
B40742E4
B8074B6C
BD074D0D
BB075D0D
B3874D0D
B1C74B6C
B0E742F4
B07B4000
B02F4BFC
B01F4554
B00B4000
ENDCHAR
STARTCHAR uni20BD.c2sc
ENCODING -1
SWIDTH 512 0
DWIDTH 10 0
BBX 10 11 0 0
BITMAP
0FFE00
0F5BC0
0E01D0
0E01E0
0E02D0
7FFF80
5F5500
0E0000
7FE000
5F5000
0E0000
ENDCHAR
STARTCHAR three.dnom
ENCODING -1
SWIDTH 329 0
DWIDTH 7 0
BBX 5 8 1 0
BITMAP
7E00
E740
0340
2F00
0740
4280
E740
7E00
ENDCHAR
STARTCHAR four.dnom
ENCODING -1
SWIDTH 329 0
DWIDTH 7 0
BBX 6 8 0 0
BITMAP
02C0
07C0
0AC0
1DC0
35C0
7FF0
15D0
01C0
ENDCHAR
STARTCHAR five.dnom
ENCODING -1
SWIDTH 329 0
DWIDTH 7 0
BBX 5 8 1 0
BITMAP
BF40
A500
A000
FE00
5780
0280
E780
7E00
ENDCHAR
STARTCHAR six.dnom
ENCODING -1
SWIDTH 329 0
DWIDTH 7 0
BBX 5 8 1 0
BITMAP
1E00
7900
E000
EE00
E780
D280
A780
2E00
ENDCHAR
STARTCHAR seven.dnom
ENCODING -1
SWIDTH 329 0
DWIDTH 7 0
BBX 6 8 0 0
BITMAP
7FE0
15E0
01C0
0280
0340
0700
0E00
1D00
ENDCHAR
STARTCHAR eight.dnom
ENCODING -1
SWIDTH 329 0
DWIDTH 7 0
BBX 5 8 1 0
BITMAP
7E00
E740
E340
7F00
E740
D280
E780
7E00
ENDCHAR
STARTCHAR nine.dnom
ENCODING -1
SWIDTH 329 0
DWIDTH 7 0
BBX 5 8 1 0
BITMAP
7E00
E740
D280
E780
7F80
0340
1B00
3900
ENDCHAR
STARTCHAR glyph550
ENCODING -1
SWIDTH 404 0
DWIDTH 8 0
BBX 6 2 1 6
BITMAP
BFE0
5550
ENDCHAR
STARTCHAR glyph551
ENCODING -1
SWIDTH 306 0
DWIDTH 6 0
BBX 4 5 1 11
BITMAP
0B
18
78
99
78
ENDCHAR
STARTCHAR E.c2sc
ENCODING -1
SWIDTH 428 0
DWIDTH 9 0
BBX 7 11 1 0
BITMAP
BFFC
BAA4
B000
B000
BFF4
B550
B000
B000
B000
B554
BFFC
ENDCHAR
STARTCHAR g.ss01
ENCODING -1
SWIDTH 463 0
DWIDTH 9 0
BBX 9 15 0 -4
BITMAP
07FF80
2EAE40
3C0F00
380B00
3C0F00
2EAD00
0FE400
1C0000
2C0000
1FFD00
296B40
740380
B40780
7EAF00
1BF800
ENDCHAR
STARTCHAR alpha.ss02
ENCODING -1
SWIDTH 523 0
DWIDTH 10 0
BBX 9 11 1 0
BITMAP
1B9740
3EBB00
B42F00
B01E00
E00E00
E00E00
E00E00
F01E00
B42F00
3EBB00
1B9740
ENDCHAR
STARTCHAR R.ss03
ENCODING -1
SWIDTH 577 0
DWIDTH 12 0
BBX 10 14 1 0
BITMAP
7FF900
7AAF40
7403C0
7402C0
7402C0
740780
7FFE00
7AAF40
740780
7403C0
7402C0
7402C0
7402C0
7402D0
ENDCHAR
STARTCHAR K.ss04
ENCODING -1
SWIDTH 560 0
DWIDTH 11 0
BBX 10 14 1 0
BITMAP
7402D0
740B80
741F00
742D00
74B800
75F000
7FD000
7AE000
74B400
743C00
741E00
740B40
7403C0
7401E0
ENDCHAR
STARTCHAR k.ss04
ENCODING -1
SWIDTH 453 0
DWIDTH 9 0
BBX 8 15 1 0
BITMAP
B000
B000
B000
B000
B03C
B074
B0E0
B2D0
BF80
BBC0
B1D0
B0F0
B078
B03C
B01E
ENDCHAR
STARTCHAR K.ss05
ENCODING -1
SWIDTH 572 0
DWIDTH 11 0
BBX 10 14 1 0
BITMAP
7403D0
740B40
742E00
747800
75F000
77D000
7F8000
7F8000
76E000
74F400
747C00
741E00
740B80
7402D0
ENDCHAR
STARTCHAR k.ss05
ENCODING -1
SWIDTH 454 0
DWIDTH 9 0
BBX 8 15 1 0
BITMAP
B000
B000
B000
B000
B07C
B0F4
B2D0
B780
BF00
BE00
BB80
B7D0
B1F0
B0B8
B02D
ENDCHAR
STARTCHAR D.c2sc
ENCODING -1
SWIDTH 492 0
DWIDTH 10 0
BBX 8 11 1 0
BITMAP
BF90
BAB8
B02D
B00E
B00E
B00F
B00E
B00E
B02D
B6B8
BF90
ENDCHAR
STARTCHAR C.c2sc
ENCODING -1
SWIDTH 490 0
DWIDTH 10 0
BBX 8 11 1 0
BITMAP
0BE4
3EBD
B40E
F00B
E000
E000
E000
F00A
B40E
3EBD
0BE4
ENDCHAR
STARTCHAR B.c2sc
ENCODING -1
SWIDTH 475 0
DWIDTH 10 0
BBX 8 11 1 0
BITMAP
BFE4
BABC
B02D
B02C
BFF4
B57C
B01D
B01D
B01D
B5BC
BFE0
ENDCHAR
STARTCHAR A.c2sc
ENCODING -1
SWIDTH 501 0
DWIDTH 10 0
BBX 10 11 0 0
BITMAP
00F000
01F400
02F800
03AC00
075D00
0B0E00
0E0B00
1FFF40
2D5780
3802C0
7401D0
ENDCHAR
STARTCHAR glyph564
ENCODING -1
SWIDTH 236 0
DWIDTH 5 0
BBX 3 4 1 12
BITMAP
24
34
74
74
ENDCHAR
STARTCHAR glyph565
ENCODING -1
SWIDTH 402 0
DWIDTH 8 0
BBX 5 4 1 12
BITMAP
2800
0800
A1C0
2F40
ENDCHAR
STARTCHAR glyph566
ENCODING -1
SWIDTH 0 0
DWIDTH 0 0
BBX 5 4 -7 12
BITMAP
0700
0D00
7980
9B40
ENDCHAR
STARTCHAR glyph567
ENCODING -1
SWIDTH 455 0
DWIDTH 9 0
BBX 9 5 1 12
BITMAP
000740
000B00
0B4900
2ED000
74A000
ENDCHAR
STARTCHAR glyph568
ENCODING -1
SWIDTH 454 0
DWIDTH 9 0
BBX 8 5 -1 12
BITMAP
E000
7400
24F4
03ED
074A
ENDCHAR
STARTCHAR glyph569
ENCODING -1
SWIDTH 446 0
DWIDTH 9 0
BBX 8 4 1 12
BITMAP
002D
1F4A
39F8
A0A0
ENDCHAR
STARTCHAR glyph570
ENCODING -1
SWIDTH 453 0
DWIDTH 9 0
BBX 6 5 1 12
BITMAP
2D90
2280
0000
1F80
74A0
ENDCHAR
STARTCHAR uni0490.c2sc
ENCODING -1
SWIDTH 405 0
DWIDTH 8 0
BBX 7 14 1 0
BITMAP
0038
0038
0038
BFF8
BAA4
B000
B000
B000
B000
B000
B000
B000
B000
B000
ENDCHAR
STARTCHAR glyph572
ENCODING -1
SWIDTH 404 0
DWIDTH 8 0
BBX 5 4 1 12
BITMAP
0740
0600
A1C0
2F40
ENDCHAR
STARTCHAR glyph573
ENCODING -1
SWIDTH 404 0
DWIDTH 8 0
BBX 5 5 1 12
BITMAP
0A00
0740
0E00
A1C0
2F40
ENDCHAR
STARTCHAR zero.numr
ENCODING -1
SWIDTH 329 0
DWIDTH 7 0
BBX 5 8 1 6
BITMAP
6E00
A740
D280
D280
D280
D280
A740
6E00
ENDCHAR
STARTCHAR four.numr
ENCODING -1
SWIDTH 329 0
DWIDTH 7 0
BBX 6 8 0 6
BITMAP
02C0
07C0
0AC0
1DC0
35C0
7FF0
15D0
01C0
ENDCHAR
STARTCHAR five.numr
ENCODING -1
SWIDTH 329 0
DWIDTH 7 0
BBX 5 8 1 6
BITMAP
BF40
A500
A000
FE00
5780
0280
E780
7E00
ENDCHAR
STARTCHAR six.numr
ENCODING -1
SWIDTH 329 0
DWIDTH 7 0
BBX 5 8 1 6
BITMAP
1E00
7900
E000
EE00
E780
D280
A780
2E00
ENDCHAR
STARTCHAR seven.numr
ENCODING -1
SWIDTH 329 0
DWIDTH 7 0
BBX 6 8 0 6
BITMAP
7FE0
15E0
01C0
0280
0340
0700
0E00
1D00
ENDCHAR
STARTCHAR eight.numr
ENCODING -1
SWIDTH 329 0
DWIDTH 7 0
BBX 5 8 1 6
BITMAP
7E00
E740
E340
7F00
E740
D280
E780
7E00
ENDCHAR
STARTCHAR nine.numr
ENCODING -1
SWIDTH 329 0
DWIDTH 7 0
BBX 5 8 1 6
BITMAP
7E00
E740
D280
E780
7F80
0340
1B00
3900
ENDCHAR
STARTCHAR C.ss06
ENCODING -1
SWIDTH 603 0
DWIDTH 12 0
BBX 10 14 1 0
BITMAP
02FD00
0FAB80
2D02D0
7800E0
B400A0
B00000
B00000
B00000
B00000
7400A0
7800E0
2D02D0
0BAB80
02FE00
ENDCHAR
STARTCHAR G.ss06
ENCODING -1
SWIDTH 618 0
DWIDTH 12 0
BBX 10 14 1 0
BITMAP
02FE00
0FAB80
2D02E0
7800F0
740010
B00000
B00000
B01FF0
B41AF0
7400B0
3800B0
2D00F0
0BABE0
01BE40
ENDCHAR
STARTCHAR D.ss06
ENCODING -1
SWIDTH 608 0
DWIDTH 12 0
BBX 10 14 1 0
BITMAP
7FE400
7AAE00
740780
7402D0
7401E0
7400E0
7400F0
7400F0
7400E0
7401E0
7402D0
740780
7AAE00
7FE400
ENDCHAR
STARTCHAR O.ss06
ENCODING -1
SWIDTH 643 0
DWIDTH 13 0
BBX 11 14 1 0
BITMAP
01F900
0BAF80
2E02D0
3800F0
7400B4
B00074
B00078
B00078
B00074
740074
3800F0
2E02D0
0BAF80
01F900
ENDCHAR
STARTCHAR Q.ss06
ENCODING -1
SWIDTH 644 0
DWIDTH 13 0
BBX 11 16 1 -2
BITMAP
01F900
0BAF80
2E02D0
3800F0
7400B4
B00074
B00078
B00078
B00074
740074
3800F0
2E02D0
0BAF80
01FF40
0007D0
0001E0
ENDCHAR
STARTCHAR one.oldstyle.pnum
ENCODING -1
SWIDTH 421 0
DWIDTH 8 0
BBX 6 11 1 0
BITMAP
0190
1FD0
BAD0
51D0
01D0
01D0
01D0
01D0
01D0
01D0
01D0
ENDCHAR
STARTCHAR two.oldstyle.pnum
ENCODING -1
SWIDTH 492 0
DWIDTH 10 0
BBX 8 11 1 0
BITMAP
0BE0
3EBC
741D
B01D
002C
0078
01E0
0780
1E00
7E55
7FFF
ENDCHAR
STARTCHAR three.oldstyle.pnum
ENCODING -1
SWIDTH 474 0
DWIDTH 10 0
BBX 9 14 0 -3
BITMAP
3FFF40
2AAF00
002D00
007400
01E000
02F400
016D00
000F00
000B40
000740
000B00
001E00
BABD00
2BE400
ENDCHAR
STARTCHAR four.oldstyle.pnum
ENCODING -1
SWIDTH 524 0
DWIDTH 11 0
BBX 10 14 0 -3
BITMAP
000B40
001F40
003F40
00BB40
00D740
02C740
074740
0E0740
1D0740
3D5B90
7FFFF0
000740
000740
000740
ENDCHAR
STARTCHAR five.oldstyle.pnum
ENCODING -1
SWIDTH 483 0
DWIDTH 10 0
BBX 8 14 1 -3
BITMAP
3FFE
3AA9
3400
7400
7400
7BE0
BEF8
B02D
001E
000E
001E
402D
BAB8
6FD0
ENDCHAR
STARTCHAR seven.oldstyle.pnum
ENCODING -1
SWIDTH 458 0
DWIDTH 9 0
BBX 9 14 0 -3
BITMAP
7FFF40
155B40
000B00
000E00
002C00
003800
007400
00B000
00E000
01D000
03C000
074000
0B0000
0E0000
ENDCHAR
STARTCHAR glyph592
ENCODING -1
SWIDTH 402 0
DWIDTH 8 0
BBX 5 5 1 12
BITMAP
39C0
5780
0000
A1C0
2F40
ENDCHAR
STARTCHAR glyph593
ENCODING -1
SWIDTH 183 0
DWIDTH 4 0
BBX 2 5 1 -3
BITMAP
E0
E0
E0
E0
E0
ENDCHAR
STARTCHAR OE.c2sc
ENCODING -1
SWIDTH 714 0
DWIDTH 14 0
BBX 13 11 1 0
BITMAP
0BFFFF80
3EAFAA40
740E0000
F00E0000
E00FFF00
E00F5500
E00E0000
F00E0000
B40E0000
3EAF5540
0BFFFF80
ENDCHAR
STARTCHAR nine.oldstyle.pnum
ENCODING -1
SWIDTH 520 0
DWIDTH 10 0
BBX 9 14 1 -3
BITMAP
0BE400
2EBD00
780E00
B00B00
B00740
B40740
780B40
2EAF40
0BEB40
000B00
000E00
002D00
2AF800
2F9000
ENDCHAR
STARTCHAR glyph596
ENCODING -1
SWIDTH 234 0
DWIDTH 5 0
BBX 5 6 -1 -4
BITMAP
0500
0740
0740
0B40
2F00
7900
ENDCHAR
STARTCHAR three.oldstyle
ENCODING -1
SWIDTH 494 0
DWIDTH 10 0
BBX 8 14 1 -3
BITMAP
BFFE
6ABD
0078
00E0
02C0
07E0
01B8
002D
001E
000E
001E
002D
EAF8
6F90
ENDCHAR
STARTCHAR five.oldstyle
ENCODING -1
SWIDTH 494 0
DWIDTH 10 0
BBX 8 14 1 -3
BITMAP
2FFE
3EAA
3800
3400
7400
7BE4
7EBC
702D
000E
000E
000E
002D
BAB8
2FE0
ENDCHAR
STARTCHAR four.oldstyle
ENCODING -1
SWIDTH 494 0
DWIDTH 10 0
BBX 10 14 0 -3
BITMAP
000F00
002F00
007F00
00AB00
01DB00
038B00
074B00
0E0B00
2C0B00
795B90
BFFFE0
000B00
000B00
000B00
ENDCHAR
STARTCHAR two.oldstyle
ENCODING -1
SWIDTH 494 0
DWIDTH 10 0
BBX 8 11 1 0
BITMAP
0BE0
3EB8
B42D
B01D
002C
00B4
01E0
0780
1E00
7E55
BFFE
ENDCHAR
STARTCHAR seven.oldstyle
ENCODING -1
SWIDTH 494 0
DWIDTH 10 0
BBX 8 14 1 -3
BITMAP
BFFF
556E
001D
002C
0038
00B0
00E0
01D0
02C0
0380
0740
0F00
1D00
2C00
ENDCHAR
STARTCHAR zero.oldstyle
ENCODING -1
SWIDTH 494 0
DWIDTH 10 0
BBX 10 11 0 0
BITMAP
06F800
1FAF00
2C0780
3802C0
7402D0
7401D0
7402D0
3802C0
2C0780
1FAF00
06F900
ENDCHAR
STARTCHAR six.oldstyle
ENCODING -1
SWIDTH 494 0
DWIDTH 10 0
BBX 8 14 1 0
BITMAP
01B0
0BA0
2D00
3800
7400
B7E4
BEBC
B41E
B00E
B00E
B40E
781E
2EBC
0BE0
ENDCHAR
STARTCHAR nine.oldstyle
ENCODING -1
SWIDTH 494 0
DWIDTH 10 0
BBX 8 14 1 -3
BITMAP
1BE0
7EB8
B41D
E00E
E00F
E00B
B40F
7EBF
1BEE
000E
002D
007C
2AF4
2F90
ENDCHAR
STARTCHAR eight.oldstyle
ENCODING -1
SWIDTH 494 0
DWIDTH 10 0
BBX 8 14 1 0
BITMAP
0BE0
3EB8
742D
B41D
741D
382C
1FF4
2EB8
741D
B00E
B00E
B41E
7EBC
1BE0
ENDCHAR
STARTCHAR one.oldstyle
ENCODING -1
SWIDTH 494 0
DWIDTH 10 0
BBX 5 11 2 0
BITMAP
0280
6FC0
FBC0
43C0
03C0
03C0
03C0
03C0
03C0
03C0
03C0
ENDCHAR
STARTCHAR glyph607
ENCODING -1
SWIDTH 237 0
DWIDTH 5 0
BBX 5 15 -1 -4
BITMAP
0740
0740
0740
0740
0740
0740
0740
0740
0740
0740
0740
0740
0B40
2F00
7900
ENDCHAR
STARTCHAR glyph608
ENCODING -1
SWIDTH 238 0
DWIDTH 5 0
BBX 5 15 -1 -4
BITMAP
0740
0740
0740
0740
0740
0740
0740
0740
0740
0740
0740
0740
0B40
2F00
7900
ENDCHAR
STARTCHAR glyph609
ENCODING -1
SWIDTH 235 0
DWIDTH 5 0
BBX 2 11 1 0
BITMAP
B0
B0
B0
B0
B0
B0
B0
B0
B0
B0
B0
ENDCHAR
STARTCHAR glyph610
ENCODING -1
SWIDTH 235 0
DWIDTH 5 0
BBX 3 15 0 -4
BITMAP
2C
2C
2C
2C
2C
2C
2C
2C
2C
2C
2C
74
A0
B4
7C
ENDCHAR
STARTCHAR glyph611
ENCODING -1
SWIDTH 235 0
DWIDTH 5 0
BBX 2 11 1 0
BITMAP
B0
B0
B0
B0
B0
B0
B0
B0
B0
B0
B0
ENDCHAR
STARTCHAR germandbls.sc
ENCODING -1
SWIDTH 475 0
DWIDTH 10 0
BBX 8 11 1 0
BITMAP
1BD0
3EB8
B478
B0E0
B2C0
B3E4
B17D
B01E
B01D
B2BC
B7E4
ENDCHAR
STARTCHAR zero.oldstyle.pnum
ENCODING -1
SWIDTH 545 0
DWIDTH 11 0
BBX 9 11 1 0
BITMAP
0BF400
2EAE00
780B40
B00780
B00380
F00380
B00380
B00780
780B40
2EAE00
0BF400
ENDCHAR
STARTCHAR seven.pnum
ENCODING -1
SWIDTH 458 0
DWIDTH 9 0
BBX 9 14 0 0
BITMAP
7FFF40
155B00
000A00
001D00
002C00
003800
007400
00B000
00E000
01D000
02C000
038000
0B4000
0E0000
ENDCHAR
STARTCHAR b.ss06
ENCODING -1
SWIDTH 493 0
DWIDTH 10 0
BBX 8 15 1 0
BITMAP
B000
B000
B000
B000
B7E4
BEBC
B41E
B00F
B00B
B00B
B00B
B00F
B41E
BEBC
B7E4
ENDCHAR
STARTCHAR c.ss06
ENCODING -1
SWIDTH 460 0
DWIDTH 9 0
BBX 8 11 1 0
BITMAP
0BE0
3EB8
B42D
F00D
E000
E000
E000
F009
B41D
3EB8
0BE0
ENDCHAR
STARTCHAR d.ss06
ENCODING -1
SWIDTH 503 0
DWIDTH 10 0
BBX 8 15 1 0
BITMAP
000E
000E
000E
000E
0BDE
3EBE
B41E
F00E
E00E
E00E
E00E
B00E
B41E
3EBE
0BDE
ENDCHAR
STARTCHAR g.ss06
ENCODING -1
SWIDTH 500 0
DWIDTH 10 0
BBX 8 15 1 -4
BITMAP
0BDA
3EBE
B41E
F00E
E00E
E00E
E00E
F00E
B41E
3EBE
0BDE
000E
001D
3AB8
1BE0
ENDCHAR
STARTCHAR o.ss06
ENCODING -1
SWIDTH 508 0
DWIDTH 10 0
BBX 9 11 1 0
BITMAP
0BE000
2EBC00
741E00
B00B00
E00B00
E00B40
E00B00
B00B00
741E00
2EBC00
0BE000
ENDCHAR
STARTCHAR p.ss06
ENCODING -1
SWIDTH 500 0
DWIDTH 10 0
BBX 8 15 1 -4
BITMAP
A7E4
BEBC
B41E
B00F
B00B
B00B
B00B
B00F
B41E
BEBC
B7E4
B000
B000
B000
B000
ENDCHAR
STARTCHAR q.ss06
ENCODING -1
SWIDTH 508 0
DWIDTH 10 0
BBX 8 15 1 -4
BITMAP
1BDA
3EBE
B41E
F00E
E00E
E00E
E00E
F00E
B41E
3EBE
0BDE
000E
000E
000E
000E
ENDCHAR
STARTCHAR e.ss07
ENCODING -1
SWIDTH 468 0
DWIDTH 9 0
BBX 8 11 1 0
BITMAP
0BE0
2EB8
741D
A01E
FFFE
F555
F000
B000
7800
2EAC
0BF4
ENDCHAR
STARTCHAR g.ss07
ENCODING -1
SWIDTH 492 0
DWIDTH 10 0
BBX 8 15 1 -4
BITMAP
1B9E
3EBE
B41E
F00E
E00E
E00E
E00E
F00E
B41E
3EBE
1B9E
001D
002D
2AB8
1BE0
ENDCHAR
STARTCHAR one.pnum
ENCODING -1
SWIDTH 382 0
DWIDTH 8 0
BBX 6 14 0 0
BITMAP
01A0
1BE0
7EE0
11E0
01E0
01E0
01E0
01E0
01E0
01E0
01E0
01E0
01E0
01E0
ENDCHAR
STARTCHAR ampersand.c2sc
ENCODING -1
SWIDTH 526 0
DWIDTH 11 0
BBX 9 11 1 0
BITMAP
1F8000
3EE000
74B000
38E000
1FC000
1F4600
7AD700
F0FB00
E03D00
BABE00
2F9B40
ENDCHAR
STARTCHAR Lslash.c2sc
ENCODING -1
SWIDTH 411 0
DWIDTH 8 0
BBX 8 11 0 0
BITMAP
2C00
2C00
2C00
2C00
2D80
7E40
BC00
2C00
2C00
2D55
2FFE
ENDCHAR
STARTCHAR AE.c2sc
ENCODING -1
SWIDTH 676 0
DWIDTH 14 0
BBX 13 11 0 0
BITMAP
002FFF40
003F9500
00BB0000
00EB4000
02C7FF00
03879500
0B474000
0FFF4000
2E5B4000
3C079540
B407FF80
ENDCHAR
STARTCHAR Thorn.c2sc
ENCODING -1
SWIDTH 440 0
DWIDTH 9 0
BBX 7 11 1 0
BITMAP
B000
B000
BFD0
B6B8
B02C
B02C
B07C
BFF4
B540
B000
B000
ENDCHAR
STARTCHAR Oslash.c2sc
ENCODING -1
SWIDTH 519 0
DWIDTH 10 0
BBX 9 13 1 -1
BITMAP
000100
0BEB00
3EBD00
742F00
F07B40
E0A740
E1C740
E34740
FA0B40
BC0F00
3EBD00
7BE400
500000
ENDCHAR
STARTCHAR Hbar.c2sc
ENCODING -1
SWIDTH 533 0
DWIDTH 11 0
BBX 10 11 0 0
BITMAP
2C01D0
7FFFF0
7D56E0
2C01D0
2C01D0
2FFFD0
2D56D0
2C01D0
2C01D0
2C01D0
2C01D0
ENDCHAR
STARTCHAR Eng.c2sc
ENCODING -1
SWIDTH 533 0
DWIDTH 11 0
BBX 9 15 1 -4
BITMAP
B40740
B80740
BD0740
BB0740
B38740
B1C740
B0E740
B07B40
B02F40
B00F40
B00B40
000740
000740
002F00
007D00
ENDCHAR
STARTCHAR Dcroat.c2sc
ENCODING -1
SWIDTH 492 0
DWIDTH 10 0
BBX 10 11 -1 0
BITMAP
0BF900
0BAB80
0B02D0
0B00E0
7FF0E0
5F50F0
0B00E0
0B00E0
0B02D0
0B6B80
0BF900
ENDCHAR
STARTCHAR Eth.c2sc
ENCODING -1
SWIDTH 492 0
DWIDTH 10 0
BBX 10 11 -1 0
BITMAP
0BF900
0BAB80
0B02D0
0B00E0
7FF0E0
5F50F0
0B00E0
0B00E0
0B02D0
0B6B80
0BF900
ENDCHAR
STARTCHAR Tbar.c2sc
ENCODING -1
SWIDTH 456 0
DWIDTH 9 0
BBX 9 11 0 0
BITMAP
7FFF80
6AEA40
01D000
01D000
0FFD00
06F400
01D000
01D000
01D000
01D000
01D000
ENDCHAR
STARTCHAR Agrave.c2sc
ENCODING -1
SWIDTH 501 0
DWIDTH 10 0
BBX 10 15 0 0
BITMAP
0B8000
02D000
00A000
000000
00F000
01F400
02F800
03AC00
075D00
0B0E00
0E0B00
1FFF40
2D5780
3802C0
7401D0
ENDCHAR
STARTCHAR Aacute.c2sc
ENCODING -1
SWIDTH 501 0
DWIDTH 10 0
BBX 10 15 0 0
BITMAP
001E00
007800
00A000
000000
00F000
01F400
02F800
03AC00
075D00
0B0E00
0E0B00
1FFF40
2D5780
3802C0
7401D0
ENDCHAR
STARTCHAR Acircumflex.c2sc
ENCODING -1
SWIDTH 501 0
DWIDTH 10 0
BBX 10 15 0 0
BITMAP
00F000
02A800
074D00
000000
00F000
01F400
02F800
03AC00
075D00
0B0E00
0E0B00
1FFF40
2D5780
3802C0
7401D0
ENDCHAR
STARTCHAR Atilde.c2sc
ENCODING -1
SWIDTH 501 0
DWIDTH 10 0
BBX 10 16 0 0
BITMAP
014100
07EA00
096D00
000000
000000
00F000
01F400
02F800
03AC00
075D00
0B0E00
0E0B00
1FFF40
2D5780
3802C0
7401D0
ENDCHAR
STARTCHAR Adieresis.c2sc
ENCODING -1
SWIDTH 501 0
DWIDTH 10 0
BBX 10 15 0 0
BITMAP
0F0B00
0E0B00
000000
000000
00F000
01F400
02F800
03AC00
075D00
0B0E00
0E0B00
1FFF40
2D5780
3802C0
7401D0
ENDCHAR
STARTCHAR Aring.c2sc
ENCODING -1
SWIDTH 501 0
DWIDTH 10 0
BBX 10 16 0 0
BITMAP
01F400
030C00
030C00
01F400
000000
00F000
01F400
02F800
03AC00
075D00
0B0E00
0E0B00
1FFF40
2D5780
3802C0
7401D0
ENDCHAR
STARTCHAR Aringacute.c2sc
ENCODING -1
SWIDTH 501 0
DWIDTH 10 0
BBX 10 16 0 0
BITMAP
002D00
002400
00B000
019400
00B000
00F000
01F400
02F800
03AC00
075D00
0B0E00
0E0B00
1FFF40
2D5780
3802C0
7401D0
ENDCHAR
STARTCHAR Ccedilla.c2sc
ENCODING -1
SWIDTH 490 0
DWIDTH 10 0
BBX 8 15 1 -4
BITMAP
0BE4
3EBD
B40E
F00B
E000
E000
E000
F00A
B40E
3EBD
0BE4
0280
0190
00A0
0290
ENDCHAR
STARTCHAR Egrave.c2sc
ENCODING -1
SWIDTH 428 0
DWIDTH 9 0
BBX 7 15 1 0
BITMAP
3C00
1E00
0740
0000
BFFC
BAA4
B000
B000
BFF4
B550
B000
B000
B000
B554
BFFC
ENDCHAR
STARTCHAR Eacute.c2sc
ENCODING -1
SWIDTH 428 0
DWIDTH 9 0
BBX 7 15 1 0
BITMAP
00F4
02D0
0240
0000
BFFC
BAA4
B000
B000
BFF4
B550
B000
B000
B000
B554
BFFC
ENDCHAR
STARTCHAR Ecircumflex.c2sc
ENCODING -1
SWIDTH 428 0
DWIDTH 9 0
BBX 7 15 1 0
BITMAP
0780
1ED0
28A0
0000
BFFC
BAA4
B000
B000
BFF4
B550
B000
B000
B000
B554
BFFC
ENDCHAR
STARTCHAR Edieresis.c2sc
ENCODING -1
SWIDTH 428 0
DWIDTH 9 0
BBX 7 15 1 0
BITMAP
7478
7478
0000
0000
BFFC
BAA4
B000
B000
BFF4
B550
B000
B000
B000
B554
BFFC
ENDCHAR
STARTCHAR Igrave.c2sc
ENCODING -1
SWIDTH 221 0
DWIDTH 4 0
BBX 4 15 -1 0
BITMAP
78
2D
0A
00
0B
0B
0B
0B
0B
0B
0B
0B
0B
0B
0B
ENDCHAR
STARTCHAR Iacute.c2sc
ENCODING -1
SWIDTH 221 0
DWIDTH 4 0
BBX 4 15 1 0
BITMAP
1E
3C
74
00
B0
B0
B0
B0
B0
B0
B0
B0
B0
B0
B0
ENDCHAR
STARTCHAR Icircumflex.c2sc
ENCODING -1
SWIDTH 221 0
DWIDTH 4 0
BBX 5 15 0 0
BITMAP
2D00
BB00
9240
0000
2C00
2C00
2C00
2C00
2C00
2C00
2C00
2C00
2C00
2C00
2C00
ENDCHAR
STARTCHAR Idieresis.c2sc
ENCODING -1
SWIDTH 221 0
DWIDTH 4 0
BBX 7 15 -1 0
BITMAP
B0B4
B0B4
0000
0000
0B00
0B00
0B00
0B00
0B00
0B00
0B00
0B00
0B00
0B00
0B00
ENDCHAR
STARTCHAR Ntilde.c2sc
ENCODING -1
SWIDTH 533 0
DWIDTH 11 0
BBX 9 16 1 0
BITMAP
050400
1F9C00
28B800
000000
000000
B40740
B80740
BD0740
BB0740
B38740
B1C740
B0E740
B07B40
B02F40
B01F40
B00B40
ENDCHAR
STARTCHAR Ograve.c2sc
ENCODING -1
SWIDTH 519 0
DWIDTH 10 0
BBX 9 15 1 0
BITMAP
1E0000
0B4000
028000
000000
0BE400
3EBD00
740F00
F00B40
E00740
E00740
E00740
F00B40
B40F00
3EBD00
0BE400
ENDCHAR
STARTCHAR Oacute.c2sc
ENCODING -1
SWIDTH 519 0
DWIDTH 10 0
BBX 9 15 1 0
BITMAP
007800
00F000
01D000
000000
0BE400
3EBD00
740F00
F00B40
E00740
E00740
E00740
F00B40
B40F00
3EBD00
0BE400
ENDCHAR
STARTCHAR Ocircumflex.c2sc
ENCODING -1
SWIDTH 519 0
DWIDTH 10 0
BBX 9 15 1 0
BITMAP
02D000
0BB000
092400
000000
0BE400
3EBD00
740F00
F00B40
E00740
E00740
E00740
F00B40
B40F00
3EBD00
0BE400
ENDCHAR
STARTCHAR Otilde.c2sc
ENCODING -1
SWIDTH 519 0
DWIDTH 10 0
BBX 9 16 1 0
BITMAP
050800
1FAC00
28B400
000000
000000
0BE400
3EBD00
740F00
F00B40
E00740
E00740
E00740
F00B40
B40F00
3EBD00
0BE400
ENDCHAR
STARTCHAR Odieresis.c2sc
ENCODING -1
SWIDTH 519 0
DWIDTH 10 0
BBX 9 15 1 0
BITMAP
2C2D00
2C2D00
000000
000000
0BE400
3EBD00
740F00
F00B40
E00740
E00740
E00740
F00B40
B40F00
3EBD00
0BE400
ENDCHAR
STARTCHAR Ugrave.c2sc
ENCODING -1
SWIDTH 488 0
DWIDTH 10 0
BBX 8 15 1 0
BITMAP
2D00
0F40
0340
0000
E00E
E00E
E00E
E00E
E00E
E00E
E00E
E00E
B01D
7EBC
1BE0
ENDCHAR
STARTCHAR Uacute.c2sc
ENCODING -1
SWIDTH 488 0
DWIDTH 10 0
BBX 8 15 1 0
BITMAP
00B8
01E0
0280
0000
E00E
E00E
E00E
E00E
E00E
E00E
E00E
E00E
B01D
7EBC
1BE0
ENDCHAR
STARTCHAR Ucircumflex.c2sc
ENCODING -1
SWIDTH 488 0
DWIDTH 10 0
BBX 8 15 1 0
BITMAP
0380
0EE0
1C74
0000
E00E
E00E
E00E
E00E
E00E
E00E
E00E
E00E
B01D
7EBC
1BE0
ENDCHAR
STARTCHAR Udieresis.c2sc
ENCODING -1
SWIDTH 488 0
DWIDTH 10 0
BBX 8 15 1 0
BITMAP
383C
383C
0000
0000
E00E
E00E
E00E
E00E
E00E
E00E
E00E
E00E
B01D
7EBC
1BE0
ENDCHAR
STARTCHAR Yacute.c2sc
ENCODING -1
SWIDTH 458 0
DWIDTH 9 0
BBX 9 15 0 0
BITMAP
003D00
00B400
009000
000000
740780
3C0B00
2D1E00
0E2D00
0B7800
03F400
02E000
01D000
01D000
01D000
01D000
ENDCHAR
STARTCHAR Amacron.c2sc
ENCODING -1
SWIDTH 501 0
DWIDTH 10 0
BBX 10 15 0 0
BITMAP
055500
0BFF00
000000
000000
00F000
01F400
02F800
03AC00
075D00
0B0E00
0E0B00
1FFF40
2D5780
3802C0
7401D0
ENDCHAR
STARTCHAR Abreve.c2sc
ENCODING -1
SWIDTH 501 0
DWIDTH 10 0
BBX 10 14 0 0
BITMAP
0B5A00
02F800
000000
00F000
01F400
02F800
03AC00
075D00
0B0E00
0E0B00
1FFF40
2D5780
3802C0
7401D0
ENDCHAR
STARTCHAR Aogonek.c2sc
ENCODING -1
SWIDTH 501 0
DWIDTH 10 0
BBX 10 15 0 -4
BITMAP
00F000
01F400
02F800
03AC00
075D00
0B0E00
0E0B00
1FFF40
2D5780
3802C0
7401D0
000280
000700
000B50
0003D0
ENDCHAR
STARTCHAR Cacute.c2sc
ENCODING -1
SWIDTH 490 0
DWIDTH 10 0
BBX 8 15 1 0
BITMAP
0078
01E0
0280
0000
0BE4
3EBD
B40E
F00B
E000
E000
E000
F00A
B40E
3EBD
0BE4
ENDCHAR
STARTCHAR Ccircumflex.c2sc
ENCODING -1
SWIDTH 490 0
DWIDTH 10 0
BBX 8 15 1 0
BITMAP
03C0
0AA0
1D34
0000
0BE4
3EBD
B40E
F00B
E000
E000
E000
F00A
B40E
3EBD
0BE4
ENDCHAR
STARTCHAR Cdotaccent.c2sc
ENCODING -1
SWIDTH 490 0
DWIDTH 10 0
BBX 8 15 1 0
BITMAP
03C0
0280
0000
0000
0BE4
3EBD
B40E
F00B
E000
E000
E000
F00A
B40E
3EBD
0BE4
ENDCHAR
STARTCHAR Ccaron.c2sc
ENCODING -1
SWIDTH 490 0
DWIDTH 10 0
BBX 8 15 1 0
BITMAP
1D74
0AA0
02C0
0000
0BE4
3EBD
B40E
F00B
E000
E000
E000
F00A
B40E
3EBD
0BE4
ENDCHAR
STARTCHAR Dcaron.c2sc
ENCODING -1
SWIDTH 492 0
DWIDTH 10 0
BBX 8 15 1 0
BITMAP
34E0
1EC0
0B40
0000
BF90
BAB8
B02D
B00E
B00E
B00F
B00E
B00E
B02D
B6B8
BF90
ENDCHAR
STARTCHAR Emacron.c2sc
ENCODING -1
SWIDTH 428 0
DWIDTH 9 0
BBX 7 15 1 0
BITMAP
1554
7FF4
0000
0000
BFFC
BAA4
B000
B000
BFF4
B550
B000
B000
B000
B554
BFFC
ENDCHAR
STARTCHAR Ebreve.c2sc
ENCODING -1
SWIDTH 428 0
DWIDTH 9 0
BBX 7 14 1 0
BITMAP
3974
1BD0
0000
BFFC
BAA4
B000
B000
BFF4
B550
B000
B000
B000
B554
BFFC
ENDCHAR
STARTCHAR Edotaccent.c2sc
ENCODING -1
SWIDTH 428 0
DWIDTH 9 0
BBX 7 15 1 0
BITMAP
0740
0740
0000
0000
BFFC
BAA4
B000
B000
BFF4
B550
B000
B000
B000
B554
BFFC
ENDCHAR
STARTCHAR Eogonek.c2sc
ENCODING -1
SWIDTH 428 0
DWIDTH 9 0
BBX 7 15 1 -4
BITMAP
BFFC
BAA4
B000
B000
BFF4
B550
B000
B000
B000
B554
BFFC
00A0
01C0
01D4
00B4
ENDCHAR
STARTCHAR Ecaron.c2sc
ENCODING -1
SWIDTH 428 0
DWIDTH 9 0
BBX 7 15 1 0
BITMAP
28B0
0ED0
0740
0000
BFFC
BAA4
B000
B000
BFF4
B550
B000
B000
B000
B554
BFFC
ENDCHAR
STARTCHAR Gcircumflex.c2sc
ENCODING -1
SWIDTH 509 0
DWIDTH 10 0
BBX 8 15 1 0
BITMAP
03C0
0AA0
1C74
0000
0BE4
3EBD
B40E
F005
E000
E0BF
E05B
F00B
B40B
3EAF
0BF8
ENDCHAR
STARTCHAR Gbreve.c2sc
ENCODING -1
SWIDTH 509 0
DWIDTH 10 0
BBX 8 14 1 0
BITMAP
2978
0BE0
0000
0BE4
3EBD
B40E
F005
E000
E0BF
E05B
F00B
B40B
3EAF
0BF8
ENDCHAR
STARTCHAR Gdotaccent.c2sc
ENCODING -1
SWIDTH 509 0
DWIDTH 10 0
BBX 8 15 1 0
BITMAP
03C0
0380
0000
0000
0BE4
3EBD
B40E
F005
E000
E0BF
E05B
F00B
B40B
3EAF
0BF8
ENDCHAR
STARTCHAR uni0122.c2sc
ENCODING -1
SWIDTH 509 0
DWIDTH 10 0
BBX 8 16 1 -5
BITMAP
0BE4
3EBD
B40E
F005
E000
E0BF
E05B
F00B
B40B
3EAF
0BF8
0000
0380
0380
0340
0600
ENDCHAR
STARTCHAR Hcircumflex.c2sc
ENCODING -1
SWIDTH 533 0
DWIDTH 11 0
BBX 9 15 1 0
BITMAP
02D000
0BB000
092400
000000
B00740
B00740
B00740
B00740
BFFF40
B55B40
B00740
B00740
B00740
B00740
B00740
ENDCHAR
STARTCHAR Itilde.c2sc
ENCODING -1
SWIDTH 221 0
DWIDTH 4 0
BBX 6 16 -1 0
BITMAP
1420
7EB0
A2D0
0000
0000
0B00
0B00
0B00
0B00
0B00
0B00
0B00
0B00
0B00
0B00
0B00
ENDCHAR
STARTCHAR Imacron.c2sc
ENCODING -1
SWIDTH 221 0
DWIDTH 4 0
BBX 6 15 -1 0
BITMAP
5550
BFF0
0000
0000
0B00
0B00
0B00
0B00
0B00
0B00
0B00
0B00
0B00
0B00
0B00
ENDCHAR
STARTCHAR Ibreve.c2sc
ENCODING -1
SWIDTH 221 0
DWIDTH 4 0
BBX 6 14 -1 0
BITMAP
B5B0
2F90
0000
0B00
0B00
0B00
0B00
0B00
0B00
0B00
0B00
0B00
0B00
0B00
ENDCHAR
STARTCHAR Iogonek.c2sc
ENCODING -1
SWIDTH 221 0
DWIDTH 4 0
BBX 3 15 0 -4
BITMAP
2C
2C
2C
2C
2C
2C
2C
2C
2C
2C
2C
38
B0
B4
7C
ENDCHAR
STARTCHAR Idotaccent.c2sc
ENCODING -1
SWIDTH 221 0
DWIDTH 4 0
BBX 2 15 1 0
BITMAP
B0
B0
00
00
B0
B0
B0
B0
B0
B0
B0
B0
B0
B0
B0
ENDCHAR
STARTCHAR Jcircumflex.c2sc
ENCODING -1
SWIDTH 419 0
DWIDTH 8 0
BBX 9 15 0 0
BITMAP
002C00
00BB00
019340
000000
002D00
002D00
002D00
002D00
002D00
002D00
002D00
502D00
742C00
3EB800
1BE000
ENDCHAR
STARTCHAR uni0136.c2sc
ENCODING -1
SWIDTH 473 0
DWIDTH 9 0
BBX 8 16 1 -5
BITMAP
B01E
B07C
B0F4
B2D0
BB80
BF80
BAD0
B0F0
B078
B02D
B00F
0000
0740
0740
0B00
0900
ENDCHAR
STARTCHAR Lacute.c2sc
ENCODING -1
SWIDTH 411 0
DWIDTH 8 0
BBX 7 15 1 0
BITMAP
1E00
3C00
7000
0000
B000
B000
B000
B000
B000
B000
B000
B000
B000
B554
BFF8
ENDCHAR
STARTCHAR uni013B.c2sc
ENCODING -1
SWIDTH 411 0
DWIDTH 8 0
BBX 7 16 1 -5
BITMAP
B000
B000
B000
B000
B000
B000
B000
B000
B000
B554
BFF8
0000
0740
0740
0B00
0900
ENDCHAR
STARTCHAR Lcaron.c2sc
ENCODING -1
SWIDTH 411 0
DWIDTH 8 0
BBX 7 11 1 0
BITMAP
B1D0
B1D0
B2C0
B240
B000
B000
B000
B000
B000
B554
BFF8
ENDCHAR
STARTCHAR Ldot.c2sc
ENCODING -1
SWIDTH 411 0
DWIDTH 8 0
BBX 7 11 1 0
BITMAP
B000
B000
B000
B000
B2D0
B2D0
B000
B000
B000
B554
BFF8
ENDCHAR
STARTCHAR Nacute.c2sc
ENCODING -1
SWIDTH 533 0
DWIDTH 11 0
BBX 9 15 1 0
BITMAP
007C00
00F000
01D000
000000
B40740
B80740
BD0740
BB0740
B38740
B1C740
B0E740
B07B40
B02F40
B01F40
B00B40
ENDCHAR
STARTCHAR uni0145.c2sc
ENCODING -1
SWIDTH 533 0
DWIDTH 11 0
BBX 9 16 1 -5
BITMAP
B40740
B80740
BD0740
BB0740
B38740
B1C740
B0E740
B07B40
B02F40
B01F40
B00B40
000000
02C000
02C000
038000
024000
ENDCHAR
STARTCHAR Ncaron.c2sc
ENCODING -1
SWIDTH 533 0
DWIDTH 11 0
BBX 9 15 1 0
BITMAP
0D2800
07B000
02D000
000000
B40740
B80740
BD0740
BB0740
B38740
B1C740
B0E740
B07B40
B02F40
B01F40
B00B40
ENDCHAR
STARTCHAR Omacron.c2sc
ENCODING -1
SWIDTH 519 0
DWIDTH 10 0
BBX 9 15 1 0
BITMAP
155400
2FFC00
000000
000000
0BE400
3EBD00
740F00
F00B40
E00740
E00740
E00740
F00B40
B40F00
3EBD00
0BE400
ENDCHAR
STARTCHAR Obreve.c2sc
ENCODING -1
SWIDTH 519 0
DWIDTH 10 0
BBX 9 14 1 0
BITMAP
2D6C00
0BE400
000000
0BE400
3EBD00
740F00
F00B40
E00740
E00740
E00740
F00B40
B40F00
3EBD00
0BE400
ENDCHAR
STARTCHAR Ohungarumlaut.c2sc
ENCODING -1
SWIDTH 519 0
DWIDTH 10 0
BBX 9 15 1 0
BITMAP
03DE00
076C00
0A7400
000000
0BE400
3EBD00
740F00
F00B40
E00740
E00740
E00740
F00B40
B40F00
3EBD00
0BE400
ENDCHAR
STARTCHAR Racute.c2sc
ENCODING -1
SWIDTH 465 0
DWIDTH 9 0
BBX 8 15 1 0
BITMAP
00F4
02D0
0740
0000
BFE4
BABC
B01D
B01D
B02D
BFF4
B5E0
B0B4
B038
B02D
B00E
ENDCHAR
STARTCHAR uni0156.c2sc
ENCODING -1
SWIDTH 465 0
DWIDTH 9 0
BBX 8 16 1 -5
BITMAP
BFE4
BABC
B01D
B01D
B02D
BFF4
B5E0
B0B4
B038
B02D
B00E
0000
0740
0740
0B00
0900
ENDCHAR
STARTCHAR Rcaron.c2sc
ENCODING -1
SWIDTH 465 0
DWIDTH 9 0
BBX 8 15 1 0
BITMAP
38A0
1EC0
0740
0000
BFE4
BABC
B01D
B01D
B02D
BFF4
B5E0
B0B4
B038
B02D
B00E
ENDCHAR
STARTCHAR Sacute.c2sc
ENCODING -1
SWIDTH 453 0
DWIDTH 9 0
BBX 8 15 1 0
BITMAP
00B4
02D0
0280
0000
1BE0
7AB8
F02D
F014
7E40
1FE0
01BC
902D
E02D
B9BC
1BE0
ENDCHAR
STARTCHAR Scircumflex.c2sc
ENCODING -1
SWIDTH 453 0
DWIDTH 9 0
BBX 8 15 1 0
BITMAP
0780
1ED0
2860
0000
1BE0
7AB8
F02D
F014
7E40
1FE0
01BC
902D
E02D
B9BC
1BE0
ENDCHAR
STARTCHAR Scedilla.c2sc
ENCODING -1
SWIDTH 453 0
DWIDTH 9 0
BBX 8 15 1 -4
BITMAP
1BE0
7AB8
F02D
F014
7E40
1FE0
01BC
902D
E02D
B9BC
1BE0
0340
01D0
00D0
0380
ENDCHAR
STARTCHAR Scaron.c2sc
ENCODING -1
SWIDTH 453 0
DWIDTH 9 0
BBX 8 15 1 0
BITMAP
28B0
0ED0
0780
0000
1BE0
7AB8
F02D
F014
7E40
1FE0
01BC
902D
E02D
B9BC
1BE0
ENDCHAR
STARTCHAR uni021A.c2sc
ENCODING -1
SWIDTH 456 0
DWIDTH 9 0
BBX 9 16 0 -5
BITMAP
7FFF80
6AEA40
01D000
01D000
01D000
01D000
01D000
01D000
01D000
01D000
01D000
000000
01D000
01D000
02C000
024000
ENDCHAR
STARTCHAR Tcaron.c2sc
ENCODING -1
SWIDTH 456 0
DWIDTH 9 0
BBX 9 15 0 0
BITMAP
0A2C00
03B400
01D000
000000
7FFF80
6AEA40
01D000
01D000
01D000
01D000
01D000
01D000
01D000
01D000
01D000
ENDCHAR
STARTCHAR uni0162.c2sc
ENCODING -1
SWIDTH 456 0
DWIDTH 9 0
BBX 9 15 0 -4
BITMAP
7FFF80
6AEA40
01D000
01D000
01D000
01D000
01D000
01D000
01D000
01D000
01D000
00D000
007000
007400
01E000
ENDCHAR
STARTCHAR Utilde.c2sc
ENCODING -1
SWIDTH 488 0
DWIDTH 10 0
BBX 8 16 1 0
BITMAP
0414
2FA8
35F0
0000
0000
E00E
E00E
E00E
E00E
E00E
E00E
E00E
E00E
B01D
7EBC
1BE0
ENDCHAR
STARTCHAR Umacron.c2sc
ENCODING -1
SWIDTH 488 0
DWIDTH 10 0
BBX 8 15 1 0
BITMAP
1554
3FF8
0000
0000
E00E
E00E
E00E
E00E
E00E
E00E
E00E
E00E
B01D
7EBC
1BE0
ENDCHAR
STARTCHAR Ubreve.c2sc
ENCODING -1
SWIDTH 488 0
DWIDTH 10 0
BBX 8 14 1 0
BITMAP
3978
1BE0
0000
E00E
E00E
E00E
E00E
E00E
E00E
E00E
E00E
B01D
7EBC
1BE0
ENDCHAR
STARTCHAR Uring.c2sc
ENCODING -1
SWIDTH 488 0
DWIDTH 10 0
BBX 8 16 1 0
BITMAP
07D0
0C70
0C70
07D0
0000
E00E
E00E
E00E
E00E
E00E
E00E
E00E
E00E
B01D
7EBC
1BE0
ENDCHAR
STARTCHAR Uhungarumlaut.c2sc
ENCODING -1
SWIDTH 488 0
DWIDTH 10 0
BBX 8 15 1 0
BITMAP
079D
0B78
0970
0000
E00E
E00E
E00E
E00E
E00E
E00E
E00E
E00E
B01D
7EBC
1BE0
ENDCHAR
STARTCHAR Uogonek.c2sc
ENCODING -1
SWIDTH 488 0
DWIDTH 10 0
BBX 8 15 1 -4
BITMAP
E00E
E00E
E00E
E00E
E00E
E00E
E00E
E00E
B01E
7EBC
1BF0
01C0
0380
0390
01E0
ENDCHAR
STARTCHAR Wcircumflex.c2sc
ENCODING -1
SWIDTH 655 0
DWIDTH 13 0
BBX 13 15 0 0
BITMAP
001E0000
007B4000
00A28000
00000000
741E0380
381E0740
382F0B00
2C3B4B00
1C734E00
1D728D00
0EA1DD00
0AD1EC00
0BD0F800
07C0B800
03807400
ENDCHAR
STARTCHAR Ycircumflex.c2sc
ENCODING -1
SWIDTH 458 0
DWIDTH 9 0
BBX 9 15 0 0
BITMAP
01E000
07B400
0A2800
000000
740780
3C0B00
2D1E00
0E2D00
0B7800
03F400
02E000
01D000
01D000
01D000
01D000
ENDCHAR
STARTCHAR Ydieresis.c2sc
ENCODING -1
SWIDTH 458 0
DWIDTH 9 0
BBX 9 15 0 0
BITMAP
1D1E00
1D1E00
000000
000000
740780
3C0B00
2D1E00
0E2D00
0B7800
03F400
02E000
01D000
01D000
01D000
01D000
ENDCHAR
ENDFONT
